<?xml version="1.0" encoding="utf-8"?>
<!-- Generator: Adobe Illustrator 25.4.1, SVG Export Plug-In . SVG Version: 6.00 Build 0)  -->
<svg version="1.1" id="Capa_1" xmlns="http://www.w3.org/2000/svg" xmlns:xlink="http://www.w3.org/1999/xlink" x="0px" y="0px"
	 viewBox="0 0 362.1 219.6" style="enable-background:new 0 0 362.1 219.6;" xml:space="preserve">
<style type="text/css">
	.st0{fill:#202E56;}
</style>
<g>
	<path class="st0" d="M0,21.4c0.2-0.6,0.5-1.3,0.7-1.9C3.6,8.1,13,0.4,24.7,0.1C37.8-0.1,50.9,0,64,0.1c3.9,0,6.1,2.1,6.1,5.3
		c0,3.2-2.3,5.3-6.2,5.3c-12.3,0.1-24.5,0-36.8,0c-10.6,0-16.5,5.9-16.5,16.4c0,36.7,0,73.3,0,110c0,10.4,6,16.4,16.5,16.5
		c3.5,0,7,0,11.1,0c0-1.5,0-2.7,0-4c0-9.3,0-18.6,0-27.9c0-6.7,1.4-8.1,8-8.1c42.1,0,84.2,0,126.2,0c47.7,0,95.5,0,143.2,0
		c6.9,0,8.3,1.4,8.3,8.2c0,9.3,0,18.6,0,27.9c0,1.2,0,2.3,0,4.1c5.7-0.3,11.2,0,16.4-0.9c6.8-1.1,11.1-7.5,11.1-15.2
		c0-24.2,0-48.3,0-72.5c0-12.6,0-25.2,0-37.8c0-10.8-5.8-16.6-16.6-16.6c-81.8,0-163.6,0-245.4,0c-1.4,0-2.9,0.1-4.2-0.2
		C82.4,9.9,80.7,8,80.8,5c0.2-2.9,2-4.7,5-4.9C86.9,0,88,0,89.1,0c81.7,0,163.4,0,245,0c13.7,0,23.4,6.4,26.8,18
		c0.9,3,1.2,6.3,1.2,9.4c0.1,36.3,0.1,72.6,0,108.9c0,17.2-10.6,27.8-27.8,27.8c-68.7,0-137.4,0-206.1,0c-8.1,0-16.3,0.1-24.4,0
		c-1.6,0-3.7-0.2-4.6-1.1c-1.2-1.4-2.3-3.8-2-5.4c0.3-1.5,2.4-3,4-3.8c1.2-0.6,3-0.2,4.5-0.2c67.5,0,135.1,0,202.6,0
		c1.5,0,3,0,4.8,0c0-3.2,0-6.1,0-9.4c-2.1,0-4.1,0-6.2,0c-8.1,0-16.3,0-24.4,0c-3.9,0-6.3-2-6.4-5.1c-0.1-3.2,2.4-5.5,6.4-5.5
		c10.1-0.1,20.3,0,30.6,0c0-3.1,0-6,0-9.1c-87.9,0-175.9,0-264,0c0,3,0,5.9,0,9.1c1.8,0,3.4,0,5,0c67.4,0,134.8,0,202.2,0
		c1.6,0,3.3,0,4.9,0.3c2.8,0.6,4.2,2.5,4,5.4c-0.1,2.7-1.7,4.4-4.3,4.8c-1.5,0.2-3.1,0.2-4.6,0.2c-67.5,0-135.1,0-202.6,0
		c-1.5,0-3,0-4.7,0c0,3.2,0,6.1,0,9.4c5.3,0,10.4,0,15.6,0c5.2,0,10.4-0.1,15.6,0c3.6,0.1,5.9,2.1,6,5.1c0.1,3-2.3,5.4-5.8,5.4
		c-18.7,0.1-37.5,0.3-56.2-0.2c-11.7-0.3-20.3-8-23.4-19.3c-0.2-0.8-0.5-1.5-0.7-2.3C0,102,0,61.7,0,21.4z"/>
	<path class="st0" d="M228.5,32.7c16.4,0,32.8,0,49.1,0c4,0,6.2,1.9,6.2,5.2c0,2.9-1.6,4.6-4.3,5.2c-1.1,0.3-2.3,0.2-3.5,0.2
		c-31.8,0-63.6,0-95.4,0c-0.7,0-1.4,0-2.1,0c-3.5-0.2-5.8-2.5-5.7-5.5c0.1-3,2.4-5.1,6-5.1C195.3,32.6,211.9,32.7,228.5,32.7z"/>
	<path class="st0" d="M105.3,185.1c-1.4,13.6-7.6,24.9-19,33.3c-2.7,2-5.7,1.6-7.6-0.7c-1.9-2.4-1.5-5.6,1.3-7.7
		c6.7-5.1,11.4-11.5,13.5-19.7c0.5-2,0.9-4.1,1.2-6.2c0.5-3.8,2.6-5.9,5.8-5.6C103.6,178.7,105.4,181.1,105.3,185.1z"/>
	<path class="st0" d="M256.8,184.9c0-4,2-6.4,5-6.5c3-0.1,5.2,1.8,5.5,5.2c1,10.8,5.7,19.5,14.4,26c2.5,1.8,3.8,4.4,2,7
		c-1,1.5-3.5,2.1-5.4,2.9c-0.6,0.2-1.6-0.4-2.2-0.8C264.5,210.1,258.2,198.7,256.8,184.9z"/>
	<path class="st0" d="M229.3,199c0,4.8,0,9.6,0,14.5c-0.1,4-1.9,6.1-5.3,6.1c-3.3,0-5.3-2.2-5.3-6.1c-0.1-9.6-0.1-19.3,0-28.9
		c0-3.9,2.1-6.1,5.3-6.1c3.3,0,5.2,2.2,5.2,6.1C229.3,189.3,229.3,194.2,229.3,199z"/>
	<path class="st0" d="M132.8,199c0-4.8,0-9.6,0-14.5c0-3.9,2-6.1,5.3-6.1c3.2,0,5.3,2.2,5.3,6.1c0.1,9.6,0.1,19.3,0,28.9
		c0,3.9-2.1,6.1-5.4,6.1c-3.3,0-5.2-2.1-5.2-6.1C132.8,208.6,132.8,203.8,132.8,199z"/>
	<path class="st0" d="M187.9,199.1c0,4.7,0.1,9.4,0,14.1c-0.1,4.1-2.1,6.4-5.5,6.3c-3.3-0.1-5.1-2.2-5.1-6.3c-0.1-9.5,0-19,0-28.6
		c0-4,1.8-6.2,5.1-6.3c3.4-0.1,5.4,2.2,5.5,6.3C188,189.5,187.9,194.3,187.9,199.1z"/>
	<path class="st0" d="M310.9,32.7c2.6,0,5.2-0.1,7.8,0c3.1,0.1,5.2,2.3,5.2,5.1c0,3-1.7,5.1-4.6,5.3c-5.6,0.3-11.3,0.3-16.9,0
		c-3-0.1-4.9-2.7-4.6-5.6c0.3-3,2.1-4.7,5.1-4.8C305.5,32.6,308.2,32.7,310.9,32.7z"/>
</g>
</svg>
