<?xml version="1.0" encoding="utf-8"?>
<!-- Generator: Adobe Illustrator 25.4.1, SVG Export Plug-In . SVG Version: 6.00 Build 0)  -->
<svg version="1.1" id="Capa_1" xmlns="http://www.w3.org/2000/svg" xmlns:xlink="http://www.w3.org/1999/xlink" x="0px" y="0px"
	 viewBox="0 0 370.19 320.6" style="enable-background:new 0 0 370.19 320.6;" xml:space="preserve">
<style type="text/css">
	.st0{fill:#253257;}
	.st1{fill:#77B5B1;}
	.st2{opacity:0.92;}
	.st3{fill:#74B4B0;}
	.st4{fill:#FFFFFF;}
	.st5{fill:#222F57;}
</style>
<g>
	<path class="st0" d="M284.09,20.64c4.06-6.03,8.96-11.23,15.38-14.69c14.35-7.73,28.88-8.25,43,0.28
		c13.7,8.28,21.37,20.48,21.45,36.8c0.05,10.12-7.52,18.19-17.2,18.81c-9.97,0.64-18.18-6.27-19.61-16.51
		c-0.13-0.93-0.2-1.86-0.34-2.79c-0.52-3.26-2.7-5.18-5.9-5.25c-3.2-0.06-5.44,1.81-5.97,5.1c-0.19,1.17-0.23,2.37-0.24,3.56
		c-0.07,14.39-0.06,28.78-0.23,43.17c-0.04,3.65,1.18,6.13,4.21,8.35c28.66,20.97,45.67,49.12,50.45,84.27
		c8.77,64.47-36.08,125.53-99.87,136.73c-31.74,5.57-61.21,0.21-88.46-17.18c-17.61-11.23-36.46-13.62-56.77-8.77
		c-36.47,8.71-69.04,0.79-95.48-26.19c-36.01-36.76-39.37-95.24-1.68-136.22c15.21-16.54,33.99-26.7,56.26-30.14
		c14.67-2.27,29.19-1.14,43.52,2.62c17.02,4.47,33.21,2.3,48.68-5.9c8.19-4.34,16.35-8.74,24.58-12.99c2.67-1.38,3.8-3.33,3.78-6.31
		c-0.06-10.99,0.03-21.97,0.04-32.96c0.02-22.55,14.18-39.72,36.35-43.52C257.2-2,270.87,4.32,281.52,17.77
		c0.68,0.87,1.34,1.76,2.01,2.63C283.57,20.46,283.68,20.47,284.09,20.64z M203.36,123.25c-1.32,0.72-2.3,1.2-3.22,1.77
		c-26.45,16.56-54.78,20.87-84.95,12.94c-9.83-2.59-19.64-2.71-29.54-0.46c-24.16,5.51-43.4,26.08-47.15,50.5
		c-3.81,24.78,8.33,50.23,30.02,62.67c15.27,8.76,31.46,10.1,48.36,5.85c15.2-3.83,30.56-4.78,46.05-1.86
		c14.34,2.71,27.21,8.82,39.55,16.46c19.76,12.25,41.22,15.58,63.77,10.27c54.29-12.76,82.26-71.61,58.09-121.88
		c-3.33-6.92-7.59-13.21-12.9-19.03c-0.85,0.77-1.53,1.39-2.22,2c-3.59,3.2-7.65,5.47-12.54,5.65c-7.26,0.27-12.48-3.36-16.33-9.17
		c-1.35-2.03-2.91-3.1-5.41-3.1c-10.13,0.01-20.26,0-30.39-0.2c-3.27-0.06-5.34,1.04-7.02,3.92c-3.94,6.72-11.8,9.79-19.64,8.07
		c-7.17-1.58-12.88-7.85-13.8-15.33C203.73,129.48,203.62,126.6,203.36,123.25z M315.44,110.29c-0.26,0.2-0.52,0.39-0.77,0.59
		c0,3.72-0.05,7.45,0.02,11.17c0.05,2.76,1.27,4.96,3.18,7c19.09,20.32,28.83,44.23,27.43,72.32c-1.39,27.87-12.03,51.46-33.1,69.94
		c-17.5,15.34-38.07,23.5-61.32,24.58c-20.87,0.97-39.93-4.75-57.62-15.79c-22.52-14.05-46.84-18.19-72.72-11.87
		c-10.51,2.56-21.03,3.79-31.84,2.26c-41.02-5.79-69.02-43.24-62.8-84.09c6.56-43.1,48.18-71.04,90.57-60.72
		c17.49,4.26,34.94,5.16,52.45,0.22c12.03-3.4,22.35-10.26,33.08-16.29c0.71-0.4,1.48-1.43,1.51-2.19
		c0.15-3.86,0.07-7.72,0.07-11.92c-1.61,0.7-2.88,1.15-4.06,1.8c-4.99,2.75-10.01,5.45-14.92,8.35
		c-19.19,11.3-39.54,14.44-61.16,8.9c-14.31-3.67-28.79-4.73-43.21-1.25c-32.72,7.89-54.45,28.34-63.89,60.36
		c-9.41,31.93-1.51,60.84,21.63,84.46c23.18,23.65,51.93,30.03,83.89,22.35c11.21-2.7,22.45-3.7,33.9-1.93
		c11.9,1.84,22.58,6.61,32.7,12.98c14.31,9.01,29.82,14.73,46.74,16.43c14.34,1.44,28.35-0.33,42.15-4.24
		c19.54-5.55,36.83-14.93,50.78-29.94c12.12-13.04,19.98-28.45,24.86-45.46c5.47-19.06,6.91-38.28,2.11-57.72
		c-5-20.24-15.83-37.08-30.38-51.71C321.75,115.89,318.54,113.15,315.44,110.29z M216.01,84.52c0,13.88,0.05,44.72,0.32,46.22
		c0.48,2.69,2.6,4.68,5.14,4.99c2.79,0.34,4.56-1.15,5.62-3.49c0.58-1.28,1-2.74,1.07-4.14c0.19-3.99,0.22-8,0.22-12
		c0.02-23.5,0.01-47.01,0.01-70.51c0-1.19,0.03-2.38,0.13-3.57c0.85-9.75,7.77-16.51,17.44-17.05c9.43-0.53,17.04,5.57,18.89,15.13
		c0.37,1.91,0.6,3.89,1.28,5.69c1,2.65,3.17,3.86,5.81,3.66c2.61-0.19,4.56-1.78,5.22-4.48c0.3-1.22,0.48-2.53,0.4-3.78
		c-1.53-22.04-25.81-35.42-45.25-24.88c-11.28,6.12-16.21,16.07-16.29,28.61C215.95,58.12,216.02,71.32,216.01,84.52z
		 M289.95,126.22c0,1.44,0.08,2.9,0.3,4.32c0.47,3.01,2.37,4.8,5.22,5.06c3.03,0.28,5.39-1.12,6.29-4.04
		c0.44-1.43,0.53-3.01,0.53-4.52c0.03-27.51-0.01-55.01,0.04-82.52c0.03-13.86,11.6-22.88,24.17-18.72
		c8.22,2.72,11.92,9.05,12.86,17.35c0.48,4.26,3.03,6.58,6.57,6.28c3.58-0.31,5.84-3.36,5.58-7.52
		c-1.08-17.29-14.63-29.48-32.42-29.17c-15.72,0.28-28.74,13.83-28.96,30.46C289.97,57.08,289.93,112.43,289.95,126.22z
		 M277.31,61.33c-1.16,0.09-2.16,0.12-3.15,0.26c-9.78,1.34-18.15-4.32-20.5-13.89c-0.56-2.3-0.83-4.7-1.62-6.92
		c-0.88-2.49-2.89-3.67-5.62-3.49c-2.62,0.17-4.29,1.57-5.03,4c-0.39,1.28-0.57,2.67-0.58,4.01c-0.05,8.68-0.03,17.37-0.02,26.05
		c0,0.74,0.08,1.49,0.12,2.33c12.19,0,24.22,0,36.39,0C277.31,69.53,277.31,65.56,277.31,61.33z M277.15,86.92
		c-12.12,0-24.11,0-36.07,0c0,3.95,0,7.65,0,11.41c12.13,0,24.06,0,36.07,0C277.15,94.42,277.15,90.7,277.15,86.92z M277.23,123.22
		c0-3.93,0-7.77,0-11.62c-12.12,0-24,0-36.01,0c0,3.94,0,7.73,0,11.62C253.3,123.22,265.2,123.22,277.23,123.22z"/>
	<path class="st0" d="M171.62,221.87c-5.95-0.17-11.06-2.46-15.45-6.38c-8.82-7.85-13.1-7.87-21.98-0.03
		c-9.91,8.75-23.27,8.84-33.24,0.22c-0.45-0.39-0.91-0.78-1.35-1.17c-7.33-6.56-12.87-6.49-20.06,0.32
		c-4.64,4.39-10.07,6.91-16.47,7.15c-3.95,0.15-6.66-1.86-7.09-5.14c-0.35-2.65,0.67-4.72,3.01-5.96c1.33-0.71,2.91-0.95,4.27-1.62
		c3.01-1.49,6.34-2.65,8.86-4.76c11.66-9.72,24.82-9.52,35.84,0.89c6.18,5.84,12.75,5.83,18.99-0.01
		c11.21-10.5,24.61-10.58,36.28-0.57c2.36,2.02,5.61,3.02,8.49,4.41c1.29,0.62,2.77,0.87,4.03,1.54c2.75,1.45,3.79,3.77,3.18,6.57
		c-0.53,2.45-2.73,4.28-5.52,4.55C172.82,221.92,172.22,221.87,171.62,221.87z"/>
	<path class="st0" d="M232.95,197.42c4.91,0.11,10.75,2.27,15.6,6.89c0.74,0.7,1.49,1.39,2.29,2.03c5.59,4.53,10.79,4.59,16.43,0.14
		c1.27-1,2.39-2.18,3.64-3.2c10.03-8.23,23.54-7.88,33.01,0.98c3.27,3.06,6.81,5.2,11.41,5.59c3.46,0.29,5.56,3,5.42,6.27
		c-0.14,3.37-2.58,5.74-6.18,5.82c-6.44,0.15-12.12-2.05-16.68-6.47c-7.64-7.41-13.95-7.65-22.07-0.06
		c-9.94,9.29-23.95,8.86-33.9-0.39c-0.06-0.06-0.12-0.12-0.18-0.18c-7.44-6.88-13.04-6.94-20.48-0.05
		c-4.67,4.33-10.01,6.97-16.45,7.14c-4.33,0.12-7.06-2.09-7.25-5.78c-0.18-3.54,2.28-6.06,6.46-6.43c4.14-0.37,7.31-2.45,10.2-5.24
		C219.09,199.78,224.91,197.41,232.95,197.42z"/>
	<path class="st0" d="M163.58,160.38c7.11,0.04,12.97,2.93,18.04,7.75c3.54,3.37,7.59,5.81,12.63,4.13c2.41-0.8,4.75-2.33,6.65-4.04
		c5.69-5.11,12.02-8.2,19.85-7.69c6.04,0.39,10.93,3.19,15.7,6.67c2.89,2.11,6.29,3.54,9.51,5.17c1.35,0.69,2.92,0.97,4.22,1.72
		c2.47,1.44,3.27,3.81,2.48,6.58c-0.8,2.79-2.71,4.39-5.55,4.33c-6.43-0.13-12.17-2.13-17.02-6.47c-8.82-7.92-13.12-7.91-21.93-0.01
		c-9.72,8.72-23.66,8.73-33.45,0.04c-1.14-1.02-2.25-2.09-3.47-3.01c-5.11-3.85-10.11-3.83-15.21,0.05
		c-1.15,0.87-2.18,1.89-3.25,2.87c-4.52,4.11-9.85,6.32-15.94,6.52c-4.4,0.15-6.97-2.34-6.88-6.37c0.07-3.03,1.85-5.26,5.17-5.63
		c4.74-0.53,8.41-2.72,11.82-5.91C151.57,162.76,157.16,160.45,163.58,160.38z"/>
</g>
</svg>
