<?xml version="1.0" encoding="utf-8"?>
<!-- Generator: Adobe Illustrator 25.4.1, SVG Export Plug-In . SVG Version: 6.00 Build 0)  -->
<svg version="1.1" id="Capa_1" xmlns="http://www.w3.org/2000/svg" xmlns:xlink="http://www.w3.org/1999/xlink" x="0px" y="0px"
	 viewBox="0 0 293.9 307.1" style="enable-background:new 0 0 293.9 307.1;" xml:space="preserve">
<style type="text/css">
	.st0{fill:#202E56;}
</style>
<g>
	<path class="st0" d="M149.4,307.1c-3.2-1.6-4.4-4.1-4.4-7.7c0.1-15,0-29.9,0.1-44.9c0-4,2-6.5,5.3-6.8c3.9-0.4,6.7,2.3,6.7,6.6
		c0.1,6.2,0,12.4,0,18.6c0,8.6-0.1,17.2,0.1,25.7c0.1,3.7-0.9,6.6-4.2,8.5C151.8,307.1,150.6,307.1,149.4,307.1z"/>
	<path class="st0" d="M36.7,84c-14.4-18.2-8-38.2,3.2-47.9C52,25.4,70.3,24.9,83.1,35.2c7.4,6,11.6,13.8,12.5,23.4
		c0.8,9.5-2.1,17.9-8.3,25.3c3,1,5.8,1.7,8.4,2.9c18.1,8.3,27.7,22.5,28.3,42.3c0.4,13.7,0.2,27.4,0.1,41.1
		c-0.1,13-9.2,22-22.1,22.4c-0.7,0-1.4,0-2.5,0c0,1.4,0,2.5,0,3.7c0,20.1,0,40.2,0,60.3c0,11-6.3,19.6-16.2,22.2
		c-8,2.1-15-0.2-20.4-5.1c-4.6,1.9-8.7,4.5-13.1,5.4c-13.1,2.6-25-7.6-25.1-21.1c-0.1-20.6,0-41.2,0-61.8c0-1.1,0-2.1,0-3.2
		c-2.5-0.3-4.6-0.3-6.8-0.7c-10.2-1.8-17.7-10.5-17.8-20.8c-0.1-14.6-0.2-29.2,0-43.8c0.3-19.7,14.7-37.5,34.3-42.8
		C35.1,84.5,35.9,84.2,36.7,84z M99.5,180.3c7.9,0.7,12.5-3.2,12.5-10.2c0.1-13.7,0.3-27.4,0-41.1c-0.4-19.1-14.8-33.3-33.9-33.7
		c-11.2-0.2-22.4-0.2-33.6,0.1c-17,0.5-31.7,14.5-32.3,31.5c-0.5,14.8-0.3,29.6-0.1,44.4c0.1,6.3,6.1,10.5,12.5,8.8
		c0-6.2,0-12.5,0-18.8c0-5.4,2.1-8.3,6.1-8.2c3.9,0.1,5.9,2.9,5.9,8.4c0,31.6,0,63.2,0,94.7c0,2,0.3,4.2,1.2,6.1
		c1.8,4,6.3,5.9,10.5,5c4.5-1,7.5-4.5,7.5-9.2c0.1-13.5,0-27,0-40.5c0-4.6-0.1-9.2,0-13.8c0.1-4.5,3.6-7.2,7.6-6.3
		c2.9,0.7,4.4,3.1,4.4,6.9c0,17.3,0,34.6,0,51.9c0,3.8,1,7.1,4.2,9.4c3.1,2.2,6.5,2.4,9.9,0.7c3.7-2,5.3-5.3,5.3-9.4
		c0-10.4,0-20.8,0-31.2c0-21.8,0-43.6,0-65.4c0-4.7,2.3-7.4,6-7.4c3.7,0,5.9,2.8,6,7.4c0,0.9,0,1.8,0,2.7
		C99.5,168.8,99.5,174.4,99.5,180.3z M83.7,61.4c0-12-9.8-21.8-21.8-21.7c-11.9,0.1-21.7,10-21.6,21.9c0.1,11.8,9.8,21.5,21.7,21.5
		C73.9,83.2,83.7,73.4,83.7,61.4z"/>
	<path class="st0" d="M273.6,198.9c0,1,0,2.1,0,3.2c0,17.8-0.1,35.6,0,53.4c0.1,9.8-3.5,17.4-12.5,21.7c-8.9,4.2-17.1,2.5-24.4-4
		c-0.1-0.1-0.4-0.2-0.7-0.3c-3.5,3.1-7.5,5.4-12.3,6.2c-11.9,1.8-23.3-6.6-24.7-18.5c-0.2-1.8-0.3-3.6-0.3-5.4c0-17.6,0-35.2,0-52.8
		c0-1.2,0-2.3,0-3.7c-2-0.2-3.7-0.2-5.3-0.5c-11.6-2.1-17.9-13.4-13.6-24.6c5.2-13.7,10.7-27.3,16-41c5.6-14.4,11.3-28.8,17-43.2
		c0.8-2.1,0.5-3.3-1-4.9c-10.1-10.6-12.2-26.3-5.3-39.1c6.9-12.8,21.4-19.8,35.9-17.2c13.8,2.4,24.9,13.9,27.1,28.1
		c1.7,10.9-1.5,20.4-9,28.3c-1.6,1.7-1.7,2.8-0.9,4.9c11,27.8,21.9,55.7,32.8,83.6c4.1,10.6-0.9,21.6-11.2,24.6
		C278.9,198.4,276.4,198.5,273.6,198.9z M248.1,93c-7.2,2.5-14.1,2.9-21,0.8c-2.2-0.7-3-0.3-3.9,1.8c-7.6,19.5-15.2,39-22.9,58.5
		c-3,7.7-6.1,15.4-9,23.1c-2.1,5.5,0.5,9.2,6.2,9.2c1.7,0,3.4,0,5.1,0c6.3,0,8.2,1.8,8.2,8.2c0,20.2,0,40.4,0,60.6
		c0,1.4,0,2.8,0.3,4.2c0.7,3.8,3,6.3,6.6,7.4c6.5,2,12.5-2.7,12.5-10c0.1-13.3,0-26.6,0-39.9c0-4.8-0.1-9.6,0.1-14.4
		c0.1-3.2,2.4-5.5,5.4-5.8c2.9-0.3,5.7,1.8,6.3,4.9c0.2,1.2,0.2,2.4,0.2,3.6c0,17.5,0,35,0,52.5c0,5.4,4.2,9.6,9.4,9.7
		c5.3,0.1,9.6-4.1,9.8-9.6c0-1,0-2,0-3c0-20.4,0-40.8,0-61.2c0-4.7,2.3-7,7-7.1c1.9,0,3.8,0,5.7,0c6.6,0,9.1-3.6,6.7-9.7
		c-6.5-16.5-12.9-33.1-19.4-49.6C257.1,115.9,252.7,104.6,248.1,93z M258,61.5c0.1-11.9-9.8-21.8-21.7-21.8
		c-11.9,0-21.7,9.8-21.7,21.8c0,11.9,9.6,21.5,21.5,21.7C247.9,83.3,257.9,73.4,258,61.5z"/>
	<path class="st0" d="M145.1,102.7c0-31.3,0-62.6,0-93.9c0-1.1,0-2.2,0.1-3.3c0.3-3,2.5-5.2,5.4-5.5c2.9-0.3,5.5,1.6,6.2,4.5
		c0.3,1,0.3,2.2,0.3,3.3c0,63.4,0,126.7,0,190.1c0,1.3-0.1,2.6-0.5,3.8c-0.8,2.6-3.5,4.2-6.1,3.9c-2.8-0.3-5-2.4-5.3-5.2
		c-0.1-1.1-0.1-2.2-0.1-3.3C145.1,165.6,145.1,134.2,145.1,102.7z"/>
	<path class="st0" d="M145.2,226.6c0-3.3,2.6-5.8,5.8-5.9c3.3,0,6.1,2.7,6.1,6c0,3.2-2.8,5.9-5.9,5.9
		C147.9,232.7,145.1,230,145.2,226.6z"/>
</g>
</svg>
