<?xml version="1.0" encoding="utf-8"?>
<!-- Generator: Adobe Illustrator 25.4.1, SVG Export Plug-In . SVG Version: 6.00 Build 0)  -->
<svg version="1.1" id="Capa_1" xmlns="http://www.w3.org/2000/svg" xmlns:xlink="http://www.w3.org/1999/xlink" x="0px" y="0px"
	 viewBox="0 0 314.7 299.1" style="enable-background:new 0 0 314.7 299.1;" xml:space="preserve">
<style type="text/css">
	.st0{fill:#202E56;}
</style>
<g>
	<path class="st0" d="M314.7,152c-2.2,1.1-4.5,2.2-6.7,3.3c-0.3-0.3-0.6-0.5-0.9-0.8c0,1.3,0,2.5,0,3.8c0,37.8,0,75.6,0,113.4
		c0,6.2-0.7,6.9-6.8,6.9c-9.1,0-18.2,0-27.9,0c3.3,5,2.4,10.4,2.4,15.6c0,3.2-1.4,4.7-4.7,4.7c-13.5,0-27,0-40.6,0
		c-3.3,0-4.7-1.4-4.6-4.7c0.1-5.1-1.1-10.5,2.5-15.4c-16,0-31.5,0-47.4,0c3.2,4.7,2.5,9.8,2.5,14.7c0,4-1.4,5.4-5.3,5.4
		c-13.2,0-26.4,0-39.6,0c-3.8,0-5.2-1.4-5.2-5.2c0.1-5-0.9-10.1,2.6-14.9c-15.9,0-31.4,0-47.2,0c3.1,4.7,2.2,10,2.3,15.2
		c0,3.6-1.3,4.9-4.8,4.9c-13.4,0-26.8,0-40.3,0c-3.5,0-5-1.4-4.9-4.8c0.1-5.2-1-10.5,2.5-15.6c-3.5,0-6.4,0-9.3,0
		c-6.8,0-13.5,0-20.3,0c-3.9,0-5.1-1.3-5.2-5.2c0-0.9,0-1.8,0-2.8c0-37.3,0-74.6,0-111.9c0-1.3,0-2.7,0-3.8
		c-0.3-0.3-0.5-0.5-0.6-0.5c-6.8-0.6-7-0.8-7-7.8c0-4.3,0-8.6,0-12.9c0-7.2,0.5-7.7,7.6-7.7c22.6,0,45.3,0,67.9,0c1.2,0,2.4,0,4.1,0
		c0-5.4-0.3-10.5,0.1-15.5c0.5-5.7-0.4-9.2-6.9-11.5c-10.1-3.6-15-12.3-15.4-23.1c-0.3-7.9-0.1-15.8-0.1-23.7c0-3.6,1.4-4.9,5.1-5
		c14.2,0,28.5,0,42.7,0c3.8,0,5.1,1.3,5.1,5.2c0,7.6,0.1,15.2,0,22.7c-0.1,12.5-7.8,22.4-19.9,25.6c-1.8,0.5-2.4,1.2-2.4,3.1
		c0.1,7.2,0,14.5,0,21.9c17.4,0,34.4,0,51.8,0c0-7.8,0-15.5-0.1-23.1c0-0.6-1-1.4-1.7-1.6c-14-4.5-20.5-13.3-20.5-28
		c0-6.9,0-13.7,0-20.6c0-3.9,1.3-5.2,5.1-5.2c14.2,0,28.5,0,42.7,0c2.7,0,4.9,0.9,5,3.8c0.1,9.2,0.7,18.5-0.3,27.6
		c-1.3,11.7-8.4,19.2-19.9,22.3c-0.6,0.2-1.2,0.4-1.9,0.6c0,8,0,15.9,0,24.1c20,0,39.9,0,60.3,0c0-1,0-2.1,0-3.2c0-17,0-34,0-51
		c0-1.8,0.4-3.7,0.9-5.4c3.2-9.4,7.8-18.5,9.5-28.1c1.7-9.7,0.5-19.8,0.5-29.7c0-8.4,0-8.4,8.4-8.4c4.5,0,9,0,13.5,0
		c4.1,0,5.3,1.2,5.4,5.3c0,9.9-0.1,19.9,0.1,29.8c0,2.1,0.6,4.2,1.1,6.3c0.3,1.4,0.8,2.8,1.4,4.1c7.2,15.4,9.7,31.6,8.6,48.6
		c-0.7,10.5-0.1,21.1-0.1,32c1.3,0,2.4,0,3.4,0c16,0,32,0,47.9,0c2.4,0,4.4,0.6,5.8,2.6C314.7,136.4,314.7,144.2,314.7,152z
		 M16.2,154.5c0,38.8,0,77.4,0,115.9c12.3,0,24.4,0,36.6,0c0-21.6,0-43,0-64.8c-6.4,0-12.6,0-18.9,0c-3.4,0-4.8-1.5-4.9-4.9
		c-0.1-3.5-0.1-7,0-10.4c0.3-8.4,6.5-14.9,14.8-15c14.1-0.1,28.3-0.2,42.4,0c8.1,0.1,14.4,6.6,14.6,14.8c0.1,3.1,0,6.1,0,9.2
		c0,5.3-1,6.3-6.2,6.3c-5.8,0-11.6,0-17.6,0c0,21.8,0,43.2,0,64.8c22.8,0,45.4,0,68.2,0c0-21.6,0-43,0-64.7
		c-1.2-0.1-2.2-0.1-3.2-0.1c-5.2,0-10.4,0-15.7,0c-3.5,0-4.9-1.4-4.9-4.8c-0.1-3.8-0.1-7.6,0.1-11.4c0.5-8,6.6-14.1,14.6-14.2
		c14.1-0.1,28.3-0.1,42.4,0c8,0.1,14.1,6.2,14.6,14.1c0.2,3.4,0.1,6.8,0.1,10.1c0,5.1-1,6.1-6.1,6.1c-5.8,0-11.6,0-17.6,0
		c0,21.8,0,43.2,0,64.7c22.9,0,45.5,0,68.2,0c0-21.6,0-43,0-64.7c-1.3,0-2.4,0-3.5,0c-5.2,0-10.4,0-15.7,0c-3.3,0-4.6-1.5-4.7-4.7
		c-0.1-3.6-0.1-7.2,0-10.8c0.2-8.3,6.5-14.8,14.9-14.9c14-0.1,28.1-0.1,42.1,0c7.3,0.1,13.3,5,14.4,12.3c0.7,4.7,0.5,9.6,0.3,14.4
		c-0.1,2.7-2.1,3.7-4.7,3.7c-5.3,0-10.7,0-16,0c-1,0-2,0-2.9,0c0,21.9,0,43.4,0,64.8c12.3,0,24.4,0,36.5,0c0-38.7,0-77.2,0-115.9
		C204.4,154.5,110.4,154.5,16.2,154.5z M8.3,146c99.4,0,198.7,0,298,0c0-4,0-7.8,0-11.6c-99.5,0-198.6,0-298,0
		C8.3,138.4,8.3,142.1,8.3,146z M249.4,126c0-1.2,0-2.3,0-3.4c0-11.4-0.4-22.7,0.1-34.1c0.6-12.3-1.1-24-6.2-35.2
		c-1.5-3.2-1.8-7.9-4.2-9.5c-2.5-1.7-6.9-0.4-10.5-0.5c-1.7-0.1-2.5,0.5-3.1,2.2c-2.7,7.8-5.6,15.6-8.3,23.4
		c-0.5,1.3-0.6,2.8-0.6,4.2c0,16.6,0,33.2,0,49.7c0,1.1,0.1,2.2,0.2,3.2C227.7,126,238.3,126,249.4,126z M125.5,55.6
		c0,6.3,0,12.2,0,18.1c0,1,0,2.1,0.1,3.1c0.9,9,7.8,16,16.4,16.8c9,0.8,17.9-4.8,19.3-13.5c1.3-8,0.8-16.2,1.2-24.4
		C149.8,55.6,137.8,55.6,125.5,55.6z M65.6,55.7c0,7.4-0.4,14.7,0.1,21.9c0.7,9,8.4,15.8,17.2,16.1c9.3,0.2,17.5-5.8,18.5-14.9
		c0.8-7.5,0.2-15.2,0.2-23C89.7,55.7,77.8,55.7,65.6,55.7z M185,197.3c0-2.6,0.1-4.8,0-7.1c-0.2-3.9-2.9-6.8-6.8-6.9
		c-13.9-0.1-27.8-0.1-41.8,0c-3.3,0-6.1,2.3-6.5,5.4c-0.3,2.8-0.1,5.6-0.1,8.5C148.3,197.3,166.5,197.3,185,197.3z M37.4,197.3
		c18.4,0,36.7,0,55.2,0c0-2.7,0.2-5.2-0.1-7.7c-0.4-3.7-3.2-6.1-6.9-6.2c-13.8-0.1-27.6-0.1-41.4,0c-3.5,0-6.3,2.3-6.7,5.6
		C37.2,191.7,37.4,194.4,37.4,197.3z M277.4,197.3c0-2.7,0.2-5.1,0-7.6c-0.3-3.7-2.9-6.3-6.6-6.4c-13.9-0.1-27.8-0.1-41.8,0
		c-3.6,0-6.3,2.4-6.7,6c-0.3,2.6-0.1,5.2-0.1,8C240.6,197.3,258.8,197.3,277.4,197.3z M153.8,205.8c0,22.9,0,45.3,0,68
		c2.4,0,4.7,0,7.1,0c0-22.8,0-45.3,0-68C158.4,205.8,156.2,205.8,153.8,205.8z M68.7,205.8c-2.7,0-4.9,0-7.2,0c0,22.8,0,45.4,0,68.2
		c1.1,0,1.9,0,2.8,0c5.2,0,4.4,0.3,4.4-4.4c0-19.9,0-39.9,0-59.8C68.7,208.5,68.7,207.3,68.7,205.8z M246.2,205.8
		c0,22.8,0,45.3,0,68c2.4,0,4.7,0,7.1,0c0-22.8,0-45.3,0-68C250.8,205.8,248.6,205.8,246.2,205.8z M227.7,8.3c0,8.9,0,17.8,0,26.6
		c3.7,0,7.1,0,10.5,0c0-9,0-17.8,0-26.6C234.7,8.3,231.3,8.3,227.7,8.3z M81.8,290.8c0-1.5,0.1-2.7,0-3.9c-0.2-2.9-1.7-4.6-4.6-4.6
		c-8.2-0.1-16.4,0-24.5,0c-2.7,0-4.1,1.6-4.5,4.1c-0.2,1.4,0,2.8,0,4.4C59.4,290.8,70.4,290.8,81.8,290.8z M266.6,290.8
		c0-1.6,0.1-2.9,0-4.2c-0.3-2.7-1.8-4.3-4.6-4.3c-8.2,0-16.4,0-24.5,0c-2.8,0-4.3,1.7-4.5,4.4c-0.1,1.3,0,2.6,0,4.1
		C244.2,290.8,255.2,290.8,266.6,290.8z M140.6,290.7c11.4,0,22.4,0,33.5,0c0-1.5,0.1-2.7,0-3.9c-0.2-3-1.6-4.5-4.7-4.5
		c-8.1-0.1-16.2,0-24.3,0c-2.8,0-4.4,1.5-4.5,4.3C140.6,287.9,140.6,289.2,140.6,290.7z"/>
</g>
</svg>
