<?xml version="1.0" encoding="utf-8"?>
<!-- Generator: Adobe Illustrator 25.4.1, SVG Export Plug-In . SVG Version: 6.00 Build 0)  -->
<svg version="1.1" id="Capa_1" xmlns="http://www.w3.org/2000/svg" xmlns:xlink="http://www.w3.org/1999/xlink" x="0px" y="0px"
	 viewBox="0 0 293.7 237.8" style="enable-background:new 0 0 293.7 237.8;" xml:space="preserve">
<style type="text/css">
	.st0{fill:#202E56;}
</style>
<g>
	<path class="st0" d="M0,19.6C1.3,13.7,3.8,8.5,8.8,4.7c3.4-2.5,7.1-4.1,11.3-4.5C21.5,0.1,22.9,0,24.4,0c81.6,0,163.3,0,244.9,0
		c9.9,0,17.6,3.7,21.9,12.7c1.5,3.1,2.3,7,2.4,10.5c0.1,56.4,0.1,112.8,0.1,169.2c0,10.7-6,18.7-16,21.9c-1.7,0.6-2.2,1.4-2.1,3.1
		c0.1,2.7,0.1,5.4-0.1,8c-0.5,6.8-5.9,12.1-12.8,12.3c-7.6,0.2-15.3,0.1-22.9,0.1c-8.9-0.1-14.4-5.6-14.6-14.5c-0.1-2.5,0-5,0-7.7
		c-52,0-103.9,0-156.2,0c0,2.2,0,4.4,0,6.7c0,10-5.5,15.5-15.4,15.5c-6.9,0-13.8,0-20.6,0c-8.8-0.1-14.6-5.4-14.4-14.2
		c0.1-5.6-0.5-9.2-6.8-11.3C6,210.3,2.7,205.1,1,199.3c-0.3-1-0.7-2-1-2.9C0,137.4,0,78.5,0,19.6z M146.9,8.6c-41,0-82,0-123,0
		C14.2,8.7,8.6,14.2,8.6,24c0,55.8,0,111.7,0,167.5c0,9.7,5.6,15.3,15.3,15.3c81.9,0,163.8,0,245.7,0c1.6,0,3.3,0,4.8-0.4
		c6.9-1.7,10.6-7,10.6-15c0-55.4-0.1-110.9,0.1-166.3c0-9.2-5.4-16.5-16.4-16.4C228.1,8.8,187.5,8.6,146.9,8.6z M60.1,215.5
		c-11.3,0-22.2,0-33.3,0c0,2.9-0.1,5.5,0,8.2c0.2,3.6,2,5.4,5.6,5.4c7.3,0.1,14.5,0.1,21.8,0c3.8,0,5.7-1.8,5.9-5.5
		C60.2,221,60.1,218.4,60.1,215.5z M266.8,215.5c-11.1,0-22,0-33.1,0c0,3.1-0.2,6.1,0.1,9c0.2,2.7,1.9,4.5,4.7,4.5
		c7.9,0.1,15.8,0.1,23.8,0c2.6,0,4.4-1.7,4.5-4.3C267,221.8,266.8,218.7,266.8,215.5z"/>
	<path class="st0" d="M34.6,34.5c0,48.9,0,97.4,0,146.2c74.8,0,149.6,0,224.5,0c0-48.6,0-97.2,0-146.2c-1.3,0-2.5,0-3.7,0
		c-57.3,0-114.5,0-171.8,0c-1.2,0-2.5,0-3.7-0.2c-2.4-0.4-3.4-2.1-3.3-4.3c0.1-2.2,1.3-3.8,3.7-4c0.9-0.1,1.9-0.1,2.9-0.1
		c59.3,0,118.5,0,177.8,0c5.8,0,6.9,1.1,6.9,6.8c0,50,0,100,0,150c0,5.7-1.1,6.8-6.9,6.8c-76.1,0-152.2,0-228.3,0
		c-5.8,0-6.9-1.1-6.9-6.8c0-50,0-100,0-150c0-5.7,1.1-6.8,6.9-6.8c10,0,20.1,0,30.1,0c2,0,3.9,0.5,4.3,2.6c0.3,1.5,0,3.6-0.9,4.6
		c-0.9,1-2.9,1.3-4.4,1.3c-7.9,0.1-15.9,0.1-23.8,0.1C37,34.5,35.9,34.5,34.6,34.5z"/>
	<path class="st0" d="M242.9,107.5c0.2,24.1-20.1,44.5-44.5,44.6c-23.9,0.1-44.1-20.1-44.2-44.3c-0.1-24.2,19.9-44.4,44.2-44.6
		C222.3,63.1,242.7,83.4,242.9,107.5z M220.7,79.9c-5.7-4.7-13.2-7.7-17.9-7.2c0,1.1,0,2.2,0,3.4c0,1.2,0.1,2.5,0,3.7
		c-0.2,2.9-1.9,4.7-4.4,4.7c-2.5,0-4-1.8-4.1-4.8c-0.1-2.4,0-4.7,0-7.4c-6.8,0.9-12.6,3.2-17.8,7.5c1.1,1,1.9,1.8,2.7,2.6
		c0.8,0.8,1.7,1.6,2.4,2.4c2.2,2.4,2.4,4.7,0.5,6.6c-1.8,1.8-4.3,1.7-6.6-0.5c-1.7-1.6-3.2-3.4-5-5.3c-4.3,5.6-6.7,11.3-7.5,17.9
		c2.5,0,4.9,0,7.2,0c3.1,0.1,5.1,1.8,5.1,4.3c0,2.5-2,4.2-5.1,4.3c-2.4,0.1-4.7,0-7.2,0c0.8,6.7,3.2,12.4,7.5,17.8
		c1.7-1.8,3.3-3.5,4.9-5.1c2.4-2.3,5-2.5,6.8-0.6c1.8,1.9,1.6,4.2-0.7,6.6c-1.6,1.7-3.4,3.2-5.2,5c5.6,4.1,11.2,6.7,17.9,7.3
		c0-2.4,0-4.6,0-6.8c0.1-3.5,1.5-5.3,4.2-5.3c2.7,0,4.3,1.8,4.4,5.3c0.1,2.2,0,4.5,0,6.9c6.8-0.9,12.5-3.2,17.9-7.6
		c-1.9-1.8-3.7-3.2-5.3-4.9c-2.2-2.2-2.4-4.8-0.6-6.6c1.8-1.8,4.4-1.7,6.6,0.5c1.7,1.7,3.1,3.6,4.8,5.6c4.5-5.9,6.9-11.6,7.7-18.2
		c-1.4,0-2.6,0-3.8,0c-1.2,0-2.5,0-3.7,0c-2.9-0.1-4.7-1.8-4.7-4.3c0-2.5,1.8-4.2,4.8-4.2c2.5-0.1,4.9,0,7.5,0
		c-0.9-6.7-3.2-12.4-7.7-18.1c-1.8,2-3.3,4-5.1,5.7c-2.1,2.1-4.6,2-6.4,0.3c-1.7-1.8-1.7-4.2,0.4-6.4
		C217,83.2,218.8,81.6,220.7,79.9z"/>
	<path class="st0" d="M60.1,107.7c0-14.6-0.1-29.2,0-43.9c0.1-10.3,7.6-17.1,17.6-16.1c6.7,0.7,12.7,6.5,13.4,13.3
		c0.2,1.4,0.2,2.9,0.2,4.3c0,28.3,0,56.6,0,84.9c0,7-2.2,12.5-8.6,15.9c-9.9,5.2-22.3-1.6-22.6-12.8
		C59.9,138.1,60.2,122.9,60.1,107.7C60.2,107.7,60.1,107.7,60.1,107.7z M68.7,107.6c0,12.1,0,24.3,0,36.4c0,2.9,0,5.7,0.1,8.6
		c0.1,3.1,2,5.2,4.7,6.2c2.6,1,5.4,0.5,7-1.7c1.3-1.8,2.2-4.3,2.2-6.5c0.1-28.7,0.1-57.3,0.1-86c0-0.8,0-1.5-0.1-2.3
		c-0.5-3.8-3.8-6.5-7.6-6.1c-3.8,0.3-6.3,3.4-6.4,7.8C68.7,78.5,68.7,93.1,68.7,107.6z"/>
	<path class="st0" d="M198.4,126.4c-10.2-0.1-18.6-8.4-18.6-18.7c0-10.3,8.5-18.8,18.8-18.7c10.2,0.1,18.6,8.5,18.6,18.6
		C217.3,117.9,208.7,126.4,198.4,126.4z M198.7,117.8c5.5-0.1,10-4.6,10-10.1c0-5.6-4.7-10.1-10.3-10.1c-5.5,0.1-10,4.6-10,10.1
		C188.4,113.3,193.1,117.8,198.7,117.8z"/>
</g>
</svg>
