<?xml version="1.0" encoding="utf-8"?>
<!-- Generator: Adobe Illustrator 25.4.1, SVG Export Plug-In . SVG Version: 6.00 Build 0)  -->
<svg version="1.1" id="Capa_1" xmlns="http://www.w3.org/2000/svg" xmlns:xlink="http://www.w3.org/1999/xlink" x="0px" y="0px"
	 viewBox="0 0 375.38 352.37" style="enable-background:new 0 0 375.38 352.37;" xml:space="preserve">
<style type="text/css">
	.st0{fill:#253257;}
	.st1{fill:#77B5B1;}
	.st2{opacity:0.92;}
	.st3{fill:#74B4B0;}
	.st4{fill:#FFFFFF;}
	.st5{fill:#222F57;}
</style>
<g>
	<path class="st0" d="M122.68,302.61c-10.38-5.42-20.47-10.69-30.56-15.95c-17.94-9.37-35.89-18.71-53.8-28.14
		c-1.63-0.86-2.53-0.82-3.81,0.64c-7.34,8.39-14.78,16.69-22.24,24.99c-1.13,1.25-2.34,2.55-3.77,3.39
		c-3.77,2.23-8.48-0.57-8.49-4.91c-0.01-9.88-0.06-19.76,0.06-29.64c0.02-1.27,0.64-2.8,1.49-3.76
		c14.3-16.21,28.69-32.35,43.05-48.51c0.45-0.51,0.87-1.04,1.5-1.78c-1.05-0.68-1.98-1.38-2.99-1.92
		c-8.7-4.65-17.41-9.28-26.12-13.92c-0.9-0.48-1.8-0.98-2.61-1.58c-3.07-2.25-3.65-5.15-1.3-8.16c1.88-2.4,4.17-4.48,6.28-6.69
		c0.94-0.98,2.03-1.85,2.86-2.92c2.63-3.41,6.19-4.56,10.31-4.61c15.07-0.2,30.13-0.47,45.19-0.64c3.02-0.03,5.37-1.07,7.38-3.33
		C130,104.73,174.91,54.34,219.8,3.93c4.01-4.5,5.23-4.61,11.17-2.94c27.08,7.62,54.18,15.16,81.31,22.59
		c14.26,3.91,28.6,7.57,42.92,11.26c4.47,1.15,8.06,3.3,10.67,7.26c2.15,3.26,4.79,6.19,7.15,9.32c3.22,4.27,3.16,6.36-0.35,10.36
		c-15.29,17.39-30.57,34.78-45.93,52.1c-2.63,2.96-3.94,6.1-3.93,10.12c0.09,33.21,0.09,66.43,0,99.64
		c-0.01,3.45,1.23,5.49,4.3,7.01c6.56,3.23,12.97,6.76,19.45,10.14c2.93,1.53,4.98,3.83,6.04,6.95c1.73,5.06,3.59,10.09,5.01,15.24
		c1.38,5-1.9,8.37-7.04,7.61c-39.54-5.9-79.07-11.81-118.6-17.73c-5.89-0.88-11.77-1.78-17.63-2.81c-2.7-0.47-4.54,0.57-6.24,2.52
		c-9.89,11.37-19.84,22.69-29.77,34.02c-18.02,20.54-36.05,41.07-54.06,61.62c-1.52,1.73-2.89,3.45-5.37,3.99
		c-3.65,0.8-6.72-1.07-7.06-4.87c-0.29-3.21-0.32-6.46-0.32-9.69c0-6.13,0.19-12.26,0.12-18.39c-0.03-2.56,0.76-4.65,2.37-6.53
		C116.83,309.43,119.65,306.14,122.68,302.61z M27.98,175.43c1.01,0.6,2,1.23,3.03,1.78c25.34,13.4,50.68,26.77,76.01,40.18
		c6.25,3.31,12.48,6.53,19.63,7.59c21.79,3.23,43.56,6.58,65.35,9.87c23.3,3.52,46.59,7.04,69.89,10.54
		c22.46,3.37,44.92,6.73,67.38,10.08c4.51,0.67,9.03,1.3,13.57,1.96c0.19-3.58-0.92-4.91-4.72-5.52
		c-17.13-2.73-34.27-5.41-51.41-8.11c-25.54-4.02-51.08-8.04-76.62-12.07c-24.19-3.82-48.39-7.63-72.58-11.49
		c-6.79-1.08-13.74-1.56-20.05-4.64c-8.41-4.1-16.77-8.29-25.12-12.49c-0.97-0.49-1.89-1.18-2.66-1.95
		c-1.75-1.74-2.14-3.8-1.09-6.08c1.02-2.22,2.65-3.66,5.17-3.34c1.65,0.21,3.33,0.71,4.82,1.43c7.73,3.74,15.38,7.66,23.12,11.37
		c1.8,0.86,3.84,1.6,5.8,1.67c9.35,0.34,18.71,0.76,28.06,0.55c19.24-0.44,38.07-3.55,56.36-9.71c3.18-1.07,5.72-2.79,7.91-5.31
		c40.99-47.16,82.02-94.3,123.04-141.44c1.39-1.59,2.71-3.24,4.27-5.12c-1.56-0.49-2.74-0.92-3.95-1.24
		c-29.5-7.8-59-15.59-88.5-23.38c-4.3-1.14-5.1-0.74-7.07,3.47c-13.37,28.53-29.14,55.6-48.88,80.24
		c-13.61,16.99-28.87,32.18-47.7,43.44c-25.2,15.07-52.85,21.61-81.84,23.48c-3.86,0.25-7.72,0.47-11.57,0.7
		c0.7,1,1.52,1.51,2.39,1.94c5.47,2.75,10.96,5.46,16.42,8.23c1.28,0.65,2.61,1.31,3.71,2.21c1.97,1.62,2.53,3.76,1.64,6.2
		c-0.92,2.53-2.83,4.06-5.42,3.72c-1.96-0.26-3.94-1-5.73-1.89c-12.43-6.13-24.81-12.36-37.21-18.55
		C30.2,172.14,30.2,172.14,27.98,175.43z M174.05,244.14c-3.96-0.62-7.29-1.16-10.62-1.65c-12.19-1.82-24.38-3.71-36.58-5.42
		c-6.34-0.89-12.46-2.07-18.21-5.3c-10-5.62-20.26-10.77-30.41-16.14c-2.13-1.13-3.89-1.19-5.62,0.89c-2.61,3.14-5.48,6.06-8.2,9.11
		c-3.02,3.39-6.01,6.82-9.12,10.36c1.03,0.63,1.72,1.12,2.47,1.51c26.82,14.01,53.65,28,80.46,42.03c2.37,1.24,4.13,0.83,5.83-1.14
		c3.72-4.32,7.52-8.57,11.28-12.85C161.39,258.62,167.43,251.71,174.05,244.14z M235.88,15.41c-7.51-3.38-7.51-3.37-11.89,1.55
		c-39.82,44.76-79.64,89.53-119.46,134.29c-0.52,0.58-0.99,1.21-1.84,2.26c6.86-0.7,12.7-1.85,16.89-7.25
		c2.81-3.63,6.05-6.91,9.11-10.35c34.98-39.28,69.96-78.56,104.93-117.84C234.34,17.28,235.01,16.43,235.88,15.41z M357.75,51.19
		c-48.81,56.13-97.5,112.13-146.29,168.24c4.02,1.85,5.95,1.19,9.59-2.96c45.72-52.05,91.43-104.09,137.14-156.14
		C361.97,56.03,361.96,56.03,357.75,51.19z M293.23,152.15c-12.43,14.14-24.4,27.77-36.58,41.63c12.36,6.43,24.36,12.67,36.58,19.03
		C293.23,192.55,293.23,172.7,293.23,152.15z M196.88,247.54c-2.21-0.36-3.87-0.75-5.56-0.88c-2.21-0.17-4.1,0.48-5.67,2.27
		c-20.02,22.85-40.07,45.65-60.11,68.48c-2.34,2.67-3.18,9.62-1.59,13.24C148.17,303.06,172.33,275.52,196.88,247.54z
		 M142.53,138.05c0.25,0.22,0.51,0.44,0.76,0.66c33.2-20.22,54.76-50.72,73.38-83.82C191.96,82.61,167.25,110.33,142.53,138.05z
		 M12.15,266.55c17.56-19.71,34.69-38.93,51.88-58.22c-1.1-0.72-1.96-1.28-2.81-1.84c-2.56-1.7-4.15-1.6-6.37,0.48
		c-0.8,0.76-1.51,1.62-2.24,2.44c-12.01,13.46-23.89,27.05-36.11,40.31C12.04,254.58,11.28,259.9,12.15,266.55z M310.68,133.08
		c-4.03,2.67-5.7,6.53-5.62,12.15c0.14,9.61,0.32,19.23,0.33,28.84c0.02,13.53-0.13,27.07-0.14,40.6c-0.01,5.13,0.78,5.99,5.44,6.5
		C310.68,191.9,310.68,162.64,310.68,133.08z M44.3,248.38c29,15.13,57.68,30.1,86.51,45.15c0.84-1.09,1.59-2.06,2.5-3.24
		c-28.9-15.09-57.51-30.02-86.24-45.02C46.21,246.24,45.43,247.12,44.3,248.38z M309.31,235.82c0.09-0.33,0.19-0.66,0.28-0.99
		c-0.42-0.26-0.83-0.56-1.27-0.79c-18.92-9.87-37.87-19.68-56.72-29.68c-2.59-1.37-4.01-0.99-5.35,1.56c0.6,0.4,1.19,0.88,1.85,1.23
		c16.59,8.62,33.13,17.36,49.85,25.73C301.37,234.59,305.5,234.88,309.31,235.82z M260.14,227.63c-0.37-0.67-0.43-0.98-0.6-1.07
		c-6.7-3.5-13.4-7.01-20.16-10.42c-0.6-0.3-1.86-0.19-2.31,0.25c-2.04,1.96-3.89,4.11-6.22,6.64
		C240.97,224.62,250.37,226.09,260.14,227.63z M200.88,212.7c-4.3,0.91-8.2,1.73-12.47,2.63
		C195.5,218.41,198.45,217.84,200.88,212.7z"/>
</g>
</svg>
