<?xml version="1.0" encoding="utf-8"?>
<!-- Generator: Adobe Illustrator 25.4.1, SVG Export Plug-In . SVG Version: 6.00 Build 0)  -->
<svg version="1.1" id="Capa_1" xmlns="http://www.w3.org/2000/svg" xmlns:xlink="http://www.w3.org/1999/xlink" x="0px" y="0px"
	 viewBox="0 0 332.13 332.29" style="enable-background:new 0 0 332.13 332.29;" xml:space="preserve">
<style type="text/css">
	.st0{fill:#253257;}
	.st1{fill:#77B5B1;}
	.st2{opacity:0.92;}
	.st3{fill:#74B4B0;}
	.st4{fill:#FFFFFF;}
	.st5{fill:#222F57;}
</style>
<g>
	<path class="st0" d="M115.31,135.46c-4.08-4.23-7.9-8.33-11.87-12.29c-10.73-10.71-21.65-21.23-32.22-32.09
		c-4.5-4.63-9.39-7.44-15.97-7.85c-7.91-0.5-14.55-3.96-20.15-9.77C25.35,63.34,15.23,53.59,5.37,43.58
		C-1.5,36.6-1.84,27.16,4.71,19.93c4.8-5.29,9.87-10.38,15.16-15.17c7.14-6.46,16.36-6.35,23.25,0.35
		c11.71,11.4,23.2,23.04,34.72,34.64c3.77,3.8,4.43,8.86,5.1,13.87c0.35,2.61,0.88,5.2,1.22,7.81c0.34,2.65,1.54,4.71,3.45,6.61
		c15.37,15.22,30.68,30.5,45.93,45.84c1.5,1.51,2.36,1.45,3.89,0.07c16.85-15.29,34.31-29.82,53.41-42.28
		c22.07-14.39,45.34-26.31,71.06-32.62c9.2-2.25,18.74-3.2,28.18-4.37c5.41-0.67,7.67,2.05,7.39,7.68
		c-1.14,22.73-7.98,43.89-17.54,64.31c-11.7,24.99-27.14,47.55-44.77,68.66c-6.06,7.25-12.36,14.29-18.63,21.51
		c2.58,2.6,5.19,5.25,7.82,7.87c12.32,12.25,24.81,24.33,36.88,36.82c4.58,4.74,9.75,7.09,16.13,7.58
		c6.93,0.52,12.95,3.06,17.94,8.11c10.52,10.67,21.22,21.16,31.75,31.83c6.15,6.24,6.95,15.37,1.26,22.02
		c-5.35,6.25-11.26,12.11-17.49,17.48c-6.27,5.42-15.45,4.82-21.43-1.04c-11.61-11.38-23.14-22.86-34.37-34.61
		c-4.21-4.4-5.87-10.35-6.14-16.43c-0.24-5.41-2.21-9.94-5.95-13.69c-14.73-14.77-29.53-29.48-44.31-44.21
		c-0.47-0.47-1.03-0.87-1.75-1.46c-2.19,1.92-4.37,3.78-6.5,5.69c-17.76,15.91-35.7,31.61-55.44,45.08
		c-18.41,12.57-37.76,23.34-59.21,29.89c-12.41,3.79-25.08,5.45-38.06,3.95c-5.02-0.58-6.64-2.23-7.18-7.27
		c-1.92-17.64,1.88-34.35,8.44-50.56c10.11-24.99,24.53-47.43,41.49-68.21c10.43-12.78,21.6-24.97,32.44-37.43
		C113.66,137.29,114.52,136.35,115.31,135.46z M123.51,143.49c-1.13,1.28-2.04,2.28-2.91,3.31c-12.78,15.17-25.86,30.09-38.23,45.58
		c-12.51,15.68-22.75,32.85-30.84,51.26c-1.12,2.55-1.59,4.96-0.23,7.57c6.86,13.18,16.85,23.22,30.18,29.78
		c1.59,0.78,4.17,0.82,5.79,0.1c6.67-2.98,13.27-6.17,19.66-9.69c18.93-10.44,36.27-23.19,52.65-37.24
		c9.68-8.3,19.08-16.93,28.75-25.54c-2.18-2.1-4.04-3.88-5.95-5.72c-0.74,0.51-1.51,1.04-2.29,1.55
		c-9.18,6.14-19.06,10.38-30.15,11.66c-13.31,1.54-26.1-5.15-31.2-16.95c-3.79-8.79-4.07-17.92-0.52-26.86
		c2.85-7.18,6.2-14.17,9.41-21.21c0.65-1.42,0.72-2.45-0.5-3.59C125.9,146.35,124.85,145,123.51,143.49z M208.47,188.72
		c0.4-0.6,0.6-0.98,0.87-1.3c6.8-8.18,13.67-16.3,20.39-24.55c18.38-22.53,33.86-46.84,44.96-73.82c1.47-3.57,1.3-6.58-0.9-9.81
		c-4.8-7.03-10.65-12.98-17.17-18.41c-5.17-4.3-10.56-5.13-16.54-2.17c-8.53,4.22-17.21,8.16-25.52,12.77
		c-24.3,13.5-46.08,30.48-66.66,49.07c-1.24,1.12-2.48,2.26-3.78,3.44c1.01,1.12,1.84,2.09,2.72,3c2.8,2.94,2.81,2.94,6.34,0.81
		c9.16-5.53,18.87-9.27,29.75-9.55c18.13-0.46,30.42,11.04,30.95,29.18c0.34,11.65-3.61,22.04-9.63,31.74
		c-1.45,2.33-1.96,4.09,0.61,5.92C206.07,185.94,207,187.21,208.47,188.72z M320.68,300.57c-1.32-1.77-2.39-3.6-3.83-5.07
		c-9.01-9.17-18.18-18.18-27.15-27.39c-4.61-4.73-9.84-7.52-16.61-7.71c-5.32-0.14-10.45-1.63-14.6-5.26
		c-2.43-2.12-4.67-4.47-6.96-6.76C194.42,191.23,137.35,134.02,80.12,76.97c-4.61-4.6-7.35-9.64-8.1-15.96
		c-0.2-1.69-0.26-3.43-0.73-5.04c-0.88-3.05-1.2-6.8-3.19-8.9C57.64,36,46.76,25.32,35.95,14.58c-3.48-3.46-5.69-3.43-9.21-0.05
		c-3.99,3.83-7.94,7.71-11.8,11.68c-4.15,4.26-4.05,6.21,0.2,10.48c8.17,8.21,16.58,16.18,24.41,24.7
		c6.16,6.7,13.14,10.65,22.38,11.01c4.87,0.19,9.37,2.27,12.97,5.87c14.21,14.2,28.47,28.37,42.67,42.58
		c44.36,44.38,88.63,88.85,133.16,133.07c5.81,5.77,9.07,12.1,9.69,20.08c0.46,5.82,2.26,10.89,6.91,15.05
		c6.2,5.56,11.83,11.76,17.72,17.67c3.91,3.92,7.77,7.88,11.8,11.68c2.79,2.62,4.91,2.71,7.63,0.14c4.76-4.5,9.35-9.19,13.9-13.9
		C319.33,303.64,319.78,302.19,320.68,300.57z M172.83,194.91c-11.86-11.95-23.62-23.8-35.48-35.75
		c-5.91,8.87-10.19,18.51-9.3,29.75c0.63,7.91,5.69,13.62,13.49,14.72c3.73,0.53,7.65,0.47,11.38-0.07
		C160.54,202.47,167.11,198.77,172.83,194.91z M159.19,137.98c11.65,11.83,23.1,23.48,34.76,35.32c5.25-8.62,8.86-17.29,8.16-27.22
		c-0.62-8.78-5.79-14.57-14.51-15.8C177.21,128.82,168.13,132.59,159.19,137.98z M66.94,288.5c-7.58-7.59-15.16-15.18-22.8-22.83
		c-1.89,8.12-3.1,16.5-1.9,25.32C50.67,290.14,58.92,289.31,66.94,288.5z M285.72,46.37c-6.92,1.29-13.35,2.48-20.42,3.79
		c5.9,5.59,11.31,10.7,16.83,15.93C283.26,59.87,284.45,53.37,285.72,46.37z"/>
</g>
</svg>
