<?xml version="1.0" encoding="utf-8"?>
<!-- Generator: Adobe Illustrator 25.4.1, SVG Export Plug-In . SVG Version: 6.00 Build 0)  -->
<svg version="1.1" id="Capa_1" xmlns="http://www.w3.org/2000/svg" xmlns:xlink="http://www.w3.org/1999/xlink" x="0px" y="0px"
	 viewBox="0 0 495.18 606.12" style="enable-background:new 0 0 495.18 606.12;" xml:space="preserve">
<style type="text/css">
	.st0{fill:#253257;}
	.st1{fill:#77B5B1;}
	.st2{opacity:0.92;}
	.st3{fill:#74B4B0;}
	.st4{fill:#FFFFFF;}
	.st5{fill:#222F57;}
</style>
<g>
	<path class="st0" d="M171.65,263.27c-1.36-1.01-2.84-0.71-4.25-0.72c-5.12-0.04-10.23-0.02-15.35-0.02c-35.17,0-70.35,0-105.52,0
		c-5.77,0-11.49-0.28-17.09-1.9c-16.13-4.66-25.41-15.54-28.1-31.82c-1.81-10.91-1.66-21.99-0.29-32.98
		c1.88-15.11,12.7-29.46,32.01-33.15c3.43-0.65,6.98-0.92,10.48-0.93c40.77-0.07,81.54-0.06,122.31-0.08c1.88,0,3.79,0.18,5.81-0.33
		c0.6-1.99,0.39-3.9,0.39-5.78c0.01-24.46,0.01-48.93,0.01-73.39c0-12.63,0.01-25.26-0.01-37.9c-0.01-4.98,0.52-9.89,1.74-14.72
		c2.42-9.59,7.83-17.01,16.13-22.38c4.75-3.07,10.05-4.84,15.28-6.8c0.72-0.27,1.57-0.27,2.36-0.29c1.44-0.05,2.88-0.02,4.32-0.02
		C293.1,0.06,374.32,0.1,455.54,0c9.48-0.01,17.41,3.59,24.66,9.06c7.29,5.5,11.67,13.01,13.82,21.85
		c0.91,3.76,1.12,7.57,1.12,11.42c0,32.62,0.03,65.24,0.04,97.86c0.01,34.7,0,69.39,0,104.09c0,51.17,0.01,102.33,0,153.5
		c0,15.83,0.04,31.66-0.09,47.49c-0.55,67.06-40.46,125.29-103.5,150c-21.3,8.35-43.34,11.79-66.19,10.63
		c-56.87-2.87-113.95-38.18-139.44-95.76c-6.32-14.27-10.36-29.17-12.23-44.67c-1.21-10.02-1.63-20.07-1.63-30.15
		c0-55.32-0.02-110.65-0.06-165.97C172.03,267.31,172.39,265.21,171.65,263.27z M192.53,263.01c-0.73,2.05-0.48,3.97-0.48,5.85
		c0.01,54.05,0.03,108.09,0.05,162.14c0,11.03,0.12,22.05,1.57,33.03c1.91,14.54,5.78,28.48,12.24,41.66
		c14.23,29,36.03,50.57,64.64,65.27c19.5,10.02,40.3,15.17,62.27,15.24c16.96,0.05,33.41-3.06,49.23-9.06
		c43.59-16.53,72.76-46.9,86.77-91.5c4.68-14.9,6.37-30.27,6.36-45.88c-0.05-130.96-0.03-261.92-0.03-392.87
		c0-1.6,0.1-3.21-0.06-4.79c-0.26-2.54-0.46-5.12-1.1-7.57c-1.8-6.9-6.18-11.34-13.12-13.29c-3.45-0.97-6.94-1.06-10.45-1.06
		c-77.86-0.01-155.73-0.01-233.59,0c-2.08,0-4.17,0-6.23,0.25c-8.92,1.08-16.23,5.8-17.89,16.99c-0.37,2.52-0.63,5.09-0.63,7.63
		c-0.04,37.1-0.03,74.19-0.02,111.29c0,1.41,0.14,2.82,0.21,4.02c1.72,1.6,3.54,1.28,5.26,1.29c13.59,0.01,27.18,0.02,40.77-0.02
		c7.62-0.02,7.79-0.14,12.27-6.3c5.85-8.06,12.46-15.41,20.08-21.83c14.46-12.19,31.08-19.51,49.87-21.48
		c13.12-1.38,26.18-0.43,39.05,2.68c26.52,6.41,47.02,21.02,60.61,44.85c8.09,14.19,13.04,29.44,14.69,45.75
		c1.91,18.89-1.88,36.56-10.92,53.16c-5.47,10.05-12.41,19.04-20.81,26.78c-26.49,24.4-57.42,33.15-92.61,25.01
		c-25.03-5.8-44.63-20.02-59.62-40.75c-0.75-1.04-1.48-2.08-2.19-3.15c-1.63-2.47-3.84-3.55-6.86-3.55
		c-15.35-0.01-30.7-0.15-46.04-0.21C194.74,262.56,193.67,262.85,192.53,263.01z M186.93,242.51c46.19,0,92.37,0.01,138.56-0.01
		c3.19,0,6.41,0.06,9.58-0.29c9.23-1.02,16.53-5.61,18.35-17.08c0.08-0.47,0.2-0.95,0.21-1.42c0.17-5.74,0.43-11.49,0.43-17.23
		c0-2.86-0.33-5.75-0.83-8.57c-1.55-8.6-6.91-13.94-15.56-15.33c-3.61-0.58-7.31-0.82-10.97-0.82c-77.67-0.05-155.34-0.03-233-0.03
		c-16.14,0-32.28-0.04-48.42,0.04c-3.18,0.02-6.42,0.2-9.51,0.87c-6.9,1.5-11.8,5.63-13.89,12.48c-0.87,2.86-1.29,5.94-1.43,8.93
		c-0.23,5.1-0.14,10.23-0.03,15.34c0.05,2.38,0.29,4.8,0.79,7.13c1.7,7.88,6.35,13.1,14.32,15.03c1.85,0.45,3.77,0.72,5.67,0.82
		c3.03,0.16,6.07,0.13,9.11,0.13C95.83,242.51,141.38,242.51,186.93,242.51z M271.81,263.2c3.27,4.42,6.58,7.86,10.3,10.86
		c20.73,16.74,44.3,22.33,70.19,16.69c40.55-8.83,71.06-51.63,60.51-96.08c-12.23-51.51-60.48-69.18-94.04-62
		c-13.51,2.89-25.82,8.26-36.44,17.23c-3.19,2.7-6.04,5.71-8.37,9.19c-0.4,0.6-0.57,1.36-0.89,2.17c2.02,0.72,3.79,0.42,5.51,0.42
		c16.63,0.05,33.25,0.02,49.88,0.12c3.99,0.02,7.99,0.28,11.95,0.71c13.91,1.51,29.7,12.39,32.65,32.32
		c1.6,10.78,1.56,21.65,0.36,32.52c-1.67,15.12-11.84,29.36-30.12,33.93c-4.24,1.06-8.52,1.26-12.84,1.26
		c-17.59,0.01-35.17,0-52.76,0.02C275.99,262.56,274.23,262.26,271.81,263.2z"/>
	<path class="st0" d="M88.41,310.07c1.8,1.48,3.53,2.87,5.23,4.3c1.98,1.67,2.72,3.85,2.6,6.4c-0.16,3.32-1.21,6.28-3.48,8.71
		c-1.3,1.4-2.73,2.7-4.24,3.88c-17.24,13.55-29.62,30.74-37.96,50.92c-7.5,18.16-10.6,37.08-9.56,56.7
		c1.59,30.09,12.17,56.59,31.8,79.45c4.9,5.71,10.39,10.83,16.19,15.64c2.08,1.73,4.14,3.56,5.82,5.66
		c3.69,4.63,3.05,9.77-1.45,13.55c-2.21,1.86-4.76,2.73-7.57,1.7c-2.08-0.76-4.19-1.62-6.02-2.83c-2.52-1.67-4.87-3.63-7.16-5.62
		c-25.32-22.04-41.42-49.53-48.52-82.32c-3.37-15.59-4.34-31.37-2.59-47.19c4.61-41.85,23.02-76.31,55.91-102.85
		C80.57,313.64,84.11,311.88,88.41,310.07z"/>
	<path class="st0" d="M60.64,436.82c1.23-19.37,4.7-37.28,13.22-53.97c7.17-14.04,17.16-25.72,29.39-35.57
		c2.27-1.82,4.69-3.29,7.72-3.51c3.9-0.29,6.85,1.22,8.83,4.55c1.95,3.28,2.13,6.68,0.07,9.98c-0.83,1.34-1.95,2.52-3.07,3.65
		c-1.12,1.13-2.42,2.09-3.63,3.13c-17.34,14.85-27.9,33.4-30.92,56.15c-2.01,15.13-1.21,29.96,4.14,44.38
		c4,10.77,9.94,20.38,17.69,28.82c3.66,3.99,7.79,7.55,11.67,11.35c1.36,1.33,2.85,2.62,3.89,4.19c2.55,3.84,2.06,8.62-0.97,11.95
		c-2.98,3.27-7.21,4.14-11.35,2.17c-1.42-0.68-2.76-1.61-4-2.59c-20.21-15.89-33.49-36.19-38.83-61.47
		c-1.32-6.25-2.45-12.53-3.56-18.82C60.62,439.48,60.69,437.7,60.64,436.82z"/>
	<path class="st0" d="M136.16,492.92c-1.81-0.56-3.72-0.9-5.39-1.74c-1.69-0.84-3.23-2.06-4.68-3.31
		c-14.36-12.37-22.65-28.02-24.26-46.88c-2.06-24.07,6.16-44.21,24.28-60.26c2.29-2.03,4.73-3.77,7.82-4.45
		c3.85-0.85,6.95,0.36,9.39,3.31c2.42,2.94,3.3,6.28,1.44,9.8c-0.95,1.8-2.31,3.43-3.68,4.96c-1.38,1.54-3.06,2.82-4.51,4.3
		c-6.73,6.89-11.59,14.9-13.73,24.33c-3.51,15.44-0.34,29.52,9.34,42.03c2.33,3.01,5.17,5.65,7.89,8.35
		c1.83,1.81,3.58,3.62,4.75,5.95C148.13,485.87,141.57,493.11,136.16,492.92z"/>
	<path class="st0" d="M303.6,458.17c-0.18-3.67-0.15-7.36-0.58-10.99c-0.64-5.28-2.42-10.23-4.98-14.91
		c-2.31-4.24-3.85-8.73-4.48-13.56c-1.17-8.94,0.71-17.21,5.49-24.73c7.11-11.18,17.52-17.31,30.51-19.45
		c11.3-1.87,21.25,0.89,29.87,8.28c6.99,6,11.42,13.69,13.68,22.6c2.08,8.2,1.07,16.18-2.11,23.92c-0.91,2.21-1.98,4.38-3.23,6.41
		c-2.75,4.5-3.95,9.4-4.03,14.6c-0.08,4.95-0.05,9.91-0.04,14.86c0,3.39-0.6,6.66-1.74,9.85c-4.82,13.39-17.32,19.09-26.54,19.63
		c-16.82,1-31.36-11.98-31.94-29.31c-0.08-2.39-0.01-4.79-0.01-7.19C303.51,458.17,303.56,458.17,303.6,458.17z M323.59,452.15
		c-0.05,0-0.09,0-0.14,0c0,3.19-0.09,6.39,0.03,9.58c0.07,1.9,0.28,3.84,0.79,5.66c1.25,4.47,4.65,7.06,9.05,7.17
		c4.51,0.12,8.03-2.15,9.5-6.55c0.64-1.92,0.85-4.05,0.89-6.1c0.11-6.55,0.03-13.1,0.06-19.65c0.02-5.43,1.45-10.39,4.96-14.67
		c0.9-1.1,1.63-2.37,2.31-3.63c1.93-3.59,2.89-7.43,2.67-11.52c-0.71-12.99-14.59-22.08-27.17-17.26
		c-6.42,2.46-13.45,9.5-12.92,19.39c0.26,4.8,1.94,9.04,4.78,12.82c3.72,4.94,5.16,10.54,5.18,16.6
		C323.6,446.72,323.59,449.44,323.59,452.15z"/>
	<path class="st0" d="M334.06,40.45c14.39,0,28.78-0.01,43.17,0.01c2.4,0,4.79,0.1,7.19,0.18c1.96,0.07,3.76,0.71,5.4,1.77
		c3.07,2,4.55,4.88,4.38,8.52c-0.18,3.65-1.84,6.54-5.26,7.92c-2.17,0.88-4.59,1.28-6.94,1.55c-2.37,0.27-4.79,0.11-7.19,0.11
		c-27.34,0-54.68,0-82.03,0c-2.4,0-4.8,0.07-7.19-0.09c-1.9-0.12-3.84-0.33-5.66-0.87c-4.07-1.2-6.42-4.3-6.68-8.41
		c-0.28-4.41,1.73-7.8,5.82-9.5c1.3-0.54,2.75-0.88,4.15-1c2.22-0.2,4.47-0.19,6.71-0.19C304.64,40.44,319.35,40.45,334.06,40.45z"
		/>
	<path class="st0" d="M232.6,40.27c3.73,0.14,7.4,0.37,11.06,0.38c4.19,0.01,8.39,3.65,8.79,8.5c0.46,5.55-2.1,9.47-7.26,10.76
		c-1.08,0.27-2.2,0.51-3.3,0.52c-6.22,0.05-12.44,0.07-18.66-0.02c-1.41-0.02-2.87-0.35-4.21-0.8c-4.22-1.41-6.99-5.8-6.5-10.08
		c0.55-4.75,4.04-8.42,8.66-8.79C225,40.44,228.84,40.42,232.6,40.27z"/>
</g>
</svg>
