<?xml version="1.0" encoding="utf-8"?>
<!-- Generator: Adobe Illustrator 25.4.1, SVG Export Plug-In . SVG Version: 6.00 Build 0)  -->
<svg version="1.1" id="Capa_1" xmlns="http://www.w3.org/2000/svg" xmlns:xlink="http://www.w3.org/1999/xlink" x="0px" y="0px"
	 viewBox="0 0 181.7 286.9" style="enable-background:new 0 0 181.7 286.9;" xml:space="preserve">
<style type="text/css">
	.st0{fill:#202E56;}
</style>
<g>
	<path class="st0" d="M155.8,0c9.6,3.1,11.7,10.2,11.5,17.6c-0.1,5.2,0,10.4,0,15.8c4.7,0.5,8.5,2.1,11.3,5.7c2.4,3.1,3,6.7,3,10.5
		c0,47,0,94,0,140.9c0,26.7,0,53.4,0,80.1c0,10.5-5.7,16.2-16.3,16.2c-49.7,0-99.4,0-149.1,0C5.7,286.9,0,281.3,0,270.7
		c0-73,0-146.1,0-219.1c0-11.8,2.9-15.5,14.4-18.3c19-4.6,38.1-9.2,57.1-13.8c26.3-6.4,52.6-12.7,78.8-19.1c0.4-0.1,0.7-0.3,1-0.4
		C152.9,0,154.3,0,155.8,0z M172.1,160.3c0-36.8,0-73.6,0-110.4c0-5.4-1.4-6.8-6.8-6.8c-49.7,0-99.4,0-149,0c-5.4,0-6.8,1.4-6.8,6.8
		c0,73.6,0,147.2,0,220.8c0,5.3,1.5,6.8,6.9,6.8c49.6,0,99.2,0,148.8,0c5.5,0,6.9-1.5,6.9-7C172.1,233.7,172.1,197,172.1,160.3z
		 M157.6,33.4c0-6.7,0.2-13.1-0.1-19.5c-0.1-3.3-2.5-4.7-5.7-3.9C120.6,17.5,89.3,25,58.1,32.6c-0.5,0.1-1,0.5-1.7,0.8
		C90.2,33.4,123.7,33.4,157.6,33.4z"/>
	<path class="st0" d="M52.6,154.3c0-11.8,0-23.5,0-35.3c0-2-0.4-3.3-2.2-4.7c-4.8-3.5-7.3-8.5-7.3-14.4c-0.1-12.7-0.1-25.4,0-38.1
		c0-3.4,1.9-5.4,4.7-5.4c2.8,0,4.8,2,4.8,5.4c0.1,7,0,14,0,21c0,0.9,0,1.9,0.1,2.8c0.4,2.4,1.9,3.9,4.3,4.1c2.4,0.2,4.1-1,4.8-3.4
		c0.3-1.1,0.4-2.2,0.4-3.3c0-6.9,0-13.8,0-20.7c0-3.7,1.7-5.7,4.6-5.8c3-0.1,4.9,2.1,4.9,5.9c0,7.2,0,14.4,0,21.6
		c0,3.8,1.8,6,4.8,5.9c2.9-0.1,4.7-2.2,4.7-5.8c0-6.9,0-13.8,0-20.7c0-0.8,0-1.7,0.1-2.5c0.3-2.5,2.1-4.1,4.5-4.2
		c2.5-0.1,4.5,1.5,4.9,4.1c0.2,1.4,0.1,2.8,0.1,4.2c0,11.1-0.1,22.2,0,33.3c0.1,7.1-2.5,12.8-8.3,17.1c-0.8,0.6-1.2,2.2-1.2,3.3
		c-0.1,23.5,0,47.1-0.1,70.6c0,7.6-4.1,13.2-10.6,15c-8.8,2.3-17.7-3.9-17.9-13C52.5,178.7,52.7,166.5,52.6,154.3
		C52.7,154.3,52.6,154.3,52.6,154.3z M52.7,98.5c-0.1,4.4,1.5,7.4,5.1,9.1c3.3,1.5,4.4,3.8,4.4,7.3c-0.1,24.3,0,48.6,0,72.8
		c0,1-0.1,2.1,0.1,3.1c0.4,2.5,2,3.8,4.4,4c2.2,0.1,4-1,4.6-3.3c0.3-1.2,0.4-2.6,0.4-3.9c0-24.3,0.1-48.6,0-72.8
		c0-3.5,1.1-5.8,4.3-7.3c3.6-1.7,5.2-4.8,5.2-9.2c-5.1,1.6-9.6,0.7-13.6-2.3c-0.3-0.2-1.3,0-1.7,0.3C62,99.2,57.7,99.9,52.7,98.5z"
		/>
	<path class="st0" d="M129.1,133.1c0,1.2,0,2.3,0,3.4c0,17.6,0,35.1,0,52.7c0,6.5-2.7,11.4-8.6,14.1c-7.9,3.6-17.3-1-19.5-9.5
		c-0.5-1.9-0.6-3.9-0.6-5.8c0-41.6,0-83.1,0-124.7c0-6.4,1.8-7.8,8.2-7c11.6,1.4,20.4,6.9,25.6,17.5c3.4,6.9,4.4,14.4,4.4,22
		c0,8.5,0,17,0,25.5C138.6,128.4,136.3,131.3,129.1,133.1z M109.9,66.4c0,1.4,0,2.4,0,3.5c0,28.4,0,56.7,0,85.1
		c0,11.1,0,22.2,0,33.3c0,4.3,1.7,6.6,4.7,6.7c3.1,0.1,4.8-2.3,4.8-6.5c0-0.6,0-1.1,0-1.7c0-18.6,0-37.1,0-55.7c0-0.7,0-1.5,0-2.2
		c0.2-3.7,1.9-5.4,5.6-5.5c1.3,0,2.5,0,3.8,0c0-11.4,0.2-22.4-0.1-33.4c-0.1-3.5-1.3-7.2-2.6-10.5C123.3,72.1,118.1,67.7,109.9,66.4
		z"/>
	<path class="st0" d="M76.2,242.7c-10.8,0-21.7,0-32.5,0c-2.2,0-4.3-0.6-4.9-2.8c-0.4-1.5-0.2-3.7,0.7-4.8c0.9-1.1,3.1-1.8,4.7-1.8
		c6.4-0.2,12.9-0.1,19.3-0.1c14.6,0,29.1,0,43.7,0c0.7,0,1.5,0,2.2,0c3.2,0.2,5.2,2.1,5.2,4.8c0,2.8-2.1,4.8-5.4,4.8
		C98.3,242.8,87.3,242.7,76.2,242.7z"/>
	<path class="st0" d="M119.4,261.9c-5.9,0-11.8,0-17.6,0c-3.9,0-6-1.6-6-4.7c0-3,2.1-4.9,5.9-4.9c11.9,0,23.9,0,35.8,0
		c4.5,0,7.1,3.3,5.5,6.8c-1,2.1-2.8,2.8-5.1,2.8C131.7,261.9,125.6,261.9,119.4,261.9z"/>
	<path class="st0" d="M50.2,261.8c-2.4,0-4.8,0.1-7.2,0c-2.8-0.1-4.6-2.1-4.7-4.6c0-2.3,1.7-4.6,4.3-4.7c5.1-0.2,10.2-0.2,15.3,0
		c2.7,0.1,4.5,2.5,4.3,4.9c-0.2,2.5-2.1,4.2-4.9,4.4C54.8,261.9,52.5,261.8,50.2,261.8C50.2,261.8,50.2,261.8,50.2,261.8z"/>
	<path class="st0" d="M133.7,242.7c-1.6,0-3.2,0.1-4.8,0c-2.6-0.2-4.2-1.6-4.5-4.1c-0.3-2.5,1.1-4.8,3.7-5c3.8-0.3,7.6-0.3,11.4,0
		c2.4,0.2,4,2.6,3.8,4.8c-0.2,2.4-2,4.2-4.6,4.4C137.1,242.8,135.4,242.7,133.7,242.7z"/>
	<path class="st0" d="M78.8,261.8c-4.8,0-7.1-1.5-7-4.8c0.1-3.2,2.4-4.7,7.2-4.7c0.9,0,1.9,0,2.8,0.2c2.8,0.5,4.3,2.4,4.2,5
		c-0.2,2.5-1.9,4.1-4.6,4.3C80.5,261.9,79.6,261.8,78.8,261.8z"/>
</g>
</svg>
