<?xml version="1.0" encoding="utf-8"?>
<!-- Generator: Adobe Illustrator 25.4.1, SVG Export Plug-In . SVG Version: 6.00 Build 0)  -->
<svg version="1.1" id="Capa_1" xmlns="http://www.w3.org/2000/svg" xmlns:xlink="http://www.w3.org/1999/xlink" x="0px" y="0px"
	 viewBox="0 0 283.4 283.2" style="enable-background:new 0 0 283.4 283.2;" xml:space="preserve">
<style type="text/css">
	.st0{fill:#202E56;}
</style>
<g>
	<path class="st0" d="M146.4,191.7c5,0,9.6,0,14.3,0c16.9,0,33.9,0,50.8,0c8.6,0,14.7,5.8,14.7,13.7c0,7.9-6.2,13.7-14.7,13.7
		c-17.5,0-35,0-52.6,0c-1,0-2.1,0-3.4,0c0,10.6,0,21.1,0,31.8c2.8,0.4,3.9,2.6,4.9,5.1c2.5,6.6,5.2,13.1,7.8,19.6
		c1.8,4.7-0.1,7.4-5.1,7.4c-14.4,0-28.8,0-43.1,0c-5,0-6.9-2.8-5.1-7.5c2.6-6.5,5.3-13,7.8-19.6c1-2.5,2.1-4.7,5-5.1
		c0-10.6,0-21.1,0-31.8c-1.1,0-2.2,0-3.2,0c-17.9,0-35.8,0-53.7,0c-6.8,0-12.1-4.4-13.5-10.9c-1.4-6,1.8-12.6,7.6-15.1
		c2.1-0.9,4.6-1.3,6.9-1.3c20.6-0.1,41.1-0.1,61.7-0.1c1,0,2.1,0,3.4,0c0-1,0.1-2,0.1-2.9c0-26.8,0-53.5,0-80.3c0-2-0.5-3-2.5-3.7
		C108.3,96,82,86.9,55.6,78c-1.1-0.4-2.4-0.5-3.6-0.5c-14.8,0-29.5,0-44.3,0c-0.7,0-1.3,0-2,0C3,77.6,0.9,76.7,0.2,74
		c-0.7-2.6,0.7-4.3,2.9-5.6c17-10.1,33.9-20.4,51-30.3c19.2-11,38.8-21.5,59.2-30.2c4.4-1.9,8.9-3.4,13.3-5.1
		c10.2-4,20.3-3.6,30.6,0.1c18.5,6.6,36.1,15.2,53.2,24.8c23.3,13.1,46.2,26.8,69.3,40.3c0.4,0.2,0.8,0.5,1.2,0.8
		c2,1.3,2.9,3,2.2,5.3c-0.7,2.3-2.4,3.3-4.8,3.3c-3.2,0-6.5,0-9.7,0c-12.6,0-25.1-0.1-37.7,0.1c-2.6,0-5.3,0.5-7.8,1.3
		c-24.8,8.6-49.5,17.3-74.3,26c-1.6,0.5-2.8,0.9-2.8,3.2c0.1,27.2,0.1,54.5,0.1,81.7C146.3,190.3,146.3,190.8,146.4,191.7z
		 M262.2,68.2c-1-0.7-1.4-1-1.9-1.3c-22.1-12.5-44.1-25.2-66.4-37.3c-13.3-7.3-27.1-13.7-41.6-18.6c-7-2.4-14-2.8-20.9-0.1
		c-6.8,2.6-13.7,5.1-20.4,8.1C84.8,30.9,59.8,45.2,35,59.8c-4.5,2.6-8.9,5.3-14,8.4C101.7,68.2,181.6,68.2,262.2,68.2z M141.4,210
		c22.9,0,45.9,0,68.8,0c1,0,1.9,0.1,2.9-0.1c2.5-0.5,4-2,4-4.5c0-2.5-1.5-4-3.9-4.5c-0.8-0.2-1.7-0.1-2.6-0.1
		c-45.9,0-91.8,0-137.7,0c-0.9,0-1.7-0.1-2.6,0.1c-2.5,0.5-3.9,2-3.9,4.5c0,2.5,1.5,4,3.9,4.5c0.9,0.2,1.9,0.1,2.9,0.1
		C95.9,210,118.7,210,141.4,210z M157.8,273.9c-1.7-4.3-3.3-8.4-5.1-12.5c-0.2-0.5-1.3-1-1.9-1.1c-6-0.1-12-0.1-18,0
		c-0.7,0-1.7,0.3-1.9,0.7c-1.8,4.2-3.5,8.5-5.2,12.9C136.6,273.9,147,273.9,157.8,273.9z M146.1,251c0-10.7,0-21.2,0-31.6
		c-3.1,0-6,0-8.8,0c0,10.7,0,21.1,0,31.6C140.2,251,143.1,251,146.1,251z M84.1,77.4c0,0.2-0.1,0.4-0.1,0.6
		c11.8,4,23.6,8.1,35.4,12.1c-4.1-4.3-8.5-8.1-12.9-11.9c-0.5-0.4-1.2-0.7-1.8-0.7C97.9,77.4,91,77.4,84.1,77.4z M198,77.9
		c0-0.2-0.1-0.3-0.1-0.5c-6.4,0-12.8,0-19.3,0c-0.5,0-1.2,0.2-1.6,0.5c-4.4,3.8-8.9,7.6-13.3,11.5c0.1,0.1,0.2,0.3,0.3,0.4
		C175.4,85.9,186.7,81.9,198,77.9z M146.5,77.5c0,5,0,9.8,0,14.8c5.8-5,11.2-9.7,17.1-14.8C157.4,77.5,152,77.5,146.5,77.5z
		 M137.1,77.7c-5.8,0-11.3,0-17.2,0c5.8,5,11.3,9.7,17,14.7c0.1-1,0.1-1.4,0.1-1.8C137.1,86.3,137.1,82,137.1,77.7z"/>
	<path class="st0" d="M188.8,256.8c-4.5-4-6.9-9.3-5.5-15.8c1.6-7.7,7.9-12.7,15.8-12.7c16.9-0.1,33.9-0.1,50.8,0
		c2.2,0,3.1-0.6,3.8-2.7c6.7-20.2,13.4-40.4,20.1-60.6c1.5-4.4,3.6-6,6.5-5c3,1,3.7,3.5,2.2,7.9c-7.1,21.5-14.3,42.9-21.4,64.4
		c-1.5,4.6-2.3,5.2-7.2,5.2c-18.1,0-36.2,0-54.3,0c-5.7,0-9.2,5.1-6.8,9.9c1.5,2.8,4,3.9,7.1,3.9c11.8,0,23.6,0,35.4,0
		c8.2,0,16.4,0,24.6,0c8.4,0,14.3,4,17.6,11.7c1.9,4.4,3.6,8.8,5.3,13.2c1.2,3.1,0.4,5.6-2.2,6.7c-2.5,1.1-5-0.1-6.2-3.3
		c-1.7-4.2-3.4-8.5-5.1-12.7c-1.7-4.4-4.9-6.5-9.7-6.5c-18.7,0-37.3,0-56,0c-4.4,0-7.4,1.9-9.3,5.8c-2.2,4.5-4.5,9-6.8,13.5
		c-1.6,3.2-4,4.3-6.6,3c-2.6-1.3-3.2-3.8-1.5-7.1C182.4,269.3,185.5,263.1,188.8,256.8z"/>
	<path class="st0" d="M94.7,256.8c3.4,6.8,6.8,13.3,10,19.9c1.2,2.4,0.1,4.9-2.2,6c-2.3,1.1-4.7,0.3-6-2.2c-2.4-4.6-4.8-9.3-7-14
		c-2-4.2-5.2-6.2-10-6.2c-18.4,0.1-36.8,0-55.1,0c-5.6,0-8.1,1.7-10.2,6.9c-1.6,4-3.2,8.1-4.9,12.2c-1.3,3.2-3.6,4.4-6.2,3.4
		c-2.7-1-3.6-3.6-2.3-6.9c1.7-4.2,3.4-8.5,5.1-12.7c3.2-7.9,9.4-12,18-12c20,0,40,0,60,0c3.1,0,5.6-1.1,7-4c1.2-2.5,0.8-5-0.9-7.2
		c-1.6-2-3.9-2.5-6.4-2.5c-17.9,0-35.8,0-53.7,0c-5.1,0-5.8-0.5-7.4-5.3C15.2,210.7,8,189.2,0.9,167.7c-0.2-0.5-0.4-1.1-0.5-1.6
		c-0.8-2.9,0.3-5.4,2.9-6.2c2.4-0.7,4.8,0.6,5.8,3.3c1.4,3.9,2.7,7.9,4,11.9c5.6,16.8,11.2,33.5,16.7,50.4c0.7,2.2,1.7,2.9,4,2.8
		c16.1-0.1,32.2,0.1,48.3-0.1c7.8-0.1,14,2.3,17.2,9.7C102.4,245.3,100.2,251.7,94.7,256.8z"/>
	<path class="st0" d="M146.3,18.2c-0.1,2.1-1.3,3.9-3.6,4.2c-9.5,1.2-17.9,5.6-26.5,9.3c-1,0.4-1.9,0.9-2.9,1.2
		c-2.4,0.5-4.4-0.2-5.4-2.6c-1-2.4-0.3-4.6,1.9-5.6c9.6-4.6,19.2-9.2,29.8-11.1C143.5,12.8,146.2,14.7,146.3,18.2z"/>
	<path class="st0" d="M91.6,43.9c-1.6-1.4-3.6-2.4-4-3.7c-0.4-1.5,0.1-4.1,1.2-5c2.4-1.9,5.3-3.4,8.3-4.3c1.3-0.4,3.5,0.6,4.7,1.6
		c1.6,1.4,1.7,3.9,0.1,5.1C98.9,40,95.4,41.7,91.6,43.9z"/>
</g>
</svg>
