<?xml version="1.0" encoding="utf-8"?>
<!-- Generator: Adobe Illustrator 25.4.1, SVG Export Plug-In . SVG Version: 6.00 Build 0)  -->
<svg version="1.1" id="Capa_1" xmlns="http://www.w3.org/2000/svg" xmlns:xlink="http://www.w3.org/1999/xlink" x="0px" y="0px"
	 viewBox="0 0 282 282" style="enable-background:new 0 0 282 282;" xml:space="preserve">
<style type="text/css">
	.st0{fill:#202E56;}
</style>
<g>
	<path class="st0" d="M0,61.7c0.2-0.4,0.4-0.8,0.5-1.2C2.8,52.3,9.1,47.1,17.6,47c16.5-0.2,33-0.1,49.6,0c4,0,6.6,2.4,6.6,5.8
		c0,3.5-2.6,5.9-6.8,6c-15.7,0-31.4,0-47.1,0c-6.4,0-8.2,1.7-8.2,8.2c0,49.4,0,98.7,0,148.1c0,6.4,1.8,8.1,8.2,8.1
		c30.4,0,60.8,0,91.1,0c50.3,0,100.6,0,150.9,0c6.6,0,8.3-1.7,8.3-8.3c0-49.3,0-98.6,0-147.8c0-6.6-1.7-8.3-8.3-8.3
		c-15.1,0-30.1,0-45.2,0c-0.7,0-1.5,0-2.2,0c-3.8-0.2-6.3-2.5-6.4-5.9c0-3.4,2.5-5.9,6.2-5.9c16.8-0.1,33.6-0.2,50.4,0.1
		c10,0.2,17.1,7.9,17.1,17.9c0,50.7,0,101.3,0,152c0,10.6-7.7,18-18.7,18.1c-24.4,0-48.8,0-73.2,0c-8.3,0-16.7,0-25.3,0
		c0,11.7,0,23.3,0,35.2c1.1,0,2,0,3,0c8.4,0,16.7,0,25.1,0c4.2,0,6.9,2.3,6.9,5.8c0,3.5-2.7,5.9-6.9,5.9c-34.6,0-69.2,0-103.8,0
		c-4.2,0-6.9-2.4-6.8-5.9c0-3.4,2.7-5.7,6.7-5.8c8.4,0,16.7,0,25.1,0c1,0,2,0,3.2,0c0-11.8,0-23.3,0-35.2c-1.1,0-2.2,0-3.3,0
		c-30.7,0-61.5,0-92.2,0C9,235,4.5,231.9,0,220.3C0,167.4,0,114.5,0,61.7z M129.4,270.1c7.9,0,15.5,0,23,0c0-11.8,0-23.3,0-34.9
		c-7.8,0-15.4,0-23,0C129.4,246.9,129.4,258.4,129.4,270.1z"/>
	<path class="st0" d="M146.5,0c3.6,0.7,7.2,1.3,10.7,2.2c14.2,3.8,25.6,12,35,23.1c2.4,2.9,2.1,6.4-0.5,8.6c-2.6,2.1-6,1.8-8.5-1.1
		c-7.1-8.3-15.5-14.9-26-18.3c-19.7-6.3-37-1.5-52.3,12c-2.2,1.9-4.1,4.2-6.1,6.3c-2.7,2.9-6.1,3.3-8.7,0.9
		c-2.5-2.3-2.7-5.6-0.2-8.6c11.6-13.6,25.9-22.5,44-24.7c0.5-0.1,1-0.3,1.6-0.4C139.1,0,142.8,0,146.5,0z"/>
	<path class="st0" d="M176.6,148.8c3.2-10.6,6.4-21.2,9.6-31.8c0.6-1.8,1.1-3.7,1.7-5.5c1.4-4.5,4.2-6.5,7.7-5.5
		c3.7,1.1,4.9,4.3,3.5,9c-3.4,11.5-6.9,23-10.3,34.5c-2.1,7.1-4.2,14.2-6.4,21.3c-1.1,3.7-3.1,5.4-6,5.4c-3,0-4.9-1.7-6-5.4
		c-5.6-18.8-11.3-37.6-16.9-56.3c-1-3.5-0.4-6.1,2-7.6c2.2-1.5,4.6-1.6,6.6,0.1c1.2,1.1,2.2,2.7,2.7,4.3c3.6,11.6,7,23.3,10.5,35
		c0.3,0.9,0.6,1.7,0.8,2.5C176.2,148.8,176.4,148.8,176.6,148.8z"/>
	<path class="st0" d="M99.8,117.4c-4,0-7.7,0.1-11.3,0c-3.7-0.1-6.3-2.6-6.3-5.9c0.1-3.2,2.6-5.7,6.1-5.8c11.6-0.1,23.1,0,34.7,0
		c3.2,0,5.3,1.8,6,4.6c0.6,2.6-0.6,5.3-3.1,6.4c-1.1,0.5-2.5,0.6-3.7,0.6c-3.4,0.1-6.8,0-10.5,0c0,1.3,0,2.4,0,3.4
		c0,15.4,0,30.8,0,46.3c0,0.7,0,1.5,0,2.2c-0.1,4.2-2.4,6.9-5.9,6.9c-3.5,0-5.9-2.6-5.9-6.8c0-11.7,0-23.3,0-35
		C99.8,128.9,99.8,123.4,99.8,117.4z"/>
	<path class="st0" d="M139.8,29.7c12.1,0.3,21.3,4.5,28.5,12.7c2.6,3,2.6,6.5,0.1,8.8c-2.5,2.4-6,2.1-8.7-0.9
		c-3.9-4.3-8.6-7.5-14.4-8.5c-8.4-1.5-15.5,1.1-21.6,6.9c-0.7,0.6-1.2,1.4-1.9,2c-2.6,2.5-5.9,2.7-8.3,0.4c-2.4-2.2-2.6-5.7-0.2-8.4
		c5.1-6,11.5-10.2,19.3-12C135.3,30.2,138.1,30,139.8,29.7z"/>
	<path class="st0" d="M140.9,58.8c4.8,0,8.8,3.8,8.9,8.6c0.1,4.9-4,9-8.9,9c-4.7,0-8.7-4.1-8.8-8.8C132.2,62.7,136,58.8,140.9,58.8z
		"/>
</g>
</svg>
