<?xml version="1.0" encoding="utf-8"?>
<!-- Generator: Adobe Illustrator 25.4.1, SVG Export Plug-In . SVG Version: 6.00 Build 0)  -->
<svg version="1.1" id="Capa_1" xmlns="http://www.w3.org/2000/svg" xmlns:xlink="http://www.w3.org/1999/xlink" x="0px" y="0px"
	 viewBox="0 0 297.3 295.8" style="enable-background:new 0 0 297.3 295.8;" xml:space="preserve">
<style type="text/css">
	.st0{fill:#202E56;}
</style>
<g>
	<path class="st0" d="M54.2,159.3c4.3,4.3,8.5,8.4,12.9,12.8c22.8-20.9,50.3-31.1,81.4-31.1c31.2,0,58.7,10.1,81.7,31.1
		c4.3-4.3,8.5-8.4,13.2-13.1c-6.3-4.7-12.6-9.7-19.2-14.2c-11.2-7.5-23.4-12.9-36.3-16.7c-0.8-0.2-1.7-0.4-2.5-0.7
		c-3.2-1.1-4.7-3.8-3.8-6.7c0.9-2.9,3.7-4.6,6.8-3.4c8.9,3.2,18,6.2,26.5,10.2c14.5,6.6,27.2,16,38.6,27.2c3.8,3.7,3.8,6.1,0.1,9.8
		c-6,6-12,12.1-18,18.1c-3.8,3.8-6.1,3.8-9.8,0c-36.9-37.1-99.4-41.1-141.6-10.5c-4.4,3.2-8.3,6.9-12.4,10.5c-4,3.6-6.2,3.7-9.9,0
		c-6.1-6.1-12.2-12.2-18.3-18.3c-3.5-3.6-3.5-6.1,0.1-9.6c18.3-17.8,39.8-30.3,64.4-37.2c4-1.1,6.9,0.1,7.8,3.3
		c0.9,3.1-0.9,5.7-4.9,6.9c-20.3,5.8-38.4,15.6-54.3,29.5C55.9,157.7,55,158.5,54.2,159.3z"/>
	<path class="st0" d="M148.6,0c33.1,0,58.5,25.5,58.4,58.8c-0.1,31.6-26.6,57.8-58.5,57.7c-31.7-0.1-58.2-26.2-58.3-57.6
		C90.2,25.6,115.5,0,148.6,0z M148.7,105.5c27.3,0,47.7-20.6,47.7-48c0-25.9-21.6-47.2-47.8-47.1c-26.2,0-47.8,21.4-47.7,47.2
		C101,85,121.5,105.6,148.7,105.5z"/>
	<path class="st0" d="M148.1,169.6c25.2,0.3,46.5,8.7,64.4,25.7c3.9,3.7,3.9,6.3,0.2,10c-6.1,6.1-12.2,12.2-18.3,18.3
		c-3.4,3.4-5.8,3.4-9.4,0.1c-21-19.2-51.6-19.2-72.5-0.1c-3.7,3.4-6,3.4-9.6-0.2c-6.1-6.1-12.2-12.2-18.3-18.3
		c-3.6-3.6-3.5-6.2,0.2-9.8C102.7,178.3,124,169.9,148.1,169.6z M201.9,200.4c-28.9-27.2-79-26.3-106.3-0.1
		c4.2,4.2,8.4,8.4,12.5,12.5c27-19.1,54.2-19.1,81.3,0.1C193.5,208.8,197.7,204.6,201.9,200.4z"/>
	<path class="st0" d="M13.3,118.1c4.5,4.5,8.6,8.7,12.6,12.6c7.8-5.9,15.5-12.2,23.6-17.9c10.7-7.5,22.4-13.3,34.6-18
		c2.3-0.9,4.5-1.1,6.5,0.7c3.1,2.8,2,7.1-2.2,9c-5.7,2.6-11.6,4.9-17.2,7.8c-14.9,7.6-28.2,17.4-40.1,29c-3.9,3.8-6.3,3.8-10.1,0
		c-6-6-12.1-12-18.1-18c-3.8-3.8-3.8-6.1,0-9.8c20.2-19.9,43.4-35,69.8-45.3c3.9-1.5,6.8-0.6,8,2.6c1.2,3-0.3,5.8-4.3,7.3
		c-22.9,9-43.3,21.8-61.4,38.5C14.4,117.1,13.9,117.6,13.3,118.1z"/>
	<path class="st0" d="M271.1,131c4.4-4.4,8.6-8.6,13.3-13.4c-8-6.2-16-12.8-24.4-18.9c-11.8-8.5-24.7-15-38.2-20.4
		c-0.4-0.2-0.8-0.3-1.2-0.5c-3.5-1.5-4.9-4.1-3.8-7c1.2-3.1,4.1-4.4,7.6-2.8c7.5,3.3,15,6.4,22.2,10.2c17.6,9.2,33.5,21,47.7,35
		c4,4,4.1,6.2,0,10.3c-5.8,5.9-11.7,11.7-17.6,17.6c-4,4-6.3,4.1-10.3,0.1c-16.3-15.9-35-27.9-56.1-36.3c-4.5-1.8-6.1-4.3-4.7-7.6
		c1.4-3.2,4.2-4,8.4-2.3c20.6,8.1,39,19.6,55.4,34.5C270,130.1,270.6,130.6,271.1,131z"/>
	<path class="st0" d="M148.7,227.5c18.7,0,34.1,15.3,34.2,33.8c0.1,19.5-14.9,34.5-34.4,34.4c-19.4-0.1-34.2-15.1-34.1-34.5
		C114.6,242.7,130,227.5,148.7,227.5z M125.4,261.9c0.1,12.9,10.5,23.4,23.3,23.4c13,0,23.4-10.6,23.3-23.7
		c-0.1-12.9-10.5-23.5-23.3-23.5C135.8,238.1,125.3,248.8,125.4,261.9z"/>
	<path class="st0" d="M139.7,68.4c6-6,11.6-11.6,17.2-17.3c4.5-4.5,9-9.1,13.6-13.6c3-3,6.1-3.2,8.4-0.8c2.3,2.4,2,5.4-1,8.4
		c-11.2,11.2-22.3,22.4-33.5,33.5c-3.2,3.2-6,3.2-9.2,0.1c-5.4-5.4-10.8-10.8-16.2-16.2c-2.8-2.8-3-5.8-0.6-8.2
		c2.3-2.2,5.4-2,8.2,0.8C131,59.5,135.2,63.8,139.7,68.4z"/>
</g>
</svg>
