<svg width="668" height="382" viewBox="0 0 668 382" fill="none" xmlns="http://www.w3.org/2000/svg">
<g clip-path="url(#clip0_8_1093)">
<path d="M18.6663 229.981C27.7829 204.849 38.2843 182.262 50.1707 162.22C61.0448 143.605 73.3919 125.768 87.1095 108.859C98.7475 94.5204 111.554 81.0378 125.417 68.5306C136.677 58.3567 148.549 48.7877 160.977 39.8701C170.132 33.2841 179.662 27.1648 189.528 21.5391C197.654 17.0358 203.446 13.9378 206.905 12.2452C212.203 9.69331 217.638 7.39586 223.188 5.36194C228.909 3.26738 234.811 1.63301 240.831 0.476735C248.707 -0.543691 255.457 0.052078 261.082 2.26402C266.433 4.25959 271.109 7.5583 274.619 11.8145C278.057 16.1055 280.525 21.0006 281.875 26.2043C283.318 31.5288 283.872 37.0283 283.519 42.5097C282.83 50.6199 281.085 58.6221 278.321 66.3401C275.536 73.9763 271.961 81.3431 267.649 88.3373C249.912 116.259 224.632 139.371 194.323 155.374C191.826 156.712 189.219 157.861 186.525 158.811C183.88 159.745 181.186 160.553 178.452 161.231C175.513 162.083 172.364 162.083 169.424 161.231C166.479 160.373 163.895 158.681 162.031 156.391C160.118 154.085 159.021 151.283 158.89 148.371C158.831 145.416 159.533 142.49 160.938 139.838C162.443 136.358 164.323 133.03 166.55 129.903C168.834 126.677 170.977 123.536 172.978 120.481C174.291 118.275 175.66 116.152 177.084 114.111C177.818 113.022 178.296 111.8 178.484 110.526C178.672 109.253 178.568 107.956 178.177 106.723C177.448 105.196 178.088 104.093 180.096 103.415C181.363 102.565 182.64 103.075 183.926 104.945C185.935 106.815 186.801 108.724 186.525 110.674C186.231 112.686 185.533 114.629 184.468 116.402C183.084 119.489 181.533 122.508 179.821 125.448C178.18 128.241 176.447 131.085 174.623 133.981C173.679 136.415 172.489 138.76 171.068 140.984C169.604 143.277 168.409 145.711 167.505 148.243C166.586 150.113 166.586 151.387 167.505 152.065C168.423 152.743 169.792 152.829 171.61 152.322C173.698 151.781 175.755 151.142 177.773 150.406C179.821 149.673 181.797 148.778 183.68 147.73C215.577 131.607 242.299 107.884 261.112 78.9884C265.493 71.8189 269.06 64.244 271.754 56.3863C274.494 48.4532 275.698 40.1297 275.308 31.8044C275.308 23.4822 273.53 17.2404 269.972 13.0793C266.415 8.91817 260.541 7.01175 252.35 7.36004C246.874 7.73422 241.481 8.81063 236.322 10.5588C230.94 12.3406 225.68 14.425 220.57 16.8005C214.722 19.3485 205.861 24.2368 193.988 31.4653C182.115 38.6938 168.755 48.4704 153.908 60.7949C139.075 73.0584 123.648 88.1051 107.627 105.935C91.6054 123.765 76.4669 144.565 62.2112 168.334C56.7373 177.683 51.8574 186.769 47.5715 195.592C43.2856 204.415 39.3968 213.373 35.9051 222.465C32.4396 231.551 29.2465 240.848 26.3258 250.356C23.4051 259.864 20.5796 270.059 17.8492 280.941C16.9303 285.182 16.018 290.15 15.1122 295.844C14.2065 301.539 13.478 307.439 12.9266 313.543C12.3753 319.653 12.0471 325.638 11.9421 331.498C11.8132 336.56 12.0434 341.624 12.6313 346.658C13.251 350.995 14.3497 355.261 15.9097 359.389C17.3352 362.655 19.4819 365.606 22.2106 368.05C25.2844 370.783 29.0449 372.756 33.1485 373.788C37.5761 375.046 42.2181 375.518 46.8332 375.181C51.5054 374.686 56.1191 373.793 60.6163 372.514C65.3101 371.149 69.8477 369.356 74.1632 367.161C79.1677 364.585 83.8867 361.555 88.2515 358.115C93.0822 354.388 98.4182 349.805 104.26 344.367C113.376 335.708 120.534 327.261 125.732 319.024C130.334 312.008 134.164 304.576 137.162 296.843C139.525 290.299 140.709 284.821 140.716 280.41C140.723 275.998 139.994 273.282 138.53 272.262C138.193 272.071 137.947 271.766 137.845 271.411C137.742 271.056 137.79 270.678 137.979 270.355C138.36 269.569 138.979 268.903 139.761 268.439C140.613 267.925 141.611 267.66 142.626 267.679C143.22 267.706 143.799 267.857 144.321 268.122C144.843 268.388 145.293 268.759 145.639 269.209C147.286 271.043 148.471 273.927 149.193 277.862C149.903 282.607 149.766 287.429 148.789 292.132C147.512 298.57 145.444 304.85 142.626 310.848C138.997 318.58 134.407 325.888 128.951 332.626C125.146 337.598 120.982 342.323 116.487 346.768C111.571 351.672 106.309 356.265 100.735 360.516C95.0591 364.86 89.0214 368.776 82.6792 372.23C76.5899 375.586 70.0613 378.199 63.2548 380.002C50.1842 383.601 36.1138 382.227 24.1304 376.18C18.4373 373.258 13.4929 369.221 9.63837 364.347C5.52318 359.117 2.80328 353.051 1.70322 346.649C0.0383474 335.938 -0.426873 325.095 0.315057 314.295C1.01206 303.417 2.38943 292.586 4.44016 281.858C6.44856 271.415 8.77528 261.694 11.4203 252.693C14.0654 243.693 16.4807 236.122 18.6663 229.981Z" fill="#75B5B0" fill-opacity="0.09"/>
<path d="M332.036 74.3414C328.58 71.8209 325.548 74.8821 323.323 76.4769C320.035 78.8691 316.796 81.3072 313.685 83.8093C302.008 93.3231 298.297 97.7318 287.9 108.941C286.807 110.069 277.199 120.856 276.086 122.277C275.299 123.294 271.498 127.547 267.344 132.973C260.432 142.139 254.023 151.491 248.116 161.029C242.209 170.567 236.771 180.292 231.803 190.203C227.248 200.059 223.234 209.908 219.762 219.752C216.261 229.857 213.983 240.294 212.969 250.869C212.254 256.643 213.76 260.921 217.488 263.701C221.216 266.481 225.988 267.034 231.803 265.36C234.575 264.384 237.06 262.814 239.059 260.777C240.95 258.764 243.007 256.892 245.212 255.177C256.882 246.867 266.55 240.625 274.216 236.452C281.882 232.278 288.445 228.756 293.906 225.884C294.585 225.423 295.183 224.866 295.678 224.234C295.954 223.812 295.678 223.171 294.693 222.318L294.28 221.558C294.369 221.732 294.044 221.979 293.295 222.318C291.418 222.328 289.559 222.674 287.822 223.336C286.251 223.862 284.842 224.736 283.716 225.884C280.438 227.415 277.464 228.817 274.856 230.091C272.247 231.365 269.431 232.758 266.507 234.289C263.583 235.819 260.354 237.643 256.8 239.788C253.246 241.933 248.924 244.756 243.804 248.321C240.941 249.985 238.198 251.822 235.593 253.82C232.883 255.876 230.053 257.792 227.117 259.558C224.38 260.575 222.499 260.74 221.505 260.062C220.511 259.384 219.999 257.771 219.999 255.223C220.205 251.187 221.157 247.215 222.814 243.482C228.602 222.81 236.91 202.821 247.575 183.906C258.267 165.097 270.574 147.123 284.376 130.159C286.571 127.41 307.167 104.184 319.483 95.0188C329.634 86.504 336.23 77.3935 332.036 74.3414Z" fill="#75B5B0" fill-opacity="0.09"/>
<path d="M349.452 243.738C346.528 244.554 343.458 244.813 340.424 244.499C337.388 244.032 334.548 242.799 332.213 240.934C331.809 239.832 331.306 238.765 330.707 237.744C330.067 236.644 329.388 235.581 328.659 234.564C328.185 234.756 327.669 234.844 327.153 234.82C326.636 234.796 326.12 234.884 325.646 235.077C323.638 236.947 321.669 238.942 319.739 241.062C317.81 243.182 315.755 245.431 313.576 247.808C310.291 251.153 306.168 253.691 301.575 255.195C299.567 254.91 297.627 254.308 295.835 253.417C294.082 252.469 292.584 251.162 291.454 249.595C290.185 247.9 289.43 245.918 289.269 243.857C289.091 241.866 289.091 239.864 289.269 237.872C289.911 235.275 290.876 232.756 292.144 230.366C293.686 227.219 295.465 223.858 297.48 220.284C299.495 216.709 301.638 213.226 303.908 209.835C306.186 206.444 308.155 203.557 309.816 201.174C311.027 201.137 312.236 201.312 313.379 201.687C314.381 202.262 315.223 203.046 315.841 203.978C315.843 204.332 315.934 204.68 316.107 204.996C316.197 205.167 316.221 205.363 316.172 205.549C316.124 205.735 316.006 205.899 315.841 206.013C315.289 207.205 314.334 209.038 312.966 211.512C311.597 213.987 310.131 216.563 308.585 219.285C307.039 222.007 305.572 224.628 304.204 227.176C303.181 228.976 302.312 230.849 301.605 232.776C300.898 234.416 300.396 236.126 300.108 237.872C299.833 239.577 300.512 241.355 302.156 243.225C306.361 241.484 309.951 238.672 312.513 235.114C315.119 231.478 317.953 227.99 321 224.665C323.914 221.439 326.831 218.078 329.752 214.583C332.673 211.088 335.59 207.727 338.504 204.501C340.513 203.48 342.199 203.309 343.565 203.987C345.324 205.01 346.793 206.412 347.847 208.075C346.924 212.516 345.549 216.864 343.742 221.063C341.885 225.458 340.779 230.097 340.463 234.811C341.41 235.344 342.397 235.812 343.417 236.213C344.358 236.618 345.408 236.749 346.429 236.589C348.989 235.92 351.224 235.315 353.134 234.811C355.044 234.307 357.072 233.748 359.159 233.152C361.246 232.556 363.53 231.796 365.992 230.861C368.453 229.926 371.505 228.698 375.157 227.194C376.979 226.351 379.174 225.453 381.724 224.518C384.274 223.583 386.745 222.74 389.118 221.97C391.215 221.277 393.364 220.726 395.547 220.32C397.457 219.981 398.776 219.981 399.485 220.32C400.36 220.296 401.234 220.382 402.084 220.577C402.714 220.742 403.127 221.494 403.314 222.868C402.329 223.916 400.968 224.594 399.485 224.775C397.71 224.968 395.966 225.353 394.286 225.92C393.131 226.456 391.94 226.924 390.723 227.323C389.443 227.744 387.769 228.34 385.8 229.101C383.831 229.862 381.281 230.806 378.278 231.906C375.276 233.005 371.387 234.582 366.651 236.617C365.736 236.965 364.456 237.432 362.822 238.019C361.187 238.606 359.484 239.256 357.761 239.935C356.038 240.613 354.374 241.291 352.839 241.969C351.652 242.457 350.518 243.05 349.452 243.738Z" fill="#75B5B0" fill-opacity="0.09"/>
<path d="M418.673 209.093C421.06 208.973 423.372 208.271 425.377 207.058C427.392 205.819 429.548 204.792 431.806 203.997C435.617 202.537 439.733 201.895 443.847 202.118C447.428 202.268 450.907 203.274 453.949 205.04C456.991 206.806 459.493 209.272 461.213 212.2C463.202 215.485 464.373 219.143 464.64 222.905C465.007 224.621 465.143 226.373 465.043 228.12C464.949 229.893 464.619 231.648 464.059 233.345C463.698 236.229 464.38 237.799 466.106 238.056C468.362 238.295 470.644 238.23 472.88 237.863C475.617 237.698 478.899 237.316 482.725 236.718L494.214 234.939C498.041 234.328 501.552 233.818 504.748 233.409C507.147 233.051 509.567 232.836 511.994 232.767C513.461 232.767 514.554 233.583 515.283 235.187C516.011 236.791 515.184 237.781 512.821 238.12C509.172 238.633 505.251 239.311 501.057 240.155L488.602 242.703L476.975 245.122C473.333 245.892 470.232 246.525 467.672 247.038C465.268 247.449 462.927 248.133 460.702 249.073C458.523 250.166 456.757 251.855 455.641 253.912C452.479 258.393 448.909 262.613 444.969 266.524C441.093 270.414 436.676 273.805 431.836 276.606C425.272 280.688 419.664 282.304 415.01 281.454C410.357 280.605 406.025 276.939 402.015 270.456C401.464 270.456 401.188 270.291 401.188 269.952V269.695C399.124 268.62 397.42 267.034 396.265 265.112C395.365 263.439 394.808 261.623 394.621 259.76C394.444 257.847 394.537 255.921 394.897 254.031C395.264 252.076 395.54 250.081 395.724 248.046C401.783 209.415 416.804 172.475 439.741 139.792C440.352 138.855 441.037 137.96 441.789 137.116C442.632 136.127 443.155 134.935 443.295 133.679C443.251 133.307 443.117 132.95 442.904 132.632C442.691 132.315 442.404 132.046 442.065 131.846C441.351 131.492 440.55 131.318 439.741 131.342C426.234 131.342 412.828 131.724 399.524 132.487C386.011 133.279 372.623 135.37 359.573 138.729C357.1 139.215 354.676 139.896 352.327 140.764C350.043 141.616 347.631 142.597 345.071 143.569C342.708 144.586 340.877 143.908 339.597 141.525C339.324 141.113 339.203 140.629 339.253 140.148C339.303 139.666 339.521 139.213 339.873 138.857C340.644 138.061 341.574 137.411 342.61 136.942C355.016 131.754 368.216 128.402 381.734 127.006C392.13 125.65 402.438 124.761 412.657 124.339C422.877 123.918 433.106 123.569 443.345 123.294C446.3 123.352 449.235 122.831 451.959 121.764C454.612 120.607 456.916 118.856 458.664 116.668C471.239 102.073 485.662 88.9442 501.618 77.5677C517.764 66.2242 535.787 57.4046 554.978 51.4552C566.866 47.7549 579.092 45.0705 591.504 43.4354C604.002 41.8252 616.694 42.0386 629.122 44.0678C632.587 44.7552 636.102 45.5984 639.656 46.625C643.143 47.6148 646.493 48.9805 649.639 50.6944C654.422 53.3243 658.593 56.8175 661.906 60.969C664.911 64.7482 666.881 69.1526 667.646 73.8007C668.371 78.4563 667.95 83.2045 666.415 87.6865C664.721 92.5826 661.872 97.064 658.076 100.802C652.685 106.179 646.46 110.773 639.607 114.431C632.677 118.122 625.502 121.397 618.125 124.239C605.622 128.802 592.581 131.965 579.276 133.661C565.861 135.368 552.303 135.886 538.783 135.21C528.019 134.867 517.258 134.443 506.501 133.936C495.744 133.428 484.891 132.747 473.943 131.892C468.647 131.556 464.357 132.237 461.076 133.936C457.378 136.013 454.279 138.898 452.048 142.34C445.76 151.36 439.964 160.669 434.681 170.231C429.412 179.793 424.706 189.615 420.583 199.652C420.043 201.171 419.405 202.659 418.673 204.107C417.94 205.578 417.746 207.234 418.121 208.818V209.074L418.673 209.093ZM405.264 256.469C411.27 252.669 417.637 249.386 424.285 246.662C430.997 243.98 438.182 242.47 445.481 242.208C446.992 242.012 448.384 241.335 449.419 240.292C450.246 239.376 451.103 238.303 452.018 237.112C452.934 234.738 453.84 232.272 454.755 229.724C455.651 227.252 456.204 224.683 456.399 222.08C456.951 217.155 456.176 213.795 454.076 211.998C451.976 210.202 448.28 209.734 442.99 210.596C437.318 211.552 431.89 213.495 426.992 216.324C422.273 219.023 418.142 222.524 414.814 226.645C407.86 235.273 404.461 245.936 405.234 256.698L404.959 256.442L405.264 256.469ZM415.109 270.217C425.505 268.006 433.621 262.317 439.456 253.151C434.142 253.88 429.056 255.658 424.54 258.367C420.268 261.012 417.127 264.966 415.119 270.227L415.109 270.217ZM470.094 121.965C470.884 122.837 471.931 123.475 473.106 123.799C474.007 123.97 474.924 124.056 475.843 124.055C487.336 124.397 498.736 124.822 510.045 125.329C521.354 125.836 532.755 126.261 544.247 126.603C557.705 126.634 571.132 125.405 584.326 122.937C603.751 119.09 622.223 111.873 638.78 101.664C643.976 98.4213 648.622 94.473 652.563 89.9503C659.684 82.6179 662.464 75.9515 660.902 69.9512C659.34 63.9508 653.551 59.2398 643.535 55.818C635.874 53.3027 627.847 51.8842 619.729 51.611C611.696 51.3471 603.654 51.7181 595.688 52.72C570.34 55.7752 547.634 62.8204 527.569 73.8557C507.505 84.891 489.275 99.3205 472.88 117.144C472.381 117.812 471.835 118.449 471.246 119.051C470.477 119.853 470.068 120.9 470.104 121.975L470.094 121.965Z" fill="#75B5B0" fill-opacity="0.09"/>
</g>
<defs>
<clipPath id="clip0_8_1093">
<rect width="668" height="382" fill="white"/>
</clipPath>
</defs>
</svg>
