<?xml version="1.0" encoding="utf-8"?>
<!-- Generator: Adobe Illustrator 25.4.1, SVG Export Plug-In . SVG Version: 6.00 Build 0)  -->
<svg version="1.1" id="Capa_1" xmlns="http://www.w3.org/2000/svg" xmlns:xlink="http://www.w3.org/1999/xlink" x="0px" y="0px"
	 viewBox="0 0 98 87" style="enable-background:new 0 0 98 87;" xml:space="preserve">
<style type="text/css">
	.st0{opacity:0.92;}
	.st1{fill:#202E56;}
	.st2{fill:#75B5B0;}
	.st3{fill:#FFFFFF;}
</style>
<g class="st0">
	<g>
		<path class="st1" d="M10.25,25.52c1.24,0,2.35,0.22,3.33,0.66c0.98,0.44,1.76,1.05,2.31,1.82c0.56,0.77,0.84,1.62,0.84,2.54
			c0,1.03-0.39,1.95-1.16,2.77c0.63,0.41,1.14,0.91,1.52,1.5c0.38,0.59,0.57,1.18,0.57,1.79c0,0.9-0.27,1.73-0.81,2.5
			c-0.54,0.77-1.29,1.39-2.25,1.85c-0.96,0.46-2.05,0.69-3.26,0.69H1.29V25.52H10.25z M6.68,29.46v2.02h3.57
			c0.45,0,0.8-0.11,1.04-0.32c0.24-0.21,0.36-0.51,0.36-0.9c0-0.25-0.13-0.44-0.39-0.59c-0.26-0.14-0.6-0.22-1.01-0.22H6.68z
			 M11.22,37.51h0.14l0.23-0.06c0.29-0.05,0.5-0.15,0.62-0.29c0.12-0.14,0.19-0.33,0.19-0.58c0-0.28-0.11-0.5-0.33-0.67
			c-0.22-0.17-0.5-0.26-0.85-0.26H6.68v1.86H11.22z"/>
		<g>
			<g>
				<g>
					<path class="st2" d="M33.42,17.55c0.02-0.02,0.03-0.05,0.03-0.07v-0.4v-0.4c0-0.03-0.01-0.05-0.03-0.07
						c-0.02-0.02-0.05-0.03-0.07-0.03h-2.56h-2.56c-0.03,0-0.05,0.01-0.07,0.03c-0.02,0.02-0.03,0.05-0.03,0.07v0.4v0.4
						c0,0.03,0.01,0.05,0.03,0.07c0.02,0.02,0.05,0.03,0.07,0.03h1.01h1.01v2.21V22c0,0.03,0.01,0.05,0.03,0.07
						c0.02,0.02,0.05,0.03,0.07,0.03h0.45h0.45c0.03,0,0.05-0.01,0.07-0.03c0.02-0.02,0.03-0.05,0.03-0.07v-2.21v-2.21h0.99h0.99
						C33.38,17.58,33.4,17.57,33.42,17.55z"/>
				</g>
				<g>
					<path class="st2" d="M42.01,20.96c0.13-0.15,0.23-0.31,0.33-0.48c0.09-0.17,0.16-0.35,0.21-0.54c0.05-0.19,0.07-0.38,0.07-0.58
						c0-0.21-0.02-0.41-0.07-0.6s-0.12-0.38-0.22-0.56c-0.1-0.18-0.21-0.34-0.34-0.5c-0.13-0.15-0.28-0.29-0.44-0.42
						c-0.16-0.13-0.33-0.24-0.51-0.34c-0.18-0.1-0.37-0.18-0.57-0.25c0,0,0,0,0,0c0,0,0,0,0,0c-0.44-0.15-0.91-0.22-1.38-0.22
						c-0.47,0-0.94,0.07-1.37,0.22c-0.2,0.07-0.39,0.15-0.57,0.25c-0.18,0.1-0.35,0.21-0.51,0.34c-0.16,0.13-0.31,0.27-0.44,0.42
						c-0.13,0.15-0.24,0.32-0.34,0.5c-0.1,0.18-0.17,0.36-0.22,0.56c-0.05,0.19-0.07,0.39-0.07,0.6c0,0.2,0.02,0.39,0.07,0.58
						c0.05,0.19,0.12,0.37,0.21,0.54c0.09,0.17,0.2,0.33,0.33,0.48c0.13,0.15,0.27,0.29,0.42,0.41c0.15,0.12,0.32,0.24,0.49,0.33
						c0.17,0.1,0.35,0.18,0.54,0.25c0.23,0.09,0.47,0.15,0.72,0.19c0.24,0.04,0.49,0.07,0.74,0.07c0.26,0,0.51-0.02,0.75-0.07
						s0.48-0.11,0.72-0.19c0.19-0.07,0.37-0.15,0.55-0.25c0.17-0.1,0.34-0.21,0.49-0.33C41.74,21.24,41.88,21.11,42.01,20.96z
						 M41.41,19.36c0,0.2-0.03,0.38-0.09,0.55c-0.06,0.17-0.15,0.32-0.26,0.46c-0.12,0.14-0.25,0.27-0.4,0.37
						c-0.15,0.11-0.32,0.2-0.49,0.27c-0.37,0.15-0.73,0.22-1.1,0.22s-0.73-0.07-1.08-0.22c-0.18-0.07-0.34-0.16-0.49-0.27
						c-0.15-0.11-0.28-0.23-0.39-0.37c-0.11-0.14-0.2-0.29-0.25-0.46c-0.06-0.17-0.09-0.35-0.09-0.55c0-0.2,0.03-0.38,0.09-0.55
						c0.06-0.17,0.14-0.33,0.25-0.47c0.11-0.15,0.25-0.27,0.39-0.39c0.15-0.11,0.31-0.21,0.48-0.28c0.18-0.08,0.36-0.13,0.54-0.17
						c0.18-0.04,0.37-0.06,0.55-0.06c0.18,0,0.36,0.02,0.55,0.06c0.18,0.04,0.37,0.1,0.55,0.17c0.18,0.08,0.34,0.17,0.49,0.28
						c0.15,0.11,0.28,0.24,0.4,0.39c0.11,0.14,0.2,0.3,0.26,0.47C41.39,18.98,41.41,19.17,41.41,19.36z"/>
				</g>
				<g>
					<path class="st2" d="M49.93,17.55c0.02-0.02,0.03-0.05,0.03-0.07v-0.4v-0.4c0-0.03-0.01-0.05-0.03-0.07
						c-0.02-0.02-0.05-0.03-0.07-0.03H47.3h-2.56c-0.03,0-0.05,0.01-0.07,0.03c-0.02,0.02-0.03,0.05-0.03,0.07v0.4v0.4
						c0,0.03,0.01,0.05,0.03,0.07c0.02,0.02,0.05,0.03,0.07,0.03h1.01h1.01v2.21V22c0,0.03,0.01,0.05,0.03,0.07
						c0.02,0.02,0.05,0.03,0.07,0.03h0.45h0.45c0.03,0,0.06-0.01,0.07-0.03c0.02-0.02,0.03-0.05,0.03-0.07v-2.21v-2.21h0.99h0.99
						C49.89,17.58,49.91,17.57,49.93,17.55z"/>
				</g>
				<g>
					<path class="st2" d="M57.39,21.02h-1.9h-1.9v-0.6v-0.6h1.24h1.24c0.03,0,0.05-0.01,0.07-0.03c0.02-0.02,0.03-0.05,0.03-0.07
						v-0.39v-0.39c0-0.03-0.01-0.05-0.03-0.07c-0.02-0.02-0.05-0.03-0.07-0.03h-1.24h-1.24v-0.6v-0.6h1.87h1.87
						c0.03,0,0.05-0.01,0.07-0.03c0.02-0.02,0.03-0.05,0.03-0.07V17.1v-0.43c0-0.03-0.01-0.05-0.03-0.07
						c-0.02-0.02-0.05-0.03-0.07-0.03h-2.37h-2.37c-0.03,0-0.05,0.01-0.07,0.03c-0.02,0.02-0.03,0.05-0.03,0.07v2.66V22
						c0,0.03,0.01,0.05,0.03,0.07c0.02,0.02,0.05,0.03,0.07,0.03h2.41h2.41c0.03,0,0.05-0.01,0.07-0.03
						c0.02-0.02,0.03-0.05,0.03-0.07v-0.44v-0.44c0-0.03-0.01-0.05-0.03-0.07C57.45,21.03,57.42,21.02,57.39,21.02z"/>
				</g>
				<g>
					<path class="st2" d="M67.95,22.1c0.02,0,0.03,0,0.04-0.01c0.01-0.01,0.03-0.01,0.04-0.03c0.01-0.01,0.02-0.02,0.02-0.04
						c0-0.01,0.01-0.03,0-0.04l-0.35-2.66l-0.35-2.66c0-0.03-0.02-0.05-0.03-0.06c-0.02-0.02-0.04-0.03-0.07-0.03h-0.71h-0.71
						c-0.02,0-0.04,0.01-0.06,0.02c-0.02,0.01-0.03,0.03-0.04,0.05l-0.93,2.26l-0.93,2.26l-0.94-2.26l-0.94-2.26
						c-0.01-0.02-0.02-0.04-0.04-0.05c-0.02-0.01-0.04-0.02-0.06-0.02h-0.72h-0.72c-0.03,0-0.05,0.01-0.07,0.03
						c-0.02,0.02-0.03,0.04-0.03,0.07l-0.33,2.66l-0.33,2.66c0,0.01,0,0.03,0,0.04c0,0.01,0.01,0.03,0.02,0.04
						c0.01,0.01,0.02,0.02,0.04,0.03c0.01,0.01,0.03,0.01,0.04,0.01h0.42h0.42c0.03,0,0.05-0.01,0.07-0.03
						c0.02-0.02,0.03-0.04,0.03-0.06l0.29-2.13l0.29-2.13l0.89,2.14l0.89,2.14c0.01,0.02,0.02,0.04,0.04,0.05
						c0.02,0.01,0.04,0.02,0.06,0.02h0.68h0.68c0.02,0,0.04-0.01,0.06-0.02c0.02-0.01,0.03-0.03,0.04-0.05l0.86-2.14l0.86-2.14
						l0.29,2.13l0.29,2.13c0,0.03,0.02,0.05,0.03,0.06c0.02,0.02,0.04,0.03,0.07,0.03h0.44H67.95z"/>
				</g>
				<g>
					<path class="st2" d="M37.73,15.47h1.36h1.36c0.03,0,0.05-0.01,0.07-0.03c0.02-0.02,0.03-0.05,0.03-0.07V15v-0.37
						c0-0.03-0.01-0.05-0.03-0.07c-0.02-0.02-0.05-0.03-0.07-0.03h-1.36h-1.36c-0.03,0-0.05,0.01-0.07,0.03
						c-0.02,0.02-0.03,0.05-0.03,0.07V15v0.37c0,0.03,0.01,0.05,0.03,0.07C37.68,15.46,37.7,15.47,37.73,15.47z"/>
				</g>
			</g>
		</g>
		<g>
			<path class="st1" d="M27.07,41.62h8.85v-4.38h-4.43c-0.26,0.22-0.52,0.44-0.78,0.68C29.54,38.96,28.32,40.21,27.07,41.62z"/>
			<path class="st1" d="M26.97,37.86c0.22-0.21,0.44-0.42,0.65-0.62h-2.23v-1.63h4.09c0.4-0.33,0.78-0.64,1.16-0.92
				c0.56-0.43,1.1-0.81,1.59-1.16v-2.01h-6.83v-1.67h10.32v-4.34H20.08v16.11h3.49C24.7,40.21,25.84,38.94,26.97,37.86z"/>
			<path class="st1" d="M31.51,35.61c0.19-0.16,0.39-0.31,0.57-0.46c-0.2,0.15-0.41,0.3-0.62,0.46H31.51z"/>
		</g>
		<g>
			<path class="st1" d="M68.56,41.95c1.64,0,3.13-0.22,4.48-0.65c1.35-0.43,2.57-1.1,3.65-2.01l0.25-0.21l-2.33-1.79
				c-2.25,0.36-4.3,1.07-6.1,2.14c-1.05,0.62-2.05,1.35-3,2.17C66.49,41.83,67.5,41.95,68.56,41.95z"/>
			<path class="st1" d="M60.96,39.47c0.6,0.48,1.28,0.89,2.02,1.24c0.71-0.68,1.45-1.32,2.21-1.9c0.51-0.38,1.04-0.74,1.59-1.08
				c-0.34-0.09-0.67-0.2-0.98-0.35c-0.85-0.38-1.51-0.89-2-1.54c-0.49-0.65-0.73-1.35-0.73-2.11c0-0.77,0.24-1.5,0.73-2.19
				c0.49-0.69,1.16-1.24,2-1.66c0.85-0.42,1.77-0.63,2.78-0.63c0.77,0,1.51,0.13,2.21,0.38c0.7,0.25,1.46,0.62,2.27,1.08l0.27,0.17
				l3.68-2.5l-0.27-0.23c-1.05-0.89-2.28-1.6-3.71-2.13c-1.42-0.52-2.91-0.78-4.45-0.78c-1.45,0-2.85,0.25-4.21,0.74
				c-1.29,0.47-2.43,1.1-3.4,1.9c-0.97,0.8-1.72,1.7-2.24,2.7c-0.52,1.01-0.78,2.05-0.78,3.14c0,1.09,0.26,2.12,0.78,3.11
				C59.24,37.83,59.98,38.7,60.96,39.47z"/>
		</g>
		<g>
			<path class="st1" d="M38.84,41.62c0.65-0.78,1.25-1.61,1.8-2.5c0.41-0.72,0.76-1.51,1.02-2.32c0.25-0.79,0.37-1.62,0.33-2.46
				l0-0.02c0-0.65-0.1-1.16-0.3-1.5l-3.74,8.81H38.84z"/>
			<path class="st1" d="M50.77,25.52h-5.99l-2.38,5.6c0.24,0.19,0.45,0.41,0.63,0.65c0.39,0.52,0.67,1.12,0.84,1.79
				c0.16,0.65,0.22,1.31,0.18,1.97c-0.08,0.97-0.27,1.89-0.56,2.75c-0.29,0.86-0.67,1.7-1.13,2.51c-0.17,0.29-0.35,0.57-0.53,0.84
				h1.74l1.57-3.63h5.74l1.57,3.63h5.76L50.77,25.52z M46.64,34.23l1.24-3.08l1.26,3.08H46.64z"/>
		</g>
		<g>
			<path class="st1" d="M79.82,37.53v3.34c0.21-0.19,0.4-0.4,0.58-0.62l0.02-0.02c0.57-0.63,0.81-1.18,0.7-1.62
				C81.02,38.18,80.58,37.82,79.82,37.53z"/>
			<path class="st1" d="M91.24,25.52v5.6h-5.88v-5.6h-5.53v9.84c0.38,0.12,0.74,0.28,1.07,0.48c0.59,0.36,1.08,0.79,1.44,1.29
				c0.37,0.51,0.61,1.08,0.69,1.67c0.09,0.59,0.04,1.19-0.15,1.79c-0.11,0.36-0.28,0.71-0.49,1.04h2.97v-5.86h5.88v5.86h5.47V25.52
				H91.24z"/>
		</g>
	</g>
	<g>
		<path class="st2" d="M16.57,55.91c0.93-2.74,1.99-5.2,3.19-7.38c1.2-2.18,2.45-4.12,3.75-5.81c1.29-1.69,2.59-3.16,3.89-4.4
			c1.29-1.24,2.5-2.28,3.61-3.12c1.11-0.84,2.08-1.51,2.9-2c0.82-0.49,1.41-0.83,1.76-1.01c0.54-0.28,1.09-0.53,1.65-0.75
			c0.56-0.22,1.16-0.4,1.79-0.53c0.8-0.11,1.48-0.05,2.05,0.19c0.57,0.24,1.03,0.59,1.37,1.04c0.34,0.45,0.59,0.98,0.74,1.57
			c0.15,0.59,0.2,1.18,0.17,1.78c-0.07,0.91-0.25,1.77-0.53,2.6c-0.28,0.82-0.64,1.62-1.08,2.4c-1.83,3.07-4.31,5.51-7.44,7.3
			c-0.26,0.15-0.52,0.27-0.79,0.37c-0.27,0.1-0.54,0.19-0.82,0.26c-0.31,0.09-0.62,0.09-0.92,0c-0.3-0.09-0.55-0.27-0.75-0.53
			c-0.2-0.28-0.31-0.57-0.32-0.87c-0.01-0.31,0.06-0.62,0.21-0.93c0.15-0.37,0.34-0.73,0.57-1.08c0.23-0.35,0.45-0.69,0.65-1.03
			c0.13-0.24,0.27-0.47,0.42-0.69c0.15-0.22,0.18-0.49,0.11-0.8c-0.07-0.17-0.01-0.29,0.19-0.36c0.13-0.09,0.26-0.04,0.39,0.17
			c0.2,0.2,0.29,0.41,0.26,0.62c-0.03,0.21-0.1,0.42-0.21,0.62c-0.15,0.35-0.31,0.68-0.47,0.99c-0.17,0.31-0.34,0.62-0.53,0.93
			c-0.09,0.26-0.21,0.51-0.36,0.76c-0.15,0.25-0.27,0.51-0.36,0.79c-0.09,0.2-0.09,0.34,0,0.42c0.09,0.07,0.23,0.08,0.42,0.03
			c0.2-0.06,0.41-0.12,0.62-0.21c0.21-0.08,0.41-0.18,0.6-0.29c3.28-1.79,5.89-4.29,7.85-7.49c0.44-0.78,0.8-1.6,1.08-2.46
			c0.28-0.86,0.4-1.75,0.36-2.68c0-0.91-0.18-1.59-0.54-2.04c-0.36-0.45-0.96-0.66-1.79-0.62c-0.54,0.04-1.08,0.15-1.62,0.35
			c-0.55,0.19-1.08,0.42-1.6,0.68c-0.59,0.28-1.49,0.81-2.69,1.6c-1.2,0.79-2.56,1.85-4.07,3.19c-1.51,1.34-3.08,2.98-4.7,4.93
			c-1.63,1.94-3.16,4.21-4.61,6.8c-0.56,1.02-1.05,2.01-1.49,2.97c-0.43,0.96-0.83,1.94-1.18,2.93c-0.35,0.99-0.68,2-0.97,3.04
			c-0.3,1.04-0.58,2.15-0.86,3.33c-0.09,0.46-0.19,1-0.28,1.62c-0.09,0.62-0.17,1.26-0.22,1.93c-0.06,0.67-0.09,1.32-0.1,1.96
			c-0.01,0.64,0.01,1.19,0.07,1.65c0.09,0.59,0.2,1.05,0.33,1.39c0.13,0.33,0.34,0.65,0.64,0.94c0.28,0.28,0.65,0.49,1.11,0.62
			c0.46,0.14,0.93,0.19,1.39,0.15c0.48-0.06,0.95-0.15,1.4-0.29c0.45-0.14,0.91-0.33,1.37-0.58c0.46-0.25,0.94-0.58,1.43-0.99
			c0.49-0.41,1.03-0.91,1.62-1.5c0.93-0.94,1.65-1.86,2.18-2.76c0.53-0.9,0.91-1.7,1.15-2.41c0.24-0.71,0.36-1.31,0.36-1.79
			c0-0.48-0.07-0.78-0.22-0.89c-0.07-0.06-0.09-0.12-0.06-0.21c0.04-0.08,0.1-0.15,0.18-0.21c0.08-0.06,0.18-0.08,0.29-0.08
			c0.11,0,0.21,0.06,0.31,0.17c0.17,0.2,0.29,0.52,0.36,0.94c0.07,0.43,0.06,0.94-0.04,1.55c-0.1,0.61-0.31,1.29-0.62,2.04
			c-0.31,0.75-0.78,1.54-1.39,2.37c-0.35,0.5-0.77,1.01-1.26,1.54c-0.49,0.53-1.02,1.03-1.6,1.5c-0.57,0.47-1.18,0.9-1.83,1.28
			c-0.65,0.38-1.3,0.66-1.97,0.85c-0.7,0.2-1.4,0.26-2.08,0.18c-0.68-0.08-1.31-0.28-1.89-0.6c-0.57-0.31-1.06-0.75-1.47-1.29
			c-0.41-0.55-0.68-1.19-0.8-1.93c-0.17-1.13-0.21-2.3-0.14-3.52c0.07-1.22,0.21-2.4,0.42-3.54c0.2-1.14,0.44-2.2,0.71-3.18
			C16.1,57.4,16.35,56.57,16.57,55.91z"/>
		<path class="st2" d="M48.36,38.95c-0.35-0.27-0.66,0.06-0.88,0.23c0,0,0,0,0,0c-0.33,0.26-0.66,0.53-0.98,0.8
			c-1.18,1.04-1.56,1.52-2.62,2.74c-0.11,0.12-1.09,1.29-1.2,1.45c-0.08,0.11-0.47,0.57-0.89,1.16c-0.7,1-1.35,2.02-1.95,3.06
			c-0.6,1.05-1.15,2.11-1.65,3.18c-0.46,1.07-0.87,2.15-1.22,3.22c-0.35,1.07-0.58,2.2-0.69,3.39c-0.07,0.63,0.08,1.1,0.46,1.4
			c0.38,0.31,0.86,0.37,1.46,0.18c0.31-0.13,0.56-0.3,0.74-0.5c0.18-0.2,0.38-0.41,0.62-0.61c1.18-0.91,2.17-1.59,2.94-2.04
			c0.78-0.45,1.44-0.84,2-1.15c0.09-0.07,0.15-0.13,0.18-0.18c0.03-0.05,0-0.12-0.1-0.21c-0.02-0.05-0.04-0.07-0.04-0.08
			c0.01,0.02-0.02,0.05-0.1,0.08c-0.19,0-0.37,0.04-0.56,0.11c-0.19,0.07-0.32,0.17-0.42,0.28c-0.33,0.17-0.63,0.32-0.9,0.46
			c-0.27,0.14-0.55,0.29-0.85,0.46c-0.3,0.17-0.62,0.37-0.99,0.6c-0.36,0.23-0.8,0.54-1.32,0.93c-0.3,0.19-0.57,0.38-0.83,0.6
			c-0.26,0.21-0.55,0.42-0.86,0.62c-0.28,0.11-0.47,0.13-0.57,0.06c-0.1-0.07-0.15-0.25-0.15-0.53c0.04-0.52,0.13-0.94,0.28-1.28
			c0.61-2.31,1.45-4.48,2.51-6.49c1.06-2.02,2.31-3.97,3.73-5.86c0.22-0.3,2.31-2.83,3.56-3.83C48.12,40.27,48.79,39.28,48.36,38.95
			z"/>
		<path class="st2" d="M50.13,57.41c-0.33,0.09-0.64,0.12-0.92,0.08c-0.28-0.04-0.56-0.17-0.83-0.39c-0.04-0.11-0.09-0.23-0.15-0.35
			c-0.07-0.12-0.13-0.24-0.21-0.35c-0.04,0.02-0.09,0.03-0.15,0.03c-0.06,0-0.12,0.01-0.15,0.03c-0.2,0.2-0.4,0.42-0.6,0.65
			c-0.19,0.23-0.4,0.48-0.62,0.74c-0.32,0.35-0.72,0.62-1.22,0.8c-0.22-0.04-0.42-0.1-0.58-0.19c-0.17-0.09-0.31-0.23-0.44-0.42
			c-0.13-0.18-0.2-0.39-0.22-0.62c-0.02-0.23-0.02-0.45,0-0.65c0.04-0.2,0.13-0.48,0.29-0.82c0.16-0.34,0.34-0.71,0.54-1.1
			c0.2-0.39,0.42-0.77,0.65-1.14c0.23-0.37,0.43-0.68,0.6-0.94c0.15,0,0.27,0.02,0.36,0.06c0.06,0.02,0.14,0.1,0.25,0.25
			c0,0.04,0.01,0.07,0.03,0.11c0.02,0.04,0.01,0.07-0.03,0.11c-0.06,0.13-0.15,0.33-0.29,0.6c-0.14,0.27-0.29,0.55-0.44,0.85
			c-0.16,0.3-0.31,0.58-0.44,0.86c-0.14,0.28-0.23,0.48-0.26,0.61c-0.07,0.19-0.12,0.37-0.15,0.56c-0.03,0.19,0.04,0.38,0.21,0.58
			c0.44-0.2,0.8-0.5,1.05-0.89c0.26-0.39,0.55-0.77,0.86-1.14c0.3-0.35,0.59-0.72,0.89-1.1c0.3-0.38,0.59-0.74,0.89-1.1
			c0.2-0.11,0.37-0.13,0.51-0.06c0.14,0.07,0.28,0.22,0.43,0.44c-0.09,0.48-0.23,0.95-0.42,1.42c-0.19,0.46-0.3,0.96-0.33,1.5
			c0.09,0.06,0.19,0.11,0.31,0.15c0.11,0.05,0.21,0.06,0.31,0.04c0.26-0.07,0.49-0.14,0.68-0.19c0.19-0.06,0.4-0.12,0.61-0.18
			c0.21-0.06,0.44-0.15,0.69-0.25c0.25-0.1,0.56-0.24,0.93-0.4c0.18-0.09,0.41-0.19,0.67-0.29c0.26-0.1,0.51-0.19,0.75-0.28
			c0.24-0.08,0.46-0.14,0.65-0.18c0.19-0.04,0.33-0.04,0.4,0c0.11,0,0.2,0.01,0.26,0.03c0.06,0.02,0.11,0.1,0.12,0.25
			c-0.13,0.13-0.26,0.2-0.39,0.21c-0.13,0.01-0.31,0.05-0.53,0.12c-0.11,0.06-0.23,0.11-0.36,0.15c-0.13,0.05-0.3,0.11-0.5,0.19
			c-0.2,0.08-0.46,0.19-0.76,0.31c-0.31,0.12-0.7,0.29-1.18,0.51c-0.09,0.04-0.22,0.09-0.39,0.15c-0.17,0.07-0.34,0.13-0.51,0.21
			c-0.18,0.07-0.34,0.15-0.5,0.22C50.32,57.29,50.2,57.35,50.13,57.41z"/>
		<path class="st2" d="M57.15,53.63c0.26-0.02,0.49-0.09,0.68-0.22c0.19-0.13,0.41-0.24,0.65-0.33c0.43-0.17,0.83-0.24,1.22-0.21
			c0.39,0.03,0.73,0.13,1.03,0.32c0.3,0.19,0.54,0.44,0.74,0.78c0.19,0.33,0.31,0.72,0.35,1.17c0.04,0.19,0.05,0.37,0.04,0.57
			c-0.01,0.19-0.04,0.38-0.1,0.57c-0.04,0.32,0.03,0.49,0.21,0.51c0.18,0.03,0.4,0.02,0.68-0.01c0.28-0.02,0.61-0.06,1-0.12
			c0.39-0.06,0.78-0.13,1.17-0.19c0.39-0.06,0.74-0.12,1.07-0.17c0.32-0.05,0.57-0.07,0.74-0.07c0.15,0,0.26,0.09,0.33,0.26
			c0.07,0.18-0.01,0.28-0.25,0.32c-0.37,0.06-0.77,0.13-1.19,0.22c-0.43,0.09-0.85,0.19-1.26,0.28c-0.42,0.09-0.81,0.18-1.18,0.26
			c-0.37,0.08-0.68,0.15-0.94,0.21c-0.28,0.06-0.51,0.13-0.71,0.22c-0.19,0.09-0.37,0.27-0.51,0.53c-0.32,0.48-0.68,0.94-1.08,1.37
			c-0.41,0.43-0.85,0.8-1.33,1.1c-0.67,0.44-1.24,0.62-1.71,0.53c-0.47-0.09-0.91-0.49-1.32-1.19c-0.06,0-0.08-0.02-0.08-0.06v-0.03
			c-0.24-0.15-0.41-0.31-0.5-0.5c-0.09-0.18-0.15-0.38-0.17-0.58c-0.02-0.2-0.01-0.41,0.03-0.62c0.04-0.21,0.06-0.43,0.08-0.65
			c0.65-4.29,2.14-8.22,4.47-11.8c0.06-0.09,0.12-0.19,0.21-0.29c0.08-0.1,0.13-0.23,0.15-0.37c-0.02-0.09-0.06-0.16-0.12-0.19
			c-0.07-0.04-0.14-0.06-0.24-0.06c-1.37,0-2.73,0.04-4.08,0.12c-1.35,0.08-2.7,0.31-4.05,0.68c-0.26,0.06-0.5,0.13-0.74,0.22
			c-0.23,0.09-0.48,0.19-0.74,0.31c-0.24,0.11-0.43,0.04-0.56-0.22c-0.06-0.11-0.05-0.21,0.03-0.29c0.07-0.08,0.17-0.15,0.28-0.21
			c1.22-0.56,2.54-0.92,3.97-1.08c1.05-0.15,2.1-0.25,3.14-0.29c1.04-0.05,2.07-0.09,3.11-0.12c0.33,0,0.62-0.06,0.87-0.17
			c0.25-0.11,0.48-0.3,0.68-0.56c1.31-1.63,2.77-3.05,4.36-4.26c1.59-1.21,3.4-2.16,5.41-2.85c1.22-0.41,2.46-0.7,3.71-0.87
			c1.25-0.18,2.52-0.15,3.82,0.07c0.35,0.07,0.71,0.17,1.07,0.28c0.36,0.11,0.7,0.26,1.01,0.44c0.52,0.31,0.93,0.69,1.25,1.12
			c0.31,0.44,0.51,0.9,0.58,1.4c0.07,0.5,0.03,1-0.12,1.51c-0.16,0.51-0.44,0.99-0.85,1.43c-0.56,0.59-1.18,1.09-1.87,1.49
			c-0.69,0.4-1.42,0.75-2.18,1.07c-1.28,0.5-2.59,0.84-3.94,1.03c-1.35,0.19-2.72,0.24-4.11,0.17c-1.09-0.04-2.18-0.08-3.28-0.14
			c-1.09-0.06-2.19-0.13-3.3-0.22c-0.54-0.04-0.97,0.04-1.3,0.22c-0.33,0.19-0.64,0.49-0.92,0.92c-0.65,1-1.24,2.01-1.76,3.04
			c-0.53,1.03-1,2.1-1.43,3.21c-0.06,0.17-0.12,0.33-0.19,0.49c-0.07,0.16-0.09,0.33-0.06,0.51v0.03H57.15z M55.79,58.79
			c0.63-0.43,1.27-0.78,1.93-1.07c0.66-0.29,1.37-0.45,2.15-0.49c0.18-0.04,0.32-0.11,0.4-0.21c0.08-0.1,0.17-0.22,0.26-0.35
			c0.09-0.26,0.18-0.53,0.28-0.8c0.09-0.28,0.15-0.56,0.17-0.83c0.06-0.54-0.02-0.9-0.24-1.1c-0.21-0.19-0.59-0.25-1.12-0.15
			c-0.59,0.11-1.13,0.32-1.62,0.62c-0.49,0.31-0.9,0.68-1.24,1.12c-0.33,0.44-0.59,0.94-0.76,1.5c-0.18,0.56-0.24,1.15-0.21,1.78
			l-0.03-0.03H55.79z M56.79,60.29c1.05-0.24,1.88-0.86,2.47-1.86c-0.57,0.09-1.08,0.28-1.51,0.57
			C57.31,59.29,56.99,59.72,56.79,60.29z M62.37,44.14c0.11,0.11,0.21,0.18,0.31,0.19c0.09,0.02,0.18,0.03,0.28,0.03
			c1.17,0.04,2.32,0.08,3.47,0.14c1.15,0.06,2.3,0.1,3.47,0.14c1.39,0,2.74-0.13,4.07-0.4c1.32-0.27,2.62-0.73,3.9-1.37
			c0.56-0.28,1.1-0.59,1.62-0.94c0.53-0.35,0.99-0.78,1.4-1.28c0.72-0.8,1-1.52,0.85-2.18c-0.16-0.66-0.74-1.17-1.76-1.54
			c-0.8-0.28-1.6-0.43-2.41-0.46c-0.81-0.03-1.63,0.01-2.44,0.12c-2.57,0.33-4.88,1.1-6.91,2.3c-2.04,1.2-3.89,2.78-5.55,4.72
			c-0.04,0.06-0.09,0.12-0.17,0.21C62.41,43.9,62.37,44.01,62.37,44.14z"/>
	</g>
</g>
</svg>
