<svg width="167" height="102" viewBox="0 0 167 102" fill="none" xmlns="http://www.w3.org/2000/svg">
<g opacity="0.92">
<path d="M15.6856 19.3452C17.8532 19.3452 19.7988 19.7332 21.5224 20.5091C23.2461 21.2851 24.595 22.3511 25.5693 23.7072C26.5254 24.9993 27.0404 26.5676 27.0377 28.1782C27.0377 29.9962 26.3635 31.6196 25.0151 33.0484C26.0753 33.7292 26.9802 34.628 27.6705 35.6856C28.3012 36.6128 28.6471 37.7059 28.6651 38.8292C28.6637 40.4067 28.1703 41.944 27.2544 43.2246C26.3151 44.5819 25.0023 45.6661 23.316 46.4772C21.6297 47.2883 19.7237 47.6951 17.598 47.6974H0V19.3452H15.6856ZM9.43268 26.2882V29.8503H15.6856C16.481 29.8503 17.0841 29.6621 17.5106 29.2876C17.9371 28.9132 18.1434 28.3839 18.1434 27.7053C18.1434 27.2693 17.9126 26.9247 17.4564 26.6697C16.9075 26.3945 16.2984 26.2632 15.6856 26.2882H9.43268ZM17.383 40.4643H17.6364L18.035 40.3553C18.5396 40.2592 18.9009 40.0892 19.1188 39.8454C19.3509 39.5594 19.467 39.1959 19.444 38.8274C19.4482 38.5984 19.3979 38.3716 19.2972 38.1661C19.1966 37.9605 19.0485 37.7822 18.8654 37.646C18.4368 37.3299 17.914 37.1699 17.383 37.1924H9.43268V40.4643H17.383Z" fill="#75B5B0"/>
<path d="M56.2307 5.32518C56.2482 5.30843 56.262 5.28822 56.2713 5.26583C56.2807 5.24344 56.2853 5.21935 56.2849 5.19507V3.77272C56.2849 3.74887 56.2801 3.72527 56.2708 3.70334C56.2615 3.68142 56.2478 3.66163 56.2306 3.64518C56.2135 3.62874 56.1931 3.61597 56.1709 3.60767C56.1487 3.59937 56.125 3.59571 56.1013 3.5969H47.1406C47.117 3.59571 47.0933 3.59937 47.0711 3.60767C47.0488 3.61597 47.0285 3.62874 47.0113 3.64518C46.9942 3.66163 46.9805 3.68142 46.9712 3.70334C46.9619 3.72527 46.9571 3.74887 46.9571 3.77272V5.19507C46.9575 5.24389 46.977 5.29058 47.0114 5.3251C47.0457 5.35963 47.0921 5.37922 47.1406 5.37968H50.6718V13.149C50.6718 13.1956 50.6902 13.2404 50.723 13.2733C50.7558 13.3063 50.8002 13.3248 50.8466 13.3248H52.4338C52.4802 13.3248 52.5247 13.3063 52.5575 13.2733C52.5902 13.2404 52.6087 13.1956 52.6087 13.149V5.37968H56.0908C56.1167 5.3816 56.1427 5.37771 56.1669 5.36828C56.1911 5.35885 56.2129 5.34413 56.2307 5.32518Z" fill="white"/>
<path d="M71.2642 11.3171C71.4831 11.0555 71.6757 10.7729 71.8394 10.4732C72.0019 10.1742 72.1264 9.85581 72.21 9.52557C72.2928 9.19386 72.3345 8.85312 72.3341 8.51111C72.3349 8.15553 72.2921 7.80121 72.2065 7.45621C72.1217 7.11384 71.9942 6.78361 71.8271 6.47339C71.6602 6.16025 71.4609 5.86561 71.2328 5.59431C71.0018 5.32112 70.7441 5.07196 70.4636 4.85061C69.895 4.40205 69.2549 4.05368 68.5704 3.82032C67.7895 3.55995 66.9721 3.42757 66.1493 3.42825C65.3326 3.42602 64.5212 3.55907 63.7475 3.82208C63.0638 4.05597 62.4244 4.40429 61.856 4.85237C61.575 5.07372 61.3167 5.32287 61.0851 5.59607C60.8574 5.86766 60.6582 6.16226 60.4908 6.47515C60.3237 6.78537 60.1962 7.11559 60.1115 7.45796C60.0258 7.80296 59.983 8.15728 59.9838 8.51286C59.9834 8.85487 60.0251 9.19562 60.108 9.52733C60.1922 9.85763 60.3173 10.176 60.4803 10.475C60.6433 10.7746 60.8354 11.0573 61.0537 11.3189C61.2757 11.5843 61.5227 11.8275 61.7914 12.045C62.0619 12.2637 62.3495 12.46 62.6514 12.6322C62.9535 12.8057 63.2692 12.9539 63.5954 13.0753C64.003 13.2285 64.4229 13.3462 64.8505 13.4269C65.2776 13.5029 65.7104 13.5411 66.1441 13.5412C66.5853 13.5415 67.0257 13.5032 67.4604 13.4269C67.8883 13.3475 68.3084 13.2298 68.7155 13.0753C69.0447 12.9542 69.3633 12.806 69.6682 12.6322C69.9721 12.4615 70.261 12.265 70.5318 12.045C70.7987 11.8267 71.044 11.5829 71.2642 11.3171ZM70.2154 8.50407C70.2186 8.83282 70.1666 9.15974 70.0616 9.47107C69.9608 9.76791 69.8061 10.0433 69.6053 10.2833C69.4009 10.532 69.166 10.7536 68.9061 10.9426C68.6348 11.1362 68.3413 11.2962 68.032 11.4191C67.4219 11.6718 66.7689 11.8031 66.1091 11.8059C65.46 11.8032 64.8177 11.6736 64.2177 11.4244C63.9155 11.3037 63.6295 11.1455 63.3664 10.9532C63.1097 10.7639 62.8788 10.5417 62.6794 10.2921C62.4841 10.0484 62.3338 9.77153 62.2354 9.47458C62.0361 8.84069 62.0361 8.16042 62.2354 7.52653C62.3333 7.22457 62.4837 6.94243 62.6794 6.69317C62.8784 6.43817 63.1093 6.21006 63.3664 6.01451C63.627 5.81477 63.9112 5.64824 64.2125 5.51871C64.517 5.38624 64.8337 5.28436 65.1582 5.21455C65.792 5.07833 66.4473 5.07833 67.0811 5.21455C67.4087 5.28507 67.7289 5.38692 68.0373 5.51871C68.3443 5.64774 68.6343 5.81426 68.9008 6.01451C69.1617 6.21054 69.3967 6.43918 69.6001 6.69492C69.7985 6.94382 69.9517 7.22592 70.0528 7.52829C70.1636 7.84412 70.2215 8.17623 70.2241 8.51111L70.2154 8.50407Z" fill="white"/>
<path d="M85.1336 5.32518C85.1511 5.30843 85.1649 5.28822 85.1742 5.26583C85.1836 5.24344 85.1882 5.21935 85.1878 5.19507V3.77272C85.1878 3.72609 85.1694 3.68137 85.1366 3.6484C85.1038 3.61543 85.0594 3.5969 85.013 3.5969H76.0401C76.0164 3.59571 75.9927 3.59937 75.9705 3.60767C75.9482 3.61597 75.9279 3.62874 75.9108 3.64518C75.8936 3.66163 75.8799 3.68142 75.8706 3.70334C75.8613 3.72527 75.8565 3.74887 75.8565 3.77272V5.19507C75.857 5.24389 75.8764 5.29058 75.9108 5.3251C75.9451 5.35963 75.9915 5.37922 76.0401 5.37968H79.5712V13.149C79.5712 13.1956 79.5896 13.2404 79.6224 13.2733C79.6552 13.3063 79.6996 13.3248 79.746 13.3248H81.3333C81.3796 13.3248 81.4241 13.3063 81.4569 13.2733C81.4897 13.2404 81.5081 13.1956 81.5081 13.149V5.37968H85.0042C85.0284 5.38007 85.0523 5.37543 85.0746 5.36605C85.0969 5.35667 85.117 5.34275 85.1336 5.32518Z" fill="white"/>
<path d="M98.1848 11.4313H91.5421V9.32149H95.8721C95.9191 9.31881 95.9633 9.29824 95.9958 9.26395C96.0282 9.22966 96.0465 9.18423 96.0469 9.13688V7.77782C96.0473 7.75354 96.0426 7.72946 96.0333 7.70706C96.024 7.68467 96.0102 7.66446 95.9927 7.64772C95.976 7.63014 95.9559 7.61622 95.9337 7.60684C95.9114 7.59746 95.8875 7.59282 95.8633 7.59321H91.5421V5.47814H98.0729C98.1211 5.47782 98.1674 5.45895 98.2023 5.42539C98.2366 5.39084 98.256 5.34412 98.2565 5.29529V3.77272C98.2565 3.74887 98.2517 3.72527 98.2424 3.70334C98.233 3.68142 98.2194 3.66163 98.2022 3.64518C98.185 3.62874 98.1647 3.61597 98.1425 3.60767C98.1203 3.59937 98.0966 3.59571 98.0729 3.5969H89.752C89.7057 3.5969 89.6612 3.61543 89.6284 3.6484C89.5956 3.68137 89.5772 3.72609 89.5772 3.77272V13.149C89.5772 13.1956 89.5956 13.2404 89.6284 13.2733C89.6612 13.3063 89.7057 13.3248 89.752 13.3248H98.1848C98.2312 13.3248 98.2756 13.3063 98.3084 13.2733C98.3412 13.2404 98.3596 13.1956 98.3596 13.149V11.6141C98.3596 11.5675 98.3412 11.5228 98.3084 11.4898C98.2756 11.4568 98.2312 11.4383 98.1848 11.4383V11.4313Z" fill="white"/>
<path d="M116.671 13.3322C116.697 13.3323 116.723 13.3269 116.746 13.3163C116.77 13.3057 116.791 13.2901 116.809 13.2707C116.826 13.2507 116.838 13.2273 116.846 13.2021C116.852 13.1767 116.852 13.1502 116.846 13.1248L116.225 8.43749L115.603 3.74847C115.598 3.70481 115.576 3.66466 115.543 3.63594C115.51 3.60581 115.467 3.58946 115.423 3.59023H112.958C112.921 3.58984 112.885 3.60024 112.855 3.62012C112.825 3.64082 112.802 3.66946 112.788 3.70275L111.163 7.67797L109.537 11.6514L107.901 7.67797L106.264 3.70275C106.251 3.66768 106.227 3.63783 106.195 3.61758C106.164 3.59733 106.127 3.58774 106.09 3.59023H103.586C103.542 3.58946 103.499 3.60581 103.466 3.63594C103.432 3.66479 103.41 3.70568 103.405 3.75022L102.821 8.43925L102.237 13.1265C102.231 13.1519 102.231 13.1785 102.237 13.2039C102.244 13.2286 102.257 13.2514 102.274 13.2707C102.291 13.2901 102.312 13.3057 102.336 13.3163C102.36 13.3269 102.386 13.3323 102.412 13.3322H103.875C103.919 13.333 103.962 13.3167 103.995 13.2865C104.028 13.2574 104.05 13.2176 104.057 13.174L104.558 9.42383L105.06 5.67366L106.614 9.44668L108.17 13.2197C108.184 13.253 108.207 13.2816 108.236 13.3023C108.266 13.322 108.302 13.3324 108.338 13.3322H110.724C110.761 13.3329 110.797 13.3218 110.827 13.3006C110.857 13.2806 110.88 13.2517 110.893 13.2179L112.4 9.4502L113.918 5.68421L114.43 9.4291L114.942 13.174C114.948 13.2182 114.97 13.2587 115.003 13.2883C115.036 13.3178 115.079 13.3335 115.124 13.3322H116.673H116.671Z" fill="white"/>
<path d="M63.7772 1.65599H68.5337C68.5574 1.65718 68.5811 1.65352 68.6033 1.64522C68.6255 1.63692 68.6459 1.62416 68.663 1.60771C68.6802 1.59127 68.6939 1.57148 68.7032 1.54955C68.7125 1.52763 68.7173 1.50402 68.7173 1.48017V0.191442C68.7146 0.144168 68.6942 0.0996869 68.6601 0.0670318C68.626 0.0343767 68.5808 0.0159959 68.5337 0.015625H63.7772C63.7301 0.0159959 63.6849 0.0343767 63.6508 0.0670318C63.6167 0.0996869 63.5963 0.144168 63.5936 0.191442V1.48017C63.5936 1.50402 63.5984 1.52763 63.6077 1.54955C63.617 1.57148 63.6307 1.59127 63.6479 1.60771C63.6651 1.62416 63.6854 1.63692 63.7076 1.64522C63.7298 1.65352 63.7535 1.65718 63.7772 1.65599Z" fill="white"/>
<path d="M45.1146 47.6973H60.6009V39.9912H52.8517C52.4024 40.3762 51.9496 40.7718 51.4847 41.1868C49.2346 43.2277 47.1075 45.4017 45.1146 47.6973Z" fill="#75B5B0"/>
<path d="M44.9398 41.0761C45.3262 40.7034 45.7072 40.3447 46.0848 39.9914H42.1761V37.1203H49.3258C50.025 36.5401 50.6945 35.9968 51.3483 35.4975C52.3377 34.7426 53.2701 34.0646 54.1453 33.4633V29.9223H42.1761V26.9792H60.2513V19.3452H32.8868V47.6974H39.0051C40.8326 45.3582 42.8154 43.1461 44.9398 41.0761Z" fill="#75B5B0"/>
<path d="M52.8866 37.1203C53.2275 36.8425 53.5631 36.5717 53.8918 36.3115C53.5421 36.5682 53.1803 36.839 52.8097 37.1203H52.8866Z" fill="#75B5B0"/>
<path d="M117.744 48.2791C120.611 48.2791 123.225 47.897 125.586 47.1328C127.927 46.3788 130.099 45.1737 131.982 43.5848L132.416 43.2209L128.338 40.0562C124.396 40.6856 120.805 41.9409 117.653 43.8151C115.794 44.9288 114.039 46.2093 112.409 47.6409C114.156 48.0662 115.947 48.2804 117.744 48.2791Z" fill="#75B5B0"/>
<path d="M104.425 43.898C105.518 44.7568 106.703 45.4887 107.958 46.0799C109.183 44.8891 110.475 43.7708 111.829 42.7306C112.721 42.0512 113.647 41.4186 114.605 40.8353C114.015 40.6812 113.439 40.4777 112.883 40.2269C111.4 39.5612 110.232 38.6587 109.378 37.5194C108.55 36.4625 108.098 35.1569 108.095 33.8114C108.103 32.4235 108.551 31.0742 109.373 29.9593C110.279 28.7041 111.484 27.6981 112.877 27.0337C114.39 26.2875 116.055 25.9076 117.739 25.9243C119.058 25.9189 120.368 26.1468 121.609 26.5976C122.986 27.1174 124.316 27.7556 125.584 28.5053L126.055 28.7971L132.486 24.4017L132.017 24.0026C130.095 22.3746 127.898 21.1063 125.53 20.2577C123.036 19.3371 120.399 18.8698 117.742 18.8775C115.227 18.8748 112.731 19.3176 110.369 20.1856C108.212 20.9487 106.202 22.0786 104.425 23.5261C102.811 24.83 101.477 26.4504 100.505 28.289C99.606 29.9903 99.1349 31.8868 99.1323 33.8132C99.1304 35.7233 99.602 37.6038 100.505 39.2846C101.476 41.0813 102.812 42.6529 104.425 43.898Z" fill="#75B5B0"/>
<path d="M65.7158 47.6971C66.8701 46.3112 67.9217 44.8422 68.8624 43.3016C69.5964 42.004 70.1951 40.6336 70.6489 39.2122C71.0954 37.8121 71.2919 36.3437 71.2293 34.8748V34.8326C71.2293 33.6792 71.0545 32.7931 70.6961 32.1865L64.1495 47.7023L65.7158 47.6971Z" fill="#75B5B0"/>
<path d="M86.5915 19.3452H76.1117L71.953 29.1909C72.3648 29.5229 72.7346 29.9044 73.0543 30.3267C73.7517 31.2676 74.2529 32.3404 74.5279 33.4809C74.8114 34.6101 74.9198 35.7766 74.8496 36.9392C74.7207 38.5894 74.3926 40.2177 73.8724 41.7882C73.3559 43.327 72.6926 44.812 71.8918 46.2223C71.5929 46.7269 71.28 47.2174 70.9601 47.7044H74.014L76.762 41.2994H86.8082L89.5545 47.6974H99.6374L86.5915 19.3452ZM79.3631 34.6852L81.5308 29.2683L83.7351 34.6852H79.3631Z" fill="#75B5B0"/>
<path d="M137.44 40.4888V46.3681C137.807 46.0303 138.148 45.666 138.462 45.278L138.499 45.2341C139.503 44.1247 139.915 43.1647 139.723 42.3841C139.552 41.6351 138.777 40.9969 137.44 40.4888Z" fill="#75B5B0"/>
<path d="M157.424 19.3452V29.1909H147.131V19.3452H137.447V36.6614C138.101 36.8729 138.731 37.1553 139.324 37.5035C140.306 38.0879 141.161 38.8653 141.838 39.7892C142.478 40.6569 142.898 41.6683 143.062 42.7358C143.206 43.788 143.113 44.8593 142.791 45.8707C142.59 46.5157 142.3 47.1294 141.931 47.6939H147.131V37.3752H157.431V47.6974H167.009V19.3452H157.424Z" fill="#75B5B0"/>
<path d="M26.7422 72.8408C28.361 68.0199 30.2256 63.6872 32.3361 59.8427C34.267 56.2722 36.4587 52.8508 38.8932 49.6066C40.9601 46.8566 43.2341 44.2703 45.695 41.8707C47.6948 39.9191 49.8035 38.0835 52.0108 36.3729C53.6363 35.1096 55.3286 33.9357 57.0803 32.8566C58.5207 31.9927 59.5492 31.3985 60.1657 31.0738C61.1035 30.5819 62.0656 30.1382 63.0483 29.7446C64.0688 29.3452 65.1215 29.0346 66.1948 28.8163C67.5863 28.6206 68.7843 28.7349 69.7889 29.1592C70.7397 29.5415 71.5706 30.1743 72.1942 30.9912C72.805 31.8139 73.2428 32.7531 73.4808 33.7515C73.7387 34.7726 73.8372 35.8278 73.7728 36.8793C73.6521 38.4352 73.3422 39.9705 72.8498 41.4505C72.3559 42.9156 71.7213 44.3288 70.9549 45.6701C67.8041 51.0268 63.3134 55.4603 57.9299 58.5293C57.4874 58.7863 57.025 59.0067 56.5471 59.1886C56.0775 59.3679 55.5991 59.5228 55.1137 59.6528C54.5917 59.8164 54.0326 59.8164 53.5107 59.6528C52.9877 59.4882 52.5288 59.1637 52.1979 58.7245C51.8583 58.282 51.6635 57.7445 51.6402 57.1861C51.6297 56.6191 51.7544 56.0578 52.0038 55.5492C52.2711 54.8817 52.605 54.2432 53.0002 53.6434C53.4046 53.0245 53.7851 52.422 54.1418 51.836C54.3667 51.4129 54.6097 51.0055 54.8707 50.6141C55.0011 50.4052 55.0859 50.1708 55.1193 49.9265C55.1528 49.6822 55.1342 49.4335 55.0647 49.197C54.9354 48.9034 55.0473 48.6924 55.4039 48.5623C55.6369 48.3994 55.8636 48.4972 56.0839 48.8559C56.4405 49.2146 56.5949 49.5808 56.5471 49.9547C56.494 50.3406 56.3702 50.7132 56.1818 51.0536C55.9231 51.6725 55.648 52.2509 55.3567 52.7889C55.0653 53.3269 54.7577 53.8725 54.4337 54.4258C54.2655 54.8927 54.0536 55.3424 53.8009 55.769C53.5421 56.2094 53.3305 56.6761 53.1698 57.1615C53.0078 57.5201 53.0078 57.7645 53.1698 57.8946C53.3318 58.0247 53.5748 58.0411 53.8988 57.9439C54.2689 57.8402 54.6336 57.7175 54.9913 57.5764C55.3549 57.4357 55.7058 57.264 56.0402 57.063C61.7033 53.9705 66.4476 49.4197 69.7871 43.8768C70.5656 42.5016 71.1995 41.0485 71.6786 39.5411C72.165 38.0199 72.3799 36.4241 72.3131 34.8275C72.3131 33.2311 71.9973 32.0338 71.3656 31.2356C70.734 30.4374 69.6892 30.0711 68.2313 30.1367C67.2598 30.2088 66.3027 30.4153 65.3872 30.7503C64.4319 31.0927 63.4979 31.4926 62.5903 31.9476C61.5542 32.4364 59.9839 33.3741 57.8792 34.7607C55.7745 36.1473 53.4017 38.0227 50.761 40.3868C48.1213 42.7474 45.3768 45.6385 42.5275 49.0598C39.6781 52.4812 36.9913 56.4664 34.467 61.0154C33.4951 62.8087 32.6286 64.5516 31.8676 66.2442C31.1066 67.9367 30.4185 69.655 29.8031 71.3991C29.1878 73.142 28.6208 74.9254 28.1022 76.7492C27.5836 78.573 27.0814 80.5287 26.5954 82.6162C26.4346 83.4296 26.2732 84.3826 26.1112 85.475C25.9492 86.5674 25.8192 87.6991 25.7214 88.87C25.6246 90.0421 25.5664 91.1902 25.5465 92.3142C25.5228 93.2852 25.5636 94.2567 25.6689 95.2223C25.7781 96.0544 25.9732 96.8729 26.251 97.6643C26.5035 98.2908 26.8841 98.8568 27.3681 99.3258C27.9144 99.8486 28.582 100.226 29.3102 100.423C30.0958 100.664 30.9194 100.755 31.7383 100.69C32.5679 100.595 33.387 100.424 34.1856 100.179C35.0186 99.917 35.8237 99.573 36.5892 99.1517C37.4805 98.6575 38.3213 98.0763 39.0995 97.4164C39.956 96.7015 40.9029 95.8224 41.9401 94.7792C43.56 93.1183 44.8314 91.4979 45.7544 89.9179C46.5667 88.5726 47.242 87.1483 47.77 85.6666C48.1918 84.4113 48.4028 83.3605 48.4028 82.5142C48.4028 81.6668 48.2717 81.1464 48.013 80.9512C47.9533 80.9143 47.9101 80.8558 47.8922 80.7877C47.8743 80.7196 47.8831 80.6472 47.9168 80.5855C47.9843 80.4351 48.0936 80.3075 48.2315 80.2181C48.3834 80.1194 48.5611 80.0686 48.7419 80.0721C48.8473 80.0773 48.9502 80.1064 49.0428 80.1572C49.1355 80.2081 49.2155 80.2794 49.2768 80.3657C49.5682 80.7174 49.7785 81.2706 49.9079 82.0255C50.0342 82.9357 50.0094 83.8608 49.8345 84.7629C49.6084 85.9978 49.2418 87.2025 48.7419 88.3531C48.0975 89.8365 47.282 91.2386 46.3121 92.5305C45.6376 93.4842 44.8994 94.3906 44.1025 95.2433C43.2292 96.1837 42.2948 97.0647 41.3055 97.8806C40.2974 98.7134 39.2254 99.4647 38.0996 100.128C37.0183 100.771 35.8591 101.273 34.6506 101.618C32.3298 102.309 29.8314 102.045 27.7037 100.885C26.6957 100.324 25.8207 99.5498 25.1392 98.6155C24.4078 97.6126 23.9248 96.4488 23.7303 95.2205C23.436 93.1663 23.3545 91.087 23.4873 89.0159C23.6098 86.9288 23.8532 84.8506 24.2163 82.792C24.5729 80.7889 24.9854 78.9241 25.4539 77.1975C25.9224 75.471 26.3518 74.0188 26.7422 72.8408Z" fill="white"/>
<path d="M82.3838 42.9854C81.7685 42.5019 81.2318 43.0891 80.8368 43.395C80.2529 43.8539 79.6778 44.3216 79.1236 44.8015C77.0522 46.6265 76.3931 47.4722 74.5471 49.6224C74.3514 49.8387 72.647 51.9081 72.4494 52.1806C72.3096 52.3757 71.6348 53.1915 70.8954 54.2323C69.6682 55.9905 68.5302 57.7844 67.4814 59.6141C66.4325 61.4438 65.4676 63.3092 64.5865 65.2103C63.7708 67.1009 63.0581 68.9904 62.4486 70.8787C61.8236 72.8141 61.4161 74.8139 61.2337 76.8406C61.1044 77.9483 61.3718 78.7687 62.0361 79.302C62.7004 79.8353 63.5505 79.9438 64.5865 79.6273C65.0782 79.4401 65.519 79.1389 65.8731 78.7482C66.2094 78.3625 66.5747 78.0034 66.9657 77.674C69.0389 76.0799 70.7555 74.8826 72.1156 74.082C73.4756 73.2815 74.641 72.6058 75.6117 72.0549C75.7332 71.9669 75.84 71.8601 75.9281 71.7384C75.9771 71.6575 75.9194 71.5345 75.7533 71.3709L75.6799 71.225C75.6956 71.2584 75.638 71.3059 75.5051 71.3709C75.1723 71.3728 74.8429 71.4391 74.5349 71.5661C74.2581 71.6711 74.0113 71.8432 73.8164 72.0672C73.2338 72.3602 72.7093 72.6292 72.2432 72.8742C71.777 73.1192 71.2829 73.3876 70.7608 73.6794C70.2434 73.9724 69.6688 74.3241 69.0372 74.7343C68.4055 75.1446 67.6329 75.6861 66.7192 76.3589C66.2116 76.6784 65.7252 77.0308 65.2631 77.4138C64.7815 77.8085 64.2785 78.176 63.7562 78.5144C63.2702 78.7101 62.9387 78.7423 62.7615 78.6111C62.5867 78.481 62.4941 78.1715 62.4941 77.6828C62.526 76.9112 62.6904 76.151 62.9801 75.4358C64.0078 71.4704 65.4828 67.6362 67.3765 64.0077C69.2749 60.3997 71.4602 56.9519 73.9108 53.6979C74.3007 53.1704 77.9577 48.7152 80.1445 46.9571C81.9573 45.3184 83.1285 43.5708 82.3838 42.9854Z" fill="white"/>
<path d="M85.4762 75.4798C84.9565 75.6363 84.4107 75.686 83.8715 75.6257C83.3331 75.5357 82.8295 75.2992 82.4153 74.9418C82.3429 74.7309 82.2534 74.5262 82.1478 74.33C82.0342 74.119 81.9118 73.915 81.7842 73.7199C81.7 73.7565 81.6085 73.7733 81.5168 73.7691C81.425 73.7645 81.3335 73.7814 81.2493 73.8183C80.8927 74.177 80.5431 74.5597 80.2005 74.9664C79.8578 75.3731 79.4937 75.8045 79.1079 76.2604C78.5223 76.9028 77.7879 77.3896 76.97 77.6775C76.6135 77.623 76.2688 77.5077 75.9509 77.3364C75.6396 77.1546 75.3736 76.9039 75.173 76.6033C74.9469 76.2785 74.8128 75.8981 74.7849 75.5026C74.6537 74.6068 74.8334 73.6929 75.2936 72.9146C75.5698 72.311 75.8856 71.6663 76.2411 70.9806C76.5965 70.295 76.977 69.6269 77.3826 68.9763C77.7881 68.3258 78.1377 67.772 78.4314 67.3149C78.646 67.3079 78.86 67.3413 79.0625 67.4133C79.241 67.5226 79.3909 67.6733 79.4995 67.8529C79.4997 67.921 79.5165 67.988 79.5484 68.048C79.5637 68.0813 79.5672 68.1188 79.5583 68.1543C79.5494 68.1898 79.5286 68.2212 79.4995 68.2432C79.4033 68.4717 79.2338 68.8234 78.989 69.2981C78.7443 69.7728 78.4873 70.2668 78.2129 70.789C77.9384 71.3112 77.678 71.814 77.435 72.3028C77.2526 72.6477 77.0982 73.007 76.9735 73.377C76.8475 73.6915 76.7577 74.0195 76.706 74.3546C76.6588 74.6816 76.7795 75.0227 77.0714 75.3813C77.8199 75.0475 78.4597 74.5083 78.9174 73.8254C79.3795 73.1281 79.8821 72.4588 80.4225 71.821C80.9399 71.2022 81.4585 70.5575 81.9783 69.8871C82.498 69.2166 83.0161 68.572 83.5323 67.9531C83.8889 67.7573 84.1884 67.7245 84.4308 67.8546C84.7401 68.0516 84.9984 68.3198 85.1843 68.637C85.0203 69.4888 84.7763 70.323 84.4553 71.1283C84.1251 71.9714 83.928 72.8612 83.8715 73.7656C84.0432 73.8678 84.222 73.9577 84.4064 74.0346C84.5734 74.1123 84.7598 74.1374 84.9413 74.1067L86.1317 73.7656C86.4709 73.6671 86.8269 73.561 87.1998 73.4473C87.5727 73.3337 87.9806 73.1871 88.4235 73.0078C88.8605 72.8308 89.403 72.5964 90.0509 72.3045C90.3743 72.1428 90.7624 71.9705 91.2169 71.7912C91.6714 71.6118 92.1067 71.4501 92.528 71.3024C92.9006 71.1699 93.282 71.0642 93.6695 70.9859C94.0191 70.9209 94.2446 70.9209 94.3687 70.9859C94.5241 70.9812 94.6793 70.9977 94.8302 71.0352C94.9438 71.0668 95.0173 71.211 95.0487 71.4747C94.8743 71.6763 94.6323 71.8065 94.3687 71.8404C94.0537 71.8777 93.744 71.9514 93.4457 72.0602C93.2411 72.1629 93.0304 72.2527 92.8147 72.3292C92.5874 72.41 92.2961 72.5237 91.9406 72.6702C91.5852 72.8168 91.1394 72.9961 90.6033 73.2082C90.0696 73.4216 89.3814 73.7228 88.5388 74.1119C88.3763 74.1788 88.1508 74.2684 87.8588 74.3809C87.5669 74.4935 87.268 74.6183 86.9603 74.7484C86.6527 74.8785 86.3607 75.0086 86.0863 75.1387C85.8721 75.2316 85.6677 75.3458 85.4762 75.4798Z" fill="white"/>
<path d="M97.7653 68.834C98.1893 68.8116 98.6 68.6769 98.9557 68.4437C99.314 68.206 99.6975 68.009 100.099 67.8565C100.775 67.5763 101.505 67.4531 102.235 67.496C102.871 67.5251 103.489 67.7183 104.029 68.057C104.57 68.3957 105.014 68.8686 105.321 69.43C105.674 70.0599 105.881 70.7619 105.927 71.4836C105.992 71.8128 106.017 72.1487 106.001 72.484C105.982 72.8238 105.923 73.1603 105.826 73.4861C105.76 74.0394 105.882 74.3406 106.189 74.3898C106.585 74.4386 106.986 74.4303 107.38 74.3652C107.866 74.3336 108.448 74.2597 109.128 74.1454L111.168 73.8043C111.848 73.6871 112.472 73.5893 113.038 73.5107C113.464 73.442 113.894 73.4008 114.325 73.3877C114.584 73.3877 114.778 73.5441 114.909 73.8518C115.04 74.1595 114.891 74.3494 114.47 74.4144C113.823 74.5129 113.127 74.643 112.383 74.8047L110.171 75.2935L108.107 75.7577C107.458 75.9054 106.908 76.0267 106.455 76.1251C106.028 76.2041 105.611 76.3352 105.216 76.5154C104.829 76.7258 104.516 77.0496 104.317 77.4438C103.757 78.3042 103.123 79.1137 102.422 79.863C101.735 80.6097 100.951 81.2601 100.092 81.797C98.9266 82.5799 97.9302 82.89 97.1027 82.727C96.2753 82.5641 95.5062 81.8608 94.7953 80.6172C94.6991 80.6172 94.6502 80.5856 94.6502 80.5205V80.4713C94.2831 80.2659 93.9804 79.9614 93.7761 79.5922C93.6155 79.2715 93.5165 78.9231 93.4842 78.5655C93.4528 78.1986 93.4692 77.8292 93.5332 77.4666C93.5973 77.0915 93.6456 76.7088 93.6782 76.3185C94.7578 68.9033 97.4289 61.8133 101.506 55.5405C101.615 55.3606 101.737 55.189 101.872 55.0271C102.021 54.8374 102.114 54.6087 102.139 54.3678C102.131 54.2966 102.107 54.2282 102.069 54.1674C102.031 54.1066 101.98 54.0549 101.92 54.0162C101.793 53.9483 101.65 53.915 101.506 53.9195C99.109 53.9195 96.7287 53.9928 94.3652 54.1393C91.9665 54.291 89.5898 54.6923 87.2733 55.3366C86.8336 55.4298 86.4026 55.5604 85.9849 55.7269C85.5805 55.8898 85.1517 56.0691 84.6983 56.2649C84.2776 56.4595 83.9536 56.3288 83.7264 55.8728C83.6774 55.794 83.6556 55.7012 83.6645 55.6086C83.6733 55.5161 83.7123 55.4291 83.7753 55.3612C83.9124 55.2084 84.0773 55.0837 84.2613 54.9937C86.4641 53.9984 88.808 53.3554 91.2082 53.0879C93.0542 52.8277 94.8838 52.6571 96.6972 52.5763C98.5105 52.4954 100.324 52.4286 102.139 52.3758C102.664 52.3869 103.185 52.2869 103.669 52.0822C104.139 51.86 104.548 51.5242 104.859 51.1047C107.091 48.3041 109.652 45.7857 112.486 43.6043C115.352 41.4259 118.551 39.7317 121.959 38.5883C124.07 37.8789 126.241 37.364 128.444 37.0499C130.664 36.741 132.918 36.7819 135.125 37.1712C135.739 37.3031 136.363 37.4648 136.996 37.6617C137.615 37.8516 138.21 38.1136 138.768 38.4424C139.621 38.948 140.364 39.6206 140.953 40.4203C141.488 41.1451 141.838 41.99 141.974 42.8817C142.102 43.7748 142.028 44.6854 141.756 45.5454C141.454 46.4846 140.948 47.3442 140.274 48.0613C139.316 49.0953 138.21 49.979 136.992 50.6827C135.762 51.3902 134.488 52.0186 133.178 52.5639C130.958 53.4394 128.642 54.0461 126.28 54.3713C123.899 54.6962 121.493 54.7933 119.094 54.6614C117.181 54.5958 115.27 54.5143 113.36 54.4171C111.45 54.3198 109.523 54.1891 107.579 54.025C106.64 53.9605 105.879 54.0912 105.296 54.4171C104.639 54.8155 104.089 55.3689 103.693 56.0293C102.575 57.7592 101.546 59.5448 100.608 61.3794C99.6728 63.2136 98.8377 65.0977 98.1061 67.0231C98.0089 67.3143 97.8951 67.5995 97.7653 67.8776C97.6356 68.16 97.6018 68.4776 97.6691 68.7813V68.8305L97.7653 68.834ZM95.3879 77.922C96.4536 77.1926 97.5835 76.5629 98.7634 76.0407C99.9559 75.5264 101.232 75.2368 102.529 75.1863C102.797 75.1488 103.044 75.0189 103.228 74.8188C103.374 74.6418 103.528 74.4385 103.69 74.2087C103.852 73.7534 104.013 73.2804 104.176 72.7916C104.334 72.3172 104.432 71.8245 104.467 71.3253C104.563 70.3806 104.425 69.736 104.053 69.3914C103.681 69.0468 103.026 68.9571 102.087 69.1224C101.079 69.306 100.115 69.6787 99.2442 70.2212C98.407 70.7398 97.6736 71.4112 97.0818 72.2009C96.4912 72.9975 96.0396 73.8893 95.7462 74.8381C95.4361 75.8514 95.3146 76.9136 95.3879 77.9712L95.3389 77.922H95.3879ZM97.136 80.5592C98.9819 80.1349 100.424 79.0437 101.461 77.2855C100.517 77.425 99.614 77.7661 98.8124 78.2859C98.0444 78.7934 97.4856 79.5518 97.136 80.561V80.5592ZM106.901 52.1209C107.041 52.2885 107.227 52.4109 107.436 52.4725C107.596 52.5055 107.758 52.522 107.922 52.5218C109.961 52.5874 111.985 52.6688 113.995 52.7661C116.004 52.8634 118.027 52.9449 120.066 53.0105C122.456 53.0165 124.84 52.7809 127.184 52.3073C129.555 51.8146 131.848 51.0008 134.001 49.888C134.982 49.394 135.931 48.8392 136.844 48.2266C137.767 47.6049 138.592 46.8475 139.291 45.9796C140.553 44.5731 141.047 43.2943 140.772 42.1433C140.497 40.9923 139.469 40.0886 137.688 39.4322C136.328 38.9497 134.903 38.6776 133.461 38.6252C132.037 38.5748 130.61 38.646 129.198 38.8379C124.697 39.424 120.665 40.7754 117.101 42.8923C113.537 45.0091 110.298 47.7782 107.385 51.1996C107.296 51.3277 107.198 51.4499 107.093 51.5653C106.961 51.7201 106.892 51.919 106.899 52.1226L106.901 52.1209Z" fill="white"/>
</g>
</svg>
