<?xml version="1.0" standalone="no"?>
<!DOCTYPE svg PUBLIC "-//W3C//DTD SVG 20010904//EN"
 "http://www.w3.org/TR/2001/REC-SVG-20010904/DTD/svg10.dtd">
<svg version="1.0" xmlns="http://www.w3.org/2000/svg"
 width="700.000000pt" height="700.000000pt" viewBox="0 0 700.000000 700.000000"
 preserveAspectRatio="xMidYMid meet">
<metadata>
Created by potrace 1.14, written by Peter Selinger 2001-2017
</metadata>
<g transform="translate(0.000000,700.000000) scale(0.100000,-0.100000)"
fill="#000000" stroke="none">
<path d="M2676 5651 c-3 -5 -5 -21 -4 -35 l2 -27 106 3 105 3 0 30 0 30 -102
3 c-56 1 -104 -2 -107 -7z"/>
<path d="M2690 5500 c-65 -22 -97 -45 -135 -99 -50 -71 -36 -171 33 -237 128
-123 383 -77 434 79 57 170 -141 322 -332 257z m191 -87 c61 -36 82 -127 41
-183 -37 -51 -128 -78 -198 -58 -50 13 -102 63 -110 103 -24 129 139 213 267
138z"/>
<path d="M1987 5501 c-2 -3 -3 -19 -2 -36 1 -29 2 -30 50 -31 28 -1 62 -2 78
-3 l27 -1 0 -165 0 -165 40 0 40 0 0 165 c0 150 2 165 18 166 9 1 42 2 72 2
l55 2 3 38 3 38 -191 -2 c-105 -1 -192 -5 -193 -8z"/>
<path d="M3184 5495 c-3 -7 -4 -24 -2 -37 3 -20 9 -23 53 -24 28 -1 61 -2 75
-3 l25 -1 0 -162 0 -163 34 -3 c19 -2 37 1 40 6 3 6 6 80 5 166 0 151 0 156
20 157 12 0 46 1 76 2 l55 2 0 35 0 35 -188 2 c-150 1 -189 -1 -193 -12z"/>
<path d="M3750 5305 l0 -205 179 0 c192 0 191 0 183 52 l-4 28 -139 0 -139 0
0 45 0 45 94 0 94 0 -2 33 -2 32 -92 3 -92 3 0 44 0 45 141 0 140 0 -3 38 -3
37 -177 3 -178 2 0 -205z"/>
<path d="M4319 5498 c0 -7 -2 -22 -4 -33 -2 -11 -9 -63 -15 -115 -6 -52 -13
-106 -15 -120 -2 -14 -6 -49 -10 -77 l-7 -53 41 0 c38 0 41 2 42 28 0 15 2 34
4 43 1 8 6 42 9 75 8 71 16 123 23 147 3 11 28 -40 67 -135 l62 -153 56 -3 56
-3 52 133 c29 73 58 144 66 158 l13 25 1 -30 c1 -16 3 -39 5 -50 3 -11 7 -42
10 -70 3 -27 9 -75 13 -105 l7 -55 42 -3 c39 -3 42 -1 38 20 -2 13 -9 59 -14
103 -6 44 -13 103 -17 130 -4 28 -9 73 -13 100 l-6 50 -56 3 -56 3 -27 -63
c-14 -35 -46 -112 -70 -171 l-43 -109 -69 171 -69 171 -57 0 c-39 0 -58 -4
-59 -12z"/>
<path d="M4820 4863 c-252 -34 -472 -161 -588 -341 -139 -215 -105 -484 81
-662 59 -56 165 -130 187 -130 8 0 29 12 46 28 64 57 111 96 173 140 39 28 59
48 50 50 -8 3 -36 15 -64 27 -250 114 -249 409 3 543 144 77 310 66 489 -33
l64 -35 130 91 c150 105 148 95 28 175 -89 59 -198 104 -311 130 -10 2 -28 6
-40 9 -28 7 -213 12 -248 8z"/>
<path d="M42 4250 l-1 -597 412 1 c438 2 452 4 555 53 180 87 266 286 187 431
-16 29 -48 71 -72 92 l-42 40 24 35 c100 149 55 342 -105 452 -118 81 -155 86
-587 88 l-371 1 0 -596z m722 287 c51 -34 24 -111 -44 -125 -19 -5 -91 -8
-160 -7 l-125 0 -3 64 c-2 35 -1 69 1 75 3 8 51 11 155 11 124 -1 154 -4 176
-18z m48 -451 c16 -7 28 -30 34 -63 1 -7 -6 -23 -16 -35 -18 -22 -25 -23 -209
-26 l-191 -3 0 69 0 69 183 -2 c100 -1 190 -5 199 -9z"/>
<path d="M1403 4251 l0 -596 126 0 126 0 71 85 c39 47 103 119 142 160 l72 75
-75 3 c-80 3 -77 1 -77 62 0 17 1 37 1 45 1 13 24 15 146 15 l145 0 100 77
c108 83 100 68 103 178 0 19 -2 38 -6 41 -3 4 -114 6 -247 6 l-241 0 3 62 3
61 365 0 c315 0 366 2 371 15 3 8 5 80 5 160 l-1 145 -566 1 -566 1 0 -596z"/>
<path d="M3124 4686 c-37 -89 -75 -182 -85 -208 l-19 -47 27 -28 c92 -99 115
-293 56 -478 -24 -76 -59 -158 -92 -214 -17 -28 -27 -52 -23 -54 4 -2 31 -3
61 -3 l54 1 55 130 c31 72 57 132 58 134 2 2 94 4 205 4 157 -1 204 -4 214
-14 6 -8 24 -43 38 -79 14 -36 37 -90 50 -120 l25 -56 203 2 c112 1 205 2 206
3 3 2 -51 125 -172 391 -58 129 -144 318 -190 420 -46 102 -103 228 -127 280
l-43 96 -217 0 -217 0 -67 -160z m340 -374 c20 -50 36 -96 36 -101 0 -5 -38
-8 -85 -8 -47 0 -85 2 -85 6 0 20 84 211 90 204 4 -4 23 -50 44 -101z"/>
<path d="M5730 4483 l0 -363 44 -21 c49 -22 112 -78 143 -124 49 -73 58 -176
24 -266 -12 -29 -21 -54 -21 -54 0 0 46 0 103 0 l102 0 3 218 2 218 210 -2
c147 -1 210 -4 212 -13 3 -6 4 -102 4 -213 -1 -129 2 -204 9 -206 5 -2 93 -3
195 -3 l185 1 3 596 2 595 -192 -1 c-106 -1 -195 -3 -198 -4 -3 0 -5 -88 -4
-193 0 -106 -2 -199 -4 -205 -3 -10 -55 -13 -213 -13 l-209 0 0 208 0 209
-200 -1 -200 0 0 -363z"/>
<path d="M2702 4425 c-274 -88 -676 -394 -947 -720 -383 -460 -654 -1070 -730
-1645 -23 -178 -16 -387 17 -475 49 -131 205 -225 352 -212 270 24 616 363
700 687 28 109 6 230 -43 230 -22 0 -33 -21 -20 -41 12 -19 11 -91 -2 -147
-17 -72 -101 -239 -158 -314 -60 -79 -198 -218 -256 -258 -64 -44 -125 -72
-195 -90 -178 -45 -291 29 -315 205 -6 46 -7 238 -1 275 2 14 7 57 11 95 17
176 135 609 217 794 197 445 403 748 728 1071 227 225 485 409 675 482 43 16
81 23 137 23 71 0 79 -2 107 -30 41 -38 53 -88 50 -199 -3 -108 -23 -179 -84
-301 -113 -230 -341 -460 -590 -595 -68 -37 -93 -44 -110 -30 -13 11 -12 19 9
59 72 137 126 255 126 275 0 26 -34 61 -49 51 -6 -3 -11 -24 -11 -45 0 -21 -4
-41 -8 -44 -12 -7 -98 -155 -117 -199 -43 -103 14 -188 117 -174 86 12 253
115 392 244 50 47 78 77 158 172 46 54 133 199 163 270 98 233 89 431 -24 541
-76 75 -167 88 -299 45z"/>
<path d="M2832 3982 c-73 -175 -132 -320 -132 -323 0 -4 42 -4 61 0 3 0 31 36
62 79 81 113 139 235 155 327 11 61 8 213 -3 224 -8 8 -51 -87 -143 -307z"/>
<path d="M5350 4099 c-19 -4 -53 -10 -75 -13 -76 -11 -236 -65 -338 -115 -174
-84 -347 -219 -482 -375 -92 -105 -98 -112 -122 -125 -12 -6 -68 -13 -125 -16
-255 -13 -284 -15 -394 -30 -76 -11 -99 -15 -169 -36 -114 -34 -155 -60 -133
-86 13 -16 26 -16 58 0 41 22 189 56 305 72 95 13 382 18 389 6 4 -6 -13 -44
-38 -85 -53 -87 -122 -223 -161 -316 -31 -73 -95 -266 -95 -287 0 -7 -3 -13
-7 -14 -56 -4 -85 -13 -181 -54 -148 -62 -222 -84 -250 -74 -26 10 -25 14 14
143 23 74 24 80 8 97 -10 11 -24 19 -33 19 -9 0 -59 -55 -111 -122 -112 -144
-165 -202 -180 -193 -22 14 -7 74 45 180 30 60 55 117 55 127 0 14 -37 37 -44
26 -21 -30 -68 -111 -81 -139 -14 -30 -21 -35 -42 -31 -15 3 -35 -3 -53 -17
-16 -11 -31 -21 -34 -21 -16 0 -193 -111 -286 -179 -128 -94 -153 -102 -158
-52 -8 77 120 453 195 573 13 21 23 40 23 44 0 14 142 244 207 336 81 114 221
276 292 337 56 48 111 124 111 152 0 36 -38 33 -88 -7 -101 -80 -281 -281
-394 -439 -91 -127 -207 -336 -272 -488 -99 -231 -151 -461 -121 -534 13 -31
57 -61 83 -57 6 1 21 2 32 3 11 0 44 22 72 49 29 26 86 71 126 101 73 54 264
172 269 167 2 -2 -4 -20 -13 -41 -32 -78 -14 -152 47 -182 19 -10 29 -9 60 9
21 12 50 37 66 57 41 52 81 91 92 91 6 0 17 -13 26 -30 29 -57 83 -65 167 -25
97 45 287 123 317 130 l29 6 -13 -53 c-21 -84 -37 -208 -31 -240 3 -17 24 -50
46 -75 22 -25 40 -49 40 -53 0 -4 15 -15 33 -25 45 -24 91 -15 159 32 59 41
101 84 150 155 18 25 41 51 51 57 17 11 267 71 354 86 48 8 62 21 42 40 -11
10 -31 9 -99 -1 -278 -44 -275 -44 -266 19 13 88 -24 185 -86 221 -43 26 -107
22 -177 -9 -37 -17 -65 -24 -71 -19 -19 21 139 366 229 500 77 113 93 118 311
101 104 -8 380 -21 435 -19 318 6 593 100 761 259 64 61 88 115 88 198 1 148
-97 244 -286 280 -77 14 -219 17 -278 4z m321 -78 c146 -33 214 -101 194 -193
-7 -29 -82 -135 -117 -163 -123 -102 -352 -195 -538 -220 -68 -10 -308 -11
-450 -3 -58 4 -141 7 -185 7 -44 1 -87 5 -95 11 -21 13 0 46 89 138 244 250
490 380 806 427 91 13 228 11 296 -4z m-1353 -1267 c51 -10 61 -78 26 -178
-19 -53 -41 -76 -74 -76 -29 0 -157 -36 -175 -49 -5 -4 -32 -20 -59 -35 l-49
-28 5 60 c12 140 106 255 243 298 49 16 46 15 83 8z m-89 -361 c-8 -10 -21
-26 -29 -36 -23 -28 -107 -79 -125 -75 -25 5 37 82 82 101 75 31 91 33 72 10z"/>
<path d="M5269 3960 c-169 -42 -285 -93 -424 -186 -82 -55 -151 -112 -144
-118 30 -25 324 -29 429 -6 130 28 230 72 328 144 l63 47 -87 69 c-47 39 -87
70 -88 69 0 0 -35 -9 -77 -19z"/>
<path d="M5730 3838 l0 -122 28 27 c16 15 39 48 51 72 20 39 21 48 9 71 -7 15
-30 38 -50 51 l-38 23 0 -122z"/>
<path d="M2135 3892 c-121 -118 -227 -232 -218 -233 22 -4 610 -5 621 -1 9 3
12 45 12 163 l0 159 -162 0 -163 0 -90 -88z"/>
</g>
</svg>
