<?xml version="1.0" encoding="utf-8"?>
<!-- Generator: Adobe Illustrator 25.4.1, SVG Export Plug-In . SVG Version: 6.00 Build 0)  -->
<svg version="1.1" id="Capa_1" xmlns="http://www.w3.org/2000/svg"
	xmlns:xlink="http://www.w3.org/1999/xlink" x="0px" y="0px"
	viewBox="0 0 98 87" style="enable-background:new 0 0 98 87;" xml:space="preserve">
<style type="text/css">
	.st0{opacity:0.92;}
	.st1{fill:#202E56;}
	.st2{fill:#ffffff;}
	.st3{fill:#FFFFFF;}
</style>
<g class="st0">
	<g>
		<path class="st2" d="M10.58,25.67c1.23,0,2.33,0.22,3.31,0.66c0.98,0.44,1.74,1.04,2.29,1.8c0.55,0.76,0.83,1.6,0.83,2.52
			c0,1.02-0.38,1.94-1.15,2.74c0.63,0.41,1.13,0.9,1.5,1.48c0.38,0.58,0.56,1.17,0.56,1.77c0,0.89-0.27,1.71-0.8,2.48
			c-0.53,0.76-1.28,1.38-2.23,1.83c-0.96,0.46-2.03,0.69-3.23,0.69H1.7V25.67H10.58z M7.04,29.58v2.01h3.54
			c0.45,0,0.79-0.11,1.03-0.32c0.24-0.21,0.36-0.51,0.36-0.89c0-0.25-0.13-0.44-0.39-0.58c-0.26-0.14-0.59-0.22-1-0.22H7.04z
			 M11.55,37.57h0.14l0.23-0.06c0.29-0.05,0.49-0.15,0.61-0.29c0.12-0.14,0.18-0.33,0.18-0.57c0-0.27-0.11-0.49-0.33-0.67
			c-0.22-0.17-0.5-0.26-0.84-0.26h-4.5v1.84H11.55z"/>
		<g>
			<g>
				<g>
					<path class="st3" d="M33.55,17.77c0.02-0.02,0.03-0.04,0.03-0.07v-0.4v-0.4c0-0.03-0.01-0.05-0.03-0.07
						c-0.02-0.02-0.04-0.03-0.07-0.03h-2.54H28.4c-0.03,0-0.05,0.01-0.07,0.03c-0.02,0.02-0.03,0.04-0.03,0.07v0.4v0.4
						c0,0.03,0.01,0.05,0.03,0.07c0.02,0.02,0.04,0.03,0.07,0.03h1h1v2.19v2.19c0,0.03,0.01,0.05,0.03,0.07
						c0.02,0.02,0.04,0.03,0.07,0.03h0.45h0.45c0.03,0,0.05-0.01,0.07-0.03c0.02-0.02,0.03-0.04,0.03-0.07v-2.19V17.8h0.99h0.99
						C33.51,17.8,33.54,17.79,33.55,17.77z"/>
				</g>
				<g>
					<path class="st3" d="M42.07,21.15c0.12-0.15,0.23-0.31,0.33-0.48c0.09-0.17,0.16-0.35,0.21-0.53c0.05-0.18,0.07-0.38,0.07-0.57
						c0-0.21-0.02-0.4-0.07-0.6c-0.05-0.19-0.12-0.38-0.22-0.55c-0.09-0.18-0.21-0.34-0.34-0.49c-0.13-0.15-0.27-0.29-0.44-0.42
						c-0.16-0.13-0.33-0.24-0.51-0.33c-0.18-0.1-0.37-0.18-0.56-0.25c0,0,0,0,0,0c0,0,0,0,0,0c-0.43-0.15-0.9-0.22-1.37-0.22
						c-0.47,0-0.93,0.07-1.36,0.22c-0.2,0.07-0.38,0.15-0.56,0.25c-0.18,0.1-0.35,0.21-0.51,0.34c-0.16,0.13-0.31,0.27-0.44,0.42
						c-0.13,0.15-0.24,0.32-0.34,0.49c-0.1,0.18-0.17,0.36-0.22,0.55c-0.05,0.19-0.07,0.39-0.07,0.6c0,0.2,0.02,0.39,0.07,0.57
						c0.05,0.18,0.12,0.36,0.21,0.53c0.09,0.17,0.2,0.33,0.33,0.48c0.12,0.15,0.26,0.28,0.42,0.41c0.15,0.12,0.32,0.23,0.49,0.33
						c0.17,0.1,0.35,0.18,0.54,0.25c0.23,0.09,0.47,0.15,0.71,0.19c0.24,0.04,0.49,0.06,0.73,0.06c0.25,0,0.5-0.02,0.75-0.06
						c0.24-0.04,0.48-0.11,0.71-0.19c0.19-0.07,0.37-0.15,0.54-0.25c0.17-0.1,0.34-0.21,0.49-0.33
						C41.81,21.43,41.95,21.3,42.07,21.15z M41.48,19.57c0,0.2-0.03,0.38-0.09,0.55c-0.06,0.17-0.14,0.32-0.26,0.46
						c-0.12,0.14-0.25,0.26-0.4,0.37c-0.15,0.11-0.31,0.2-0.49,0.27c-0.36,0.15-0.73,0.22-1.09,0.22c-0.36,0-0.72-0.07-1.07-0.21
						c-0.18-0.07-0.34-0.16-0.48-0.27c-0.15-0.11-0.28-0.23-0.39-0.37c-0.11-0.14-0.2-0.29-0.25-0.46
						c-0.06-0.17-0.08-0.35-0.08-0.55c0-0.2,0.03-0.38,0.08-0.55c0.06-0.17,0.14-0.33,0.25-0.47c0.11-0.14,0.24-0.27,0.39-0.38
						c0.15-0.11,0.31-0.2,0.48-0.28c0.18-0.08,0.36-0.13,0.54-0.17c0.18-0.04,0.36-0.06,0.54-0.06c0.18,0,0.36,0.02,0.54,0.06
						s0.36,0.1,0.54,0.17c0.18,0.08,0.34,0.17,0.49,0.28c0.15,0.11,0.28,0.24,0.4,0.38c0.11,0.14,0.2,0.3,0.26,0.47
						C41.45,19.19,41.48,19.37,41.48,19.57z"/>
				</g>
				<g>
					<path class="st3" d="M49.93,17.77c0.02-0.02,0.03-0.04,0.03-0.07v-0.4v-0.4c0-0.03-0.01-0.05-0.03-0.07
						c-0.02-0.02-0.04-0.03-0.07-0.03h-2.54h-2.54c-0.03,0-0.05,0.01-0.07,0.03c-0.02,0.02-0.03,0.04-0.03,0.07v0.4v0.4
						c0,0.03,0.01,0.05,0.03,0.07c0.02,0.02,0.04,0.03,0.07,0.03h1h1v2.19v2.19c0,0.03,0.01,0.05,0.03,0.07
						c0.02,0.02,0.04,0.03,0.07,0.03h0.45h0.45c0.03,0,0.05-0.01,0.07-0.03c0.02-0.02,0.03-0.04,0.03-0.07v-2.19V17.8h0.99h0.99
						C49.88,17.8,49.91,17.79,49.93,17.77z"/>
				</g>
				<g>
					<path class="st3" d="M57.32,21.21h-1.88h-1.88v-0.59v-0.59h1.23H56c0.03,0,0.05-0.01,0.07-0.03c0.02-0.02,0.03-0.04,0.03-0.07
						v-0.38v-0.38c0-0.03-0.01-0.05-0.03-0.07c-0.02-0.02-0.04-0.03-0.07-0.03h-1.23h-1.23v-0.6v-0.6h1.85h1.85
						c0.03,0,0.05-0.01,0.07-0.03c0.02-0.02,0.03-0.04,0.03-0.07v-0.43V16.9c0-0.03-0.01-0.05-0.03-0.07
						c-0.02-0.02-0.04-0.03-0.07-0.03H54.9h-2.35c-0.03,0-0.05,0.01-0.07,0.03c-0.02,0.02-0.03,0.04-0.03,0.07v2.64v2.64
						c0,0.03,0.01,0.05,0.03,0.07c0.02,0.02,0.04,0.03,0.07,0.03h2.39h2.39c0.03,0,0.05-0.01,0.07-0.03
						c0.02-0.02,0.03-0.04,0.03-0.07v-0.43v-0.43c0-0.03-0.01-0.05-0.03-0.07C57.37,21.22,57.35,21.21,57.32,21.21z"/>
				</g>
				<g>
					<path class="st3" d="M67.79,22.28c0.01,0,0.03,0,0.04-0.01c0.01-0.01,0.03-0.01,0.04-0.03c0.01-0.01,0.02-0.02,0.02-0.04
						c0-0.01,0.01-0.03,0-0.04l-0.35-2.64l-0.35-2.64c0-0.03-0.02-0.05-0.03-0.06c-0.02-0.02-0.04-0.03-0.07-0.03h-0.7h-0.7
						c-0.02,0-0.04,0.01-0.06,0.02c-0.02,0.01-0.03,0.03-0.04,0.05l-0.92,2.24l-0.92,2.24l-0.93-2.24l-0.93-2.24
						c-0.01-0.02-0.02-0.04-0.04-0.05c-0.02-0.01-0.04-0.02-0.06-0.02h-0.71h-0.71c-0.03,0-0.05,0.01-0.07,0.03
						c-0.02,0.02-0.03,0.04-0.03,0.06l-0.33,2.64l-0.33,2.64c0,0.01,0,0.03,0,0.04c0,0.01,0.01,0.03,0.02,0.04
						c0.01,0.01,0.02,0.02,0.04,0.03c0.01,0.01,0.03,0.01,0.04,0.01h0.41h0.41c0.03,0,0.05-0.01,0.07-0.03
						c0.02-0.02,0.03-0.04,0.03-0.06l0.28-2.11l0.28-2.11l0.88,2.12l0.88,2.12c0.01,0.02,0.02,0.04,0.04,0.05
						c0.02,0.01,0.04,0.02,0.06,0.02h0.68h0.68c0.02,0,0.04-0.01,0.06-0.02c0.02-0.01,0.03-0.03,0.04-0.05l0.85-2.12l0.85-2.12
						l0.29,2.11l0.29,2.11c0,0.03,0.02,0.05,0.03,0.06c0.02,0.02,0.04,0.03,0.07,0.03h0.44H67.79z"/>
				</g>
				<g>
					<path class="st3" d="M37.83,15.71h1.35h1.35c0.03,0,0.05-0.01,0.07-0.03c0.02-0.02,0.03-0.04,0.03-0.07v-0.36v-0.36
						c0-0.03-0.01-0.05-0.03-0.07c-0.02-0.02-0.04-0.03-0.07-0.03h-1.35h-1.35c-0.03,0-0.05,0.01-0.07,0.03
						c-0.02,0.02-0.03,0.04-0.03,0.07v0.36v0.36c0,0.03,0.01,0.05,0.03,0.07C37.77,15.7,37.8,15.71,37.83,15.71z"/>
				</g>
			</g>
		</g>
		<g>
			<path class="st2" d="M27.26,41.64h8.78V37.3h-4.39c-0.25,0.22-0.51,0.44-0.77,0.67C29.71,39,28.49,40.23,27.26,41.64z"/>
			<path class="st2" d="M27.16,37.91c0.22-0.21,0.43-0.41,0.65-0.61h-2.21v-1.62h4.05c0.39-0.33,0.78-0.63,1.15-0.91
				c0.56-0.42,1.09-0.81,1.58-1.15v-1.99h-6.78v-1.66h10.24v-4.3h-15.5v15.97h3.46C24.91,40.23,26.04,38.98,27.16,37.91z"/>
			<path class="st2" d="M31.66,35.68c0.19-0.16,0.38-0.31,0.57-0.46c-0.2,0.15-0.4,0.3-0.61,0.46H31.66z"/>
		</g>
		<g>
			<path class="st2" d="M68.4,41.97c1.62,0,3.1-0.22,4.44-0.64c1.34-0.43,2.55-1.1,3.62-2l0.25-0.2l-2.31-1.78
				c-2.23,0.35-4.27,1.06-6.05,2.12c-1.04,0.61-2.03,1.34-2.97,2.16C66.34,41.85,67.35,41.97,68.4,41.97z"/>
			<path class="st2" d="M60.85,39.5c0.6,0.47,1.27,0.88,2,1.23c0.7-0.68,1.43-1.31,2.19-1.89c0.5-0.38,1.03-0.74,1.57-1.07
				c-0.34-0.09-0.66-0.2-0.98-0.34c-0.84-0.38-1.5-0.88-1.99-1.53c-0.48-0.64-0.73-1.34-0.73-2.09c0-0.76,0.24-1.49,0.73-2.17
				c0.48-0.68,1.15-1.23,1.99-1.65c0.84-0.42,1.76-0.62,2.75-0.62c0.76,0,1.49,0.13,2.19,0.38c0.7,0.25,1.45,0.61,2.25,1.07
				l0.27,0.16l3.64-2.48l-0.27-0.23c-1.04-0.89-2.26-1.59-3.67-2.11c-1.41-0.52-2.88-0.78-4.41-0.78c-1.43,0-2.83,0.25-4.18,0.74
				c-1.28,0.46-2.41,1.09-3.37,1.88c-0.96,0.79-1.7,1.69-2.22,2.68c-0.52,1-0.78,2.03-0.78,3.11c0,1.08,0.26,2.11,0.78,3.08
				C59.15,37.88,59.89,38.74,60.85,39.5z"/>
		</g>
		<g>
			<path class="st2" d="M38.92,41.64c0.65-0.77,1.24-1.6,1.78-2.48c0.41-0.71,0.75-1.49,1.01-2.3c0.25-0.78,0.36-1.6,0.33-2.44
				l0-0.02c0-0.65-0.1-1.15-0.3-1.49l-3.71,8.74H38.92z"/>
			<path class="st2" d="M50.75,25.67h-5.94l-2.35,5.55c0.23,0.19,0.44,0.4,0.62,0.64c0.39,0.51,0.67,1.11,0.83,1.78
				c0.16,0.65,0.22,1.3,0.18,1.95c-0.08,0.96-0.26,1.87-0.55,2.73c-0.29,0.85-0.66,1.69-1.12,2.49c-0.17,0.28-0.35,0.56-0.53,0.83
				h1.73l1.56-3.6h5.69l1.56,3.6h5.71L50.75,25.67z M46.66,34.31l1.23-3.05l1.25,3.05H46.66z"/>
		</g>
		<g>
			<path class="st2" d="M79.55,37.58v3.31c0.21-0.19,0.4-0.39,0.58-0.61l0.02-0.02c0.57-0.63,0.8-1.17,0.7-1.61
				C80.75,38.22,80.31,37.87,79.55,37.58z"/>
			<path class="st2" d="M90.88,25.67v5.55h-5.83v-5.55h-5.49v9.75c0.37,0.12,0.73,0.28,1.06,0.47c0.59,0.36,1.07,0.79,1.42,1.28
				c0.37,0.51,0.6,1.07,0.69,1.66c0.09,0.59,0.04,1.18-0.14,1.77c-0.11,0.36-0.27,0.7-0.49,1.03h2.94v-5.81h5.83v5.81h5.43V25.67
				H90.88z"/>
		</g>
	</g>
	<g>
		<path class="st3" d="M16.85,55.8c0.92-2.71,1.97-5.16,3.16-7.32c1.19-2.16,2.43-4.09,3.72-5.77c1.28-1.68,2.57-3.13,3.85-4.36
			c1.28-1.23,2.48-2.26,3.58-3.1c1.1-0.83,2.06-1.49,2.88-1.98c0.82-0.49,1.4-0.82,1.75-1c0.53-0.28,1.08-0.52,1.64-0.74
			c0.56-0.22,1.15-0.39,1.77-0.52c0.79-0.11,1.47-0.05,2.04,0.19c0.57,0.24,1.02,0.58,1.36,1.03c0.34,0.45,0.58,0.97,0.73,1.55
			c0.15,0.59,0.2,1.17,0.17,1.76c-0.07,0.9-0.25,1.76-0.52,2.57c-0.28,0.82-0.63,1.61-1.07,2.38c-1.82,3.05-4.27,5.46-7.38,7.24
			c-0.26,0.15-0.52,0.27-0.78,0.37c-0.27,0.1-0.54,0.19-0.81,0.26c-0.31,0.09-0.61,0.09-0.91,0c-0.29-0.09-0.54-0.27-0.74-0.52
			c-0.2-0.28-0.31-0.56-0.32-0.87c-0.01-0.3,0.06-0.61,0.21-0.92c0.15-0.37,0.33-0.72,0.56-1.07c0.23-0.35,0.44-0.69,0.65-1.02
			c0.13-0.24,0.27-0.47,0.41-0.69c0.15-0.22,0.18-0.49,0.11-0.8c-0.07-0.17-0.01-0.28,0.19-0.36c0.13-0.09,0.26-0.04,0.39,0.17
			c0.2,0.2,0.29,0.41,0.26,0.62c-0.03,0.21-0.1,0.42-0.21,0.62c-0.15,0.35-0.3,0.67-0.47,0.98c-0.17,0.3-0.34,0.61-0.52,0.92
			c-0.09,0.26-0.21,0.51-0.36,0.76c-0.15,0.25-0.27,0.51-0.36,0.78c-0.09,0.2-0.09,0.34,0,0.41c0.09,0.07,0.23,0.08,0.41,0.03
			c0.2-0.05,0.41-0.12,0.62-0.21c0.21-0.08,0.41-0.18,0.59-0.29c3.25-1.78,5.84-4.26,7.79-7.43c0.44-0.77,0.8-1.58,1.07-2.44
			c0.28-0.85,0.39-1.74,0.36-2.66c0-0.9-0.18-1.57-0.54-2.02c-0.36-0.45-0.95-0.66-1.78-0.62c-0.53,0.04-1.07,0.15-1.61,0.34
			c-0.54,0.19-1.07,0.42-1.58,0.67c-0.59,0.28-1.48,0.8-2.67,1.58c-1.19,0.78-2.54,1.83-4.03,3.16c-1.5,1.33-3.05,2.96-4.66,4.88
			c-1.61,1.93-3.14,4.17-4.57,6.74c-0.55,1.01-1.04,1.99-1.47,2.94c-0.43,0.95-0.82,1.92-1.17,2.9c-0.35,0.98-0.67,1.99-0.96,3.01
			c-0.29,1.03-0.58,2.13-0.85,3.3c-0.09,0.46-0.18,0.99-0.28,1.61c-0.09,0.61-0.17,1.25-0.22,1.91c-0.05,0.66-0.09,1.31-0.1,1.94
			c-0.01,0.63,0.01,1.18,0.07,1.64c0.09,0.59,0.2,1.05,0.33,1.38c0.13,0.33,0.34,0.64,0.63,0.94c0.28,0.28,0.64,0.48,1.1,0.62
			c0.46,0.14,0.92,0.19,1.38,0.15c0.48-0.05,0.94-0.15,1.39-0.29c0.45-0.14,0.9-0.33,1.36-0.58c0.46-0.25,0.93-0.57,1.42-0.98
			c0.49-0.4,1.02-0.9,1.61-1.49c0.92-0.94,1.64-1.85,2.16-2.74c0.52-0.89,0.9-1.69,1.14-2.39c0.24-0.71,0.36-1.3,0.36-1.78
			c0-0.48-0.07-0.77-0.22-0.88c-0.07-0.05-0.09-0.12-0.05-0.21c0.04-0.08,0.1-0.15,0.18-0.21c0.08-0.06,0.18-0.08,0.29-0.08
			s0.21,0.05,0.3,0.17c0.17,0.2,0.28,0.51,0.36,0.94c0.07,0.42,0.06,0.94-0.04,1.54c-0.1,0.61-0.31,1.28-0.62,2.02
			c-0.31,0.74-0.77,1.53-1.38,2.35c-0.35,0.5-0.77,1-1.25,1.53c-0.49,0.52-1.01,1.02-1.58,1.49c-0.57,0.47-1.17,0.89-1.82,1.27
			c-0.64,0.38-1.29,0.66-1.95,0.84c-0.7,0.2-1.39,0.26-2.06,0.18c-0.68-0.08-1.3-0.28-1.87-0.59c-0.57-0.31-1.06-0.74-1.46-1.28
			c-0.4-0.54-0.67-1.18-0.8-1.91c-0.17-1.12-0.21-2.28-0.14-3.49c0.07-1.21,0.21-2.38,0.41-3.51c0.2-1.13,0.44-2.18,0.7-3.15
			C16.38,57.28,16.63,56.46,16.85,55.8z"/>
		<path class="st3" d="M48.37,38.99c-0.35-0.27-0.65,0.06-0.88,0.23c0,0,0,0,0,0c-0.33,0.26-0.66,0.52-0.97,0.8
			c-1.17,1.03-1.55,1.5-2.59,2.72c-0.11,0.12-1.08,1.28-1.19,1.44c-0.08,0.11-0.46,0.57-0.88,1.15c-0.7,0.99-1.34,2-1.93,3.03
			c-0.6,1.04-1.14,2.09-1.64,3.15c-0.46,1.06-0.86,2.13-1.21,3.19c-0.35,1.06-0.58,2.18-0.69,3.36c-0.07,0.62,0.08,1.09,0.45,1.39
			c0.38,0.3,0.86,0.36,1.44,0.18c0.31-0.13,0.55-0.29,0.73-0.5c0.17-0.2,0.38-0.4,0.62-0.61c1.17-0.9,2.15-1.57,2.92-2.02
			c0.77-0.45,1.43-0.83,1.98-1.14c0.09-0.07,0.15-0.13,0.18-0.18c0.03-0.05,0-0.11-0.1-0.21c-0.02-0.05-0.04-0.07-0.04-0.08
			c0.01,0.02-0.02,0.05-0.1,0.08c-0.18,0-0.37,0.04-0.55,0.11c-0.18,0.07-0.32,0.17-0.41,0.28c-0.33,0.17-0.63,0.32-0.89,0.45
			c-0.27,0.14-0.55,0.29-0.84,0.45c-0.29,0.17-0.62,0.36-0.98,0.59c-0.36,0.23-0.79,0.54-1.31,0.92c-0.29,0.18-0.57,0.38-0.83,0.59
			c-0.26,0.21-0.54,0.42-0.85,0.62c-0.28,0.11-0.46,0.13-0.56,0.05c-0.1-0.07-0.15-0.25-0.15-0.52c0.04-0.51,0.13-0.94,0.28-1.27
			c0.61-2.29,1.44-4.44,2.49-6.44c1.05-2,2.29-3.94,3.7-5.81c0.22-0.29,2.29-2.81,3.53-3.8C48.13,40.3,48.79,39.31,48.37,38.99z"/>
		<path class="st3" d="M50.12,57.29c-0.33,0.09-0.63,0.12-0.91,0.08c-0.28-0.04-0.55-0.17-0.83-0.39c-0.04-0.11-0.09-0.22-0.15-0.34
			c-0.06-0.12-0.13-0.23-0.21-0.34c-0.04,0.02-0.09,0.03-0.15,0.03c-0.06,0-0.11,0.01-0.15,0.03c-0.2,0.2-0.4,0.42-0.59,0.65
			c-0.19,0.23-0.4,0.47-0.62,0.73c-0.31,0.35-0.72,0.61-1.21,0.8c-0.22-0.04-0.41-0.1-0.58-0.19c-0.17-0.09-0.31-0.23-0.44-0.41
			c-0.13-0.18-0.2-0.39-0.22-0.62c-0.02-0.23-0.02-0.44,0-0.65c0.04-0.2,0.13-0.47,0.29-0.81c0.16-0.34,0.33-0.7,0.54-1.09
			c0.2-0.39,0.42-0.76,0.65-1.13c0.23-0.37,0.43-0.68,0.59-0.94c0.15,0,0.27,0.02,0.36,0.05c0.05,0.02,0.14,0.1,0.25,0.25
			c0,0.04,0.01,0.07,0.03,0.11c0.02,0.04,0.01,0.07-0.03,0.11c-0.05,0.13-0.15,0.33-0.29,0.59c-0.14,0.27-0.28,0.55-0.44,0.84
			c-0.16,0.29-0.3,0.58-0.44,0.85c-0.14,0.28-0.22,0.48-0.26,0.61c-0.07,0.18-0.12,0.37-0.15,0.55c-0.03,0.18,0.04,0.38,0.21,0.58
			c0.44-0.2,0.79-0.5,1.05-0.88c0.26-0.39,0.54-0.76,0.85-1.13c0.29-0.35,0.59-0.71,0.88-1.09c0.29-0.38,0.59-0.74,0.88-1.09
			c0.2-0.11,0.37-0.13,0.51-0.05c0.14,0.07,0.28,0.22,0.43,0.44c-0.09,0.48-0.23,0.95-0.41,1.4c-0.18,0.46-0.29,0.95-0.33,1.49
			c0.09,0.05,0.19,0.11,0.3,0.15c0.11,0.05,0.21,0.06,0.3,0.04c0.26-0.07,0.48-0.14,0.67-0.19c0.19-0.06,0.39-0.11,0.61-0.18
			c0.21-0.06,0.44-0.15,0.69-0.25c0.25-0.1,0.55-0.23,0.92-0.4c0.18-0.09,0.4-0.19,0.66-0.29c0.26-0.1,0.5-0.19,0.74-0.28
			c0.24-0.08,0.45-0.14,0.65-0.18c0.19-0.04,0.33-0.04,0.4,0c0.11,0,0.2,0.01,0.26,0.03c0.06,0.02,0.11,0.1,0.12,0.25
			c-0.13,0.13-0.26,0.2-0.39,0.21c-0.13,0.01-0.3,0.05-0.52,0.12c-0.11,0.05-0.23,0.11-0.36,0.15c-0.13,0.05-0.29,0.11-0.5,0.19
			c-0.2,0.08-0.45,0.18-0.76,0.3c-0.3,0.12-0.69,0.29-1.17,0.51c-0.09,0.04-0.22,0.09-0.39,0.15c-0.17,0.06-0.34,0.13-0.51,0.21
			c-0.17,0.07-0.34,0.15-0.5,0.22C50.31,57.17,50.19,57.23,50.12,57.29z"/>
		<path class="st3" d="M57.08,53.54c0.26-0.02,0.48-0.09,0.67-0.22c0.19-0.13,0.41-0.24,0.65-0.33c0.42-0.17,0.83-0.23,1.21-0.21
			c0.39,0.03,0.72,0.13,1.02,0.32c0.29,0.18,0.54,0.44,0.73,0.77c0.19,0.33,0.31,0.72,0.34,1.16c0.04,0.18,0.05,0.37,0.04,0.56
			c-0.01,0.19-0.04,0.38-0.1,0.56c-0.04,0.31,0.03,0.48,0.21,0.51c0.17,0.03,0.4,0.02,0.67-0.01c0.28-0.02,0.61-0.06,0.99-0.12
			c0.39-0.06,0.77-0.13,1.16-0.19c0.39-0.06,0.74-0.12,1.06-0.17c0.32-0.05,0.56-0.07,0.73-0.07c0.15,0,0.26,0.09,0.33,0.26
			c0.07,0.17-0.01,0.28-0.25,0.32c-0.37,0.05-0.76,0.13-1.18,0.22c-0.42,0.09-0.84,0.18-1.25,0.28c-0.41,0.09-0.8,0.18-1.17,0.26
			c-0.37,0.08-0.68,0.15-0.94,0.21c-0.28,0.05-0.51,0.13-0.7,0.22c-0.19,0.09-0.36,0.27-0.51,0.52c-0.31,0.48-0.67,0.93-1.07,1.36
			c-0.4,0.43-0.84,0.79-1.32,1.09c-0.66,0.44-1.22,0.61-1.69,0.52c-0.47-0.09-0.9-0.49-1.31-1.18c-0.05,0-0.08-0.02-0.08-0.05v-0.03
			c-0.24-0.15-0.4-0.31-0.5-0.5c-0.09-0.18-0.15-0.38-0.17-0.58c-0.02-0.2-0.01-0.41,0.03-0.62c0.04-0.21,0.06-0.43,0.08-0.65
			c0.64-4.26,2.12-8.15,4.43-11.7c0.06-0.09,0.12-0.19,0.21-0.29c0.08-0.1,0.13-0.22,0.15-0.37c-0.02-0.09-0.06-0.16-0.12-0.19
			c-0.06-0.04-0.14-0.05-0.23-0.05c-1.36,0-2.71,0.04-4.05,0.12c-1.34,0.08-2.68,0.31-4.02,0.67c-0.26,0.06-0.5,0.13-0.73,0.22
			c-0.23,0.09-0.47,0.19-0.73,0.3c-0.24,0.11-0.42,0.04-0.55-0.22c-0.06-0.11-0.05-0.21,0.03-0.29c0.07-0.08,0.17-0.15,0.28-0.21
			c1.21-0.55,2.52-0.91,3.94-1.07c1.05-0.15,2.08-0.24,3.11-0.29c1.03-0.05,2.05-0.09,3.08-0.12c0.33,0,0.62-0.06,0.87-0.17
			c0.25-0.11,0.47-0.29,0.67-0.55c1.3-1.61,2.74-3.02,4.32-4.22c1.58-1.2,3.37-2.14,5.37-2.82c1.21-0.4,2.44-0.69,3.67-0.87
			c1.24-0.17,2.5-0.15,3.78,0.07c0.35,0.07,0.7,0.17,1.06,0.28c0.36,0.11,0.69,0.26,1,0.44c0.51,0.31,0.93,0.68,1.24,1.11
			c0.31,0.43,0.5,0.89,0.58,1.39c0.07,0.5,0.03,1-0.12,1.5c-0.16,0.5-0.44,0.98-0.84,1.42c-0.55,0.59-1.17,1.08-1.86,1.47
			c-0.69,0.39-1.41,0.75-2.16,1.06c-1.27,0.5-2.57,0.83-3.91,1.02c-1.34,0.18-2.7,0.24-4.07,0.17c-1.08-0.04-2.17-0.08-3.25-0.14
			c-1.08-0.06-2.17-0.13-3.27-0.22c-0.53-0.04-0.96,0.04-1.29,0.22c-0.33,0.18-0.63,0.49-0.91,0.91c-0.64,0.99-1.22,2-1.75,3.01
			c-0.52,1.02-1,2.08-1.42,3.18c-0.05,0.17-0.12,0.33-0.19,0.48c-0.07,0.16-0.09,0.33-0.05,0.51v0.03H57.08z M55.73,58.66
			c0.62-0.42,1.26-0.77,1.91-1.06c0.65-0.28,1.36-0.44,2.13-0.48c0.18-0.04,0.32-0.11,0.4-0.21c0.08-0.1,0.17-0.22,0.26-0.34
			c0.09-0.26,0.18-0.52,0.28-0.8c0.09-0.28,0.15-0.55,0.17-0.83c0.05-0.53-0.02-0.89-0.23-1.09c-0.21-0.19-0.58-0.24-1.11-0.15
			c-0.59,0.11-1.12,0.32-1.61,0.62c-0.49,0.3-0.89,0.67-1.22,1.11c-0.33,0.44-0.58,0.94-0.76,1.49c-0.17,0.55-0.24,1.14-0.21,1.76
			l-0.03-0.03H55.73z M56.72,60.15c1.05-0.24,1.86-0.85,2.45-1.84c-0.57,0.09-1.07,0.28-1.5,0.56
			C57.24,59.15,56.92,59.58,56.72,60.15z M62.25,44.13c0.11,0.11,0.21,0.17,0.3,0.19c0.09,0.02,0.18,0.03,0.28,0.03
			c1.16,0.04,2.3,0.08,3.44,0.14c1.14,0.05,2.28,0.1,3.44,0.14c1.38,0,2.72-0.13,4.03-0.4c1.31-0.27,2.6-0.72,3.87-1.36
			c0.55-0.28,1.09-0.59,1.61-0.94c0.52-0.35,0.99-0.77,1.39-1.27c0.72-0.79,0.99-1.51,0.84-2.16c-0.16-0.65-0.74-1.16-1.75-1.53
			c-0.79-0.28-1.59-0.43-2.39-0.45c-0.81-0.03-1.61,0.01-2.42,0.12c-2.55,0.33-4.83,1.09-6.85,2.28c-2.02,1.19-3.85,2.75-5.5,4.68
			c-0.04,0.05-0.09,0.12-0.17,0.21C62.29,43.9,62.25,44,62.25,44.13z"/>
	</g>
</g>
</svg>